<?xml version="1.0" encoding="UTF-8" standalone="no"?>
<svg
   enable-background="new 0 0 400 400"
   height="400"
   viewBox="0 0 400 400"
   width="400"
   version="1.1"
   id="svg3"
   sodipodi:docname="function14-large.svg"
   inkscape:version="1.4 (86a8ad7, 2024-10-11)"
   xmlns:inkscape="http://www.inkscape.org/namespaces/inkscape"
   xmlns:sodipodi="http://sodipodi.sourceforge.net/DTD/sodipodi-0.dtd"
   xmlns="http://www.w3.org/2000/svg"
   xmlns:svg="http://www.w3.org/2000/svg">
  <defs
     id="defs3" />
  <sodipodi:namedview
     id="namedview3"
     pagecolor="#ffffff"
     bordercolor="#000000"
     borderopacity="0.25"
     inkscape:showpageshadow="2"
     inkscape:pageopacity="0.0"
     inkscape:pagecheckerboard="0"
     inkscape:deskcolor="#d1d1d1"
     inkscape:zoom="1.755"
     inkscape:cx="199.7151"
     inkscape:cy="200"
     inkscape:window-width="1680"
     inkscape:window-height="946"
     inkscape:window-x="-8"
     inkscape:window-y="-8"
     inkscape:window-maximized="1"
     inkscape:current-layer="svg3" />
  <path
     d="m257.965 115.357 43.874-63.532c-3.885-.516-7.928-.216-11.888 1.094l-94.47 31.178c-5.403 1.784-9.842 5.134-13.008 9.362z"
     fill="#929497"
     id="path1" />
  <path
     d="m263.672 131.991-86.379-25.423c-.409 3.705-.077 7.551 1.167 11.32l19.503 59.094c4.633 14.037 19.762 21.653 33.793 17.024l94.468-31.178c14.031-4.632 21.653-19.757 17.021-33.794l-19.504-59.091c-1.696-5.142-4.812-9.414-8.756-12.548z"
     fill="#929497"
     id="path2" />
  <path
     d="m308.446 190.223-32.243 136.868h-153.869l-45.652-203.616-21.805 4.888 49.569 221.074h189.351l40.426-167.594z"
     fill="#f26f21"
     id="path3"
     style="fill:#005500" />
</svg>
