<?xml version="1.0" encoding="UTF-8" standalone="no"?>
<svg
   enable-background="new 0 0 400 400"
   height="400"
   viewBox="0 0 400 400"
   width="400"
   version="1.1"
   id="svg8"
   sodipodi:docname="function3-large.svg"
   inkscape:version="1.4 (86a8ad7, 2024-10-11)"
   xmlns:inkscape="http://www.inkscape.org/namespaces/inkscape"
   xmlns:sodipodi="http://sodipodi.sourceforge.net/DTD/sodipodi-0.dtd"
   xmlns="http://www.w3.org/2000/svg"
   xmlns:svg="http://www.w3.org/2000/svg">
  <defs
     id="defs8" />
  <sodipodi:namedview
     id="namedview8"
     pagecolor="#ffffff"
     bordercolor="#000000"
     borderopacity="0.25"
     inkscape:showpageshadow="2"
     inkscape:pageopacity="0.0"
     inkscape:pagecheckerboard="0"
     inkscape:deskcolor="#d1d1d1"
     inkscape:zoom="1.755"
     inkscape:cx="199.7151"
     inkscape:cy="200"
     inkscape:window-width="1680"
     inkscape:window-height="946"
     inkscape:window-x="-8"
     inkscape:window-y="-8"
     inkscape:window-maximized="1"
     inkscape:current-layer="g8" />
  <path
     d="m38.604 117.051 46.255 46.257-31.759 31.757 116.298-6.418 6.415-116.291-31.759 31.758-46.255-46.254z"
     fill="#939598"
     id="path1" />
  <path
     d="m276.357 218.246 46.257-46.255 31.758 31.758-6.418-116.296-116.291-6.416 31.758 31.758-46.255 46.257z"
     fill="#939598"
     id="path2" />
  <g
     fill="#f37021"
     id="g8">
    <path
       d="m145.623 280.441 1.557-1.557c-.523-.271-1.038-.56-1.557-.838z"
       id="path3" />
    <path
       d="m114.37 254.463c-12.587-13.045-21.779-28.146-27.554-44.211l-21.004 1.385c6.774 21.533 18.657 41.807 35.723 58.872 4.093 4.093 8.399 7.827 12.835 11.32z"
       id="path4"
       style="fill:#005500" />
    <path
       d="m325.193 196.865c-4.264 18-12.574 35.229-24.941 50.243v29.255c2.121-1.884 4.21-3.819 6.244-5.851 16.44-16.438 28.068-35.854 34.958-56.5z"
       id="path5"
       style="fill:#005500" />
    <path
       d="m308.879 67.953c-50.767-50.376-132.286-58.256-188.73-18.103l14.627 14.627c42.099-28.21 97.577-27.976 139.463.685z"
       id="path6"
       style="fill:#005500" />
    <path
       d="m238.419 217.756h-68.282c-8.873 0-16.067 7.193-16.067 16.067v125.853c0 8.875 7.194 16.066 16.067 16.066h68.282c8.875 0 16.067-7.191 16.067-16.066v-125.853c0-8.874-7.192-16.067-16.067-16.067zm-60.666 146.039h-3.855c-5.035 0-9.117-4.086-9.117-9.119 0-5.035 4.083-9.117 9.117-9.117h3.855c5.036 0 9.119 4.082 9.119 9.117 0 5.033-4.083 9.119-9.119 9.119zm0-22.256h-3.855c-5.035 0-9.117-4.082-9.117-9.117s4.083-9.117 9.117-9.117h3.855c5.036 0 9.119 4.082 9.119 9.117s-4.083 9.117-9.119 9.117zm0-21.703h-3.855c-5.035 0-9.117-4.084-9.117-9.117 0-5.037 4.083-9.121 9.117-9.121h3.855c5.036 0 9.119 4.084 9.119 9.121 0 5.033-4.083 9.117-9.119 9.117zm28.453 43.959h-3.855c-5.038 0-9.117-4.086-9.117-9.119 0-5.035 4.079-9.117 9.117-9.117h3.855c5.033 0 9.117 4.082 9.117 9.117 0 5.033-4.084 9.119-9.117 9.119zm0-22.256h-3.855c-5.038 0-9.117-4.082-9.117-9.117s4.079-9.117 9.117-9.117h3.855c5.033 0 9.117 4.082 9.117 9.117s-4.084 9.117-9.117 9.117zm0-21.703h-3.855c-5.038 0-9.117-4.084-9.117-9.117 0-5.037 4.079-9.121 9.117-9.121h3.855c5.033 0 9.117 4.084 9.117 9.121 0 5.033-4.084 9.117-9.117 9.117zm28.45 43.959h-3.854c-5.036 0-9.12-4.086-9.12-9.119 0-5.035 4.084-9.117 9.12-9.117h3.854c5.033 0 9.117 4.082 9.117 9.117 0 5.033-4.084 9.119-9.117 9.119zm0-22.256h-3.854c-5.036 0-9.12-4.082-9.12-9.117s4.084-9.117 9.12-9.117h3.854c5.033 0 9.117 4.082 9.117 9.117s-4.084 9.117-9.117 9.117zm0-21.703h-3.854c-5.036 0-9.12-4.084-9.12-9.117 0-5.037 4.084-9.121 9.12-9.121h3.854c5.033 0 9.117 4.084 9.117 9.121 0 5.033-4.084 9.117-9.117 9.117zm9.117-51.856c0 7.394-5.992 13.389-13.387 13.389h-52.216c-7.395 0-13.389-5.995-13.389-13.389v-26.778c0-7.394 5.994-13.388 13.389-13.388h52.217c7.395 0 13.387 5.994 13.387 13.388v26.778z"
       id="path7"
       style="fill:#005500" />
    <path
       d="m235.406 214.693c4.437 0 8.035-3.597 8.035-8.033v-10.711c0-4.438-3.599-8.034-8.035-8.034-4.438 0-8.035 3.596-8.035 8.034v10.711c0 4.437 3.597 8.033 8.035 8.033z"
       id="path8"
       style="fill:#005500" />
  </g>
</svg>
