<?xml version="1.0" encoding="UTF-8" standalone="no"?>
<svg
   enable-background="new 0 0 400 400"
   height="400"
   viewBox="0 0 400 400"
   width="400"
   version="1.1"
   id="svg7"
   sodipodi:docname="function5-large.svg"
   inkscape:version="1.4 (86a8ad7, 2024-10-11)"
   xmlns:inkscape="http://www.inkscape.org/namespaces/inkscape"
   xmlns:sodipodi="http://sodipodi.sourceforge.net/DTD/sodipodi-0.dtd"
   xmlns="http://www.w3.org/2000/svg"
   xmlns:svg="http://www.w3.org/2000/svg">
  <defs
     id="defs7" />
  <sodipodi:namedview
     id="namedview7"
     pagecolor="#ffffff"
     bordercolor="#000000"
     borderopacity="0.25"
     inkscape:showpageshadow="2"
     inkscape:pageopacity="0.0"
     inkscape:pagecheckerboard="0"
     inkscape:deskcolor="#d1d1d1"
     inkscape:zoom="1.755"
     inkscape:cx="199.7151"
     inkscape:cy="200"
     inkscape:window-width="1680"
     inkscape:window-height="946"
     inkscape:window-x="-8"
     inkscape:window-y="-8"
     inkscape:window-maximized="1"
     inkscape:current-layer="svg7" />
  <path
     d="m268.595 207.389h39.853v27.365l47.339-52.871-47.339-52.866v27.365h-39.853z"
     fill="#939598"
     id="path1" />
  <path
     d="m268.595 316.297h39.853v27.365l47.339-52.869-47.339-52.866v27.367h-39.853z"
     fill="#939598"
     id="path2" />
  <path
     d="m230.112 128.788h-92.958c-12.08 0-21.873 9.792-21.873 21.875v171.333c0 12.082 9.792 21.874 21.873 21.874h92.958c12.079 0 21.875-9.792 21.875-21.874v-171.333c-.001-12.083-9.796-21.875-21.875-21.875zm-82.588 198.814h-5.249c-6.855 0-12.414-5.559-12.414-12.415 0-6.857 5.559-12.413 12.414-12.413h5.249c6.855 0 12.413 5.556 12.413 12.413 0 6.856-5.558 12.415-12.413 12.415zm0-30.298h-5.249c-6.855 0-12.414-5.558-12.414-12.412 0-6.856 5.559-12.412 12.414-12.412h5.249c6.855 0 12.413 5.556 12.413 12.412 0 6.854-5.558 12.412-12.413 12.412zm0-29.544h-5.249c-6.855 0-12.414-5.559-12.414-12.413 0-6.858 5.559-12.415 12.414-12.415h5.249c6.855 0 12.413 5.557 12.413 12.415 0 6.854-5.558 12.413-12.413 12.413zm38.732 59.842h-5.248c-6.854 0-12.412-5.559-12.412-12.415 0-6.857 5.557-12.413 12.412-12.413h5.248c6.856 0 12.413 5.556 12.413 12.413-.001 6.856-5.557 12.415-12.413 12.415zm0-30.298h-5.248c-6.854 0-12.412-5.558-12.412-12.412 0-6.856 5.557-12.412 12.412-12.412h5.248c6.856 0 12.413 5.556 12.413 12.412-.001 6.854-5.557 12.412-12.413 12.412zm0-29.544h-5.248c-6.854 0-12.412-5.559-12.412-12.413 0-6.858 5.557-12.415 12.412-12.415h5.248c6.856 0 12.413 5.557 12.413 12.415-.001 6.854-5.557 12.413-12.413 12.413zm38.733 59.842h-5.249c-6.854 0-12.412-5.559-12.412-12.415 0-6.857 5.559-12.413 12.412-12.413h5.249c6.854 0 12.412 5.556 12.412 12.413 0 6.856-5.559 12.415-12.412 12.415zm0-30.298h-5.249c-6.854 0-12.412-5.558-12.412-12.412 0-6.856 5.559-12.412 12.412-12.412h5.249c6.854 0 12.412 5.556 12.412 12.412 0 6.854-5.559 12.412-12.412 12.412zm0-29.544h-5.249c-6.854 0-12.412-5.559-12.412-12.413 0-6.858 5.559-12.415 12.412-12.415h5.249c6.854 0 12.412 5.557 12.412 12.415 0 6.854-5.559 12.413-12.412 12.413zm12.412-70.599c0 10.067-8.16 18.23-18.226 18.23h-71.086c-10.068 0-18.228-8.163-18.228-18.23v-36.453c0-10.068 8.16-18.228 18.228-18.228h71.086c10.065 0 18.226 8.16 18.226 18.228z"
     fill="#f37021"
     id="path3"
     style="fill:#005500" />
  <path
     d="m226.009 124.618c6.04 0 10.936-4.896 10.936-10.934v-14.585c0-6.04-4.896-10.933-10.936-10.933-6.038 0-10.937 4.895-10.937 10.933v14.585c.001 6.039 4.899 10.934 10.937 10.934z"
     fill="#f37021"
     id="path4"
     style="fill:#005500" />
  <g
     fill="#939598"
     id="g7">
    <path
       d="m135.324 72.861v-13.282c-48.447 0-87.723 39.274-87.723 87.723h13.281c.001-41.112 33.331-74.441 74.442-74.441z"
       id="path5" />
    <path
       d="m135.324 94.665v-9.393c-34.257 0-62.029 27.772-62.029 62.03h9.392c0-29.072 23.566-52.637 52.637-52.637z"
       id="path6" />
    <path
       d="m135.324 113.284v-6.071c-22.139 0-40.087 17.949-40.087 40.088h6.069c.001-18.788 15.229-34.017 34.018-34.017z"
       id="path7" />
  </g>
</svg>
