<?xml version="1.0" encoding="UTF-8" standalone="no"?>
<svg
   enable-background="new 0 0 400 400"
   height="400"
   viewBox="0 0 400 400"
   width="400"
   version="1.1"
   id="svg4"
   sodipodi:docname="function2-large.svg"
   inkscape:version="1.4 (86a8ad7, 2024-10-11)"
   xmlns:inkscape="http://www.inkscape.org/namespaces/inkscape"
   xmlns:sodipodi="http://sodipodi.sourceforge.net/DTD/sodipodi-0.dtd"
   xmlns="http://www.w3.org/2000/svg"
   xmlns:svg="http://www.w3.org/2000/svg">
  <defs
     id="defs4" />
  <sodipodi:namedview
     id="namedview4"
     pagecolor="#ffffff"
     bordercolor="#000000"
     borderopacity="0.25"
     inkscape:showpageshadow="2"
     inkscape:pageopacity="0.0"
     inkscape:pagecheckerboard="0"
     inkscape:deskcolor="#d1d1d1"
     inkscape:zoom="1.755"
     inkscape:cx="199.7151"
     inkscape:cy="200"
     inkscape:window-width="1680"
     inkscape:window-height="946"
     inkscape:window-x="-8"
     inkscape:window-y="-8"
     inkscape:window-maximized="1"
     inkscape:current-layer="svg4" />
  <path
     d="m274.839 131.454h-96.025c-12.478 0-22.595 10.116-22.595 22.596v176.987c0 12.479 10.117 22.594 22.595 22.594h96.026c12.479 0 22.594-10.114 22.594-22.594v-176.988c-.001-12.479-10.115-22.595-22.595-22.595zm-85.314 205.372h-5.421c-7.081 0-12.821-5.745-12.821-12.824 0-7.08 5.74-12.82 12.821-12.82h5.421c7.081 0 12.824 5.738 12.824 12.82 0 7.08-5.743 12.824-12.824 12.824zm0-31.296h-5.421c-7.081 0-12.821-5.743-12.821-12.823 0-7.082 5.74-12.823 12.821-12.823h5.421c7.081 0 12.824 5.739 12.824 12.823 0 7.08-5.743 12.823-12.824 12.823zm0-30.52h-5.421c-7.081 0-12.821-5.742-12.821-12.822 0-7.087 5.74-12.828 12.821-12.828h5.421c7.081 0 12.824 5.741 12.824 12.828 0 7.08-5.743 12.822-12.824 12.822zm40.013 61.816h-5.422c-7.082 0-12.822-5.745-12.822-12.824 0-7.08 5.739-12.82 12.822-12.82h5.422c7.079 0 12.821 5.738 12.821 12.82.001 7.08-5.742 12.824-12.821 12.824zm0-31.296h-5.422c-7.082 0-12.822-5.743-12.822-12.823 0-7.082 5.739-12.823 12.822-12.823h5.422c7.079 0 12.821 5.739 12.821 12.823.001 7.08-5.742 12.823-12.821 12.823zm0-30.52h-5.422c-7.082 0-12.822-5.742-12.822-12.822 0-7.087 5.739-12.828 12.822-12.828h5.422c7.079 0 12.821 5.741 12.821 12.828.001 7.08-5.742 12.822-12.821 12.822zm40.009 61.816h-5.422c-7.08 0-12.823-5.745-12.823-12.824 0-7.08 5.742-12.82 12.823-12.82h5.422c7.078 0 12.821 5.738 12.821 12.82 0 7.08-5.742 12.824-12.821 12.824zm0-31.296h-5.422c-7.08 0-12.823-5.743-12.823-12.823 0-7.082 5.742-12.823 12.823-12.823h5.422c7.078 0 12.821 5.739 12.821 12.823 0 7.08-5.742 12.823-12.821 12.823zm0-30.52h-5.422c-7.08 0-12.823-5.742-12.823-12.822 0-7.087 5.742-12.828 12.823-12.828h5.422c7.078 0 12.821 5.741 12.821 12.828 0 7.08-5.742 12.822-12.821 12.822zm12.821-72.927c0 10.398-8.427 18.83-18.826 18.83h-73.431c-10.4 0-18.829-8.432-18.829-18.83v-37.657c0-10.4 8.429-18.829 18.829-18.829h73.431c10.399 0 18.826 8.429 18.826 18.829z"
     fill="#f37021"
     id="path1"
     style="fill:#005500" />
  <path
     d="m270.601 127.146c6.239 0 11.3-5.057 11.3-11.294v-15.065c0-6.24-5.061-11.297-11.3-11.297-6.24 0-11.297 5.057-11.297 11.297v15.064c0 6.237 5.057 11.295 11.297 11.295z"
     fill="#f37021"
     id="path2"
     style="fill:#005500" />
  <g
     fill="#939598"
     id="g4">
    <path
       d="m219.278 82.938c6.237 0 11.299-5.059 11.299-11.297v-15.064c0-6.239-5.062-11.296-11.299-11.296-6.239 0-11.297 5.057-11.297 11.296v15.064c.001 6.237 5.057 11.297 11.297 11.297z"
       id="path3" />
    <path
       d="m225.872 88.584h-96.028c-12.479 0-22.593 10.116-22.593 22.597v176.983c0 12.483 10.114 22.598 22.593 22.598h12.095v-16.946c-.46.052-.909.14-1.383.14h-5.42c-7.082 0-12.822-5.742-12.822-12.824 0-7.08 5.74-12.822 12.822-12.822h5.42c.474 0 .922.092 1.383.144v-5.934c-.46.054-.909.139-1.383.139h-5.42c-7.082 0-12.822-5.736-12.822-12.817 0-7.085 5.74-12.825 12.822-12.825h5.42c.474 0 .922.089 1.383.14v-5.153c-.46.05-.909.14-1.383.14h-5.42c-7.082 0-12.822-5.742-12.822-12.823 0-7.083 5.74-12.828 12.822-12.828h5.42c.474 0 .922.088 1.383.142v-28.589h-.797c-10.399 0-18.828-8.43-18.828-18.828v-37.656c0-10.401 8.429-18.83 18.828-18.83h73.432c9.872 0 17.954 7.602 18.747 17.274h15.146v-8.822c0-12.484-10.118-22.6-22.595-22.6z"
       id="path4" />
  </g>
</svg>
