<?xml version="1.0" encoding="UTF-8" standalone="no"?>
<svg
   enable-background="new 0 0 400 400"
   height="400"
   viewBox="0 0 400 400"
   width="400"
   version="1.1"
   id="svg2"
   sodipodi:docname="function12-large.svg"
   inkscape:version="1.4 (86a8ad7, 2024-10-11)"
   xmlns:inkscape="http://www.inkscape.org/namespaces/inkscape"
   xmlns:sodipodi="http://sodipodi.sourceforge.net/DTD/sodipodi-0.dtd"
   xmlns="http://www.w3.org/2000/svg"
   xmlns:svg="http://www.w3.org/2000/svg">
  <defs
     id="defs2" />
  <sodipodi:namedview
     id="namedview2"
     pagecolor="#ffffff"
     bordercolor="#000000"
     borderopacity="0.25"
     inkscape:showpageshadow="2"
     inkscape:pageopacity="0.0"
     inkscape:pagecheckerboard="0"
     inkscape:deskcolor="#d1d1d1"
     inkscape:zoom="1.755"
     inkscape:cx="199.7151"
     inkscape:cy="200"
     inkscape:window-width="1680"
     inkscape:window-height="946"
     inkscape:window-x="-8"
     inkscape:window-y="-8"
     inkscape:window-maximized="1"
     inkscape:current-layer="svg2" />
  <path
     d="m198.476 34c-91.263 0-165.242 73.982-165.242 165.245s73.979 165.245 165.242 165.245 165.245-73.982 165.245-165.245-73.983-165.245-165.245-165.245zm0 307.269c-78.437 0-142.024-63.587-142.024-142.023 0-78.44 63.587-142.024 142.024-142.024s142.026 63.584 142.026 142.024c0 78.436-63.59 142.023-142.026 142.023z"
     fill="#f37021"
     id="path1"
     style="fill:#005500" />
  <path
     d="m246.494 167.22h-42.656v-6.388c0-6.811-.498-11.266-1.482-13.367-.986-2.099-3.1-3.146-6.336-3.146-2.605 0-4.554.905-5.856 2.72-1.303 1.809-1.956 4.535-1.956 8.157 0 6.046 1.334 10.28 4.013 12.692 2.605 2.419 10.274 7.122 23.02 14.12 10.84 5.919 18.232 10.451 22.174 13.6s7.271 7.597 9.979 13.358c2.711 5.757 4.066 12.926 4.066 21.521 0 13.74-3.662 24.519-10.982 32.349-7.321 7.821-18.304 12.652-32.945 14.502v14.502h-19.641v-14.98c-11.406-1.017-21.366-4.974-29.883-11.878-8.521-6.901-12.776-18.944-12.776-36.119v-7.545h42.66v9.459c0 10.365.438 16.806 1.321 19.317.879 2.515 3.009 3.768 6.388 3.768 2.885 0 5.03-.87 6.441-2.617 1.405-1.757 2.107-4.346 2.107-7.778 0-8.657-.668-14.84-2.002-18.564-1.34-3.725-5.912-7.774-13.728-12.167-13.025-7.38-21.878-12.798-26.557-16.271-4.682-3.463-8.732-8.35-12.146-14.642-3.417-6.304-5.123-13.423-5.123-21.378 0-11.511 3.609-20.545 10.824-27.098 7.218-6.55 18.042-10.594 32.473-12.117v-12.31h19.641v12.31c13.161 1.523 23.022 5.515 29.565 11.974 6.55 6.457 9.823 15.378 9.823 26.762 0 1.593-.143 4.006-.426 7.254z"
     fill="#939598"
     id="path2" />
</svg>
