<?xml version="1.0" encoding="UTF-8" standalone="no"?>
<svg
   enable-background="new 0 0 400 400"
   height="400"
   viewBox="0 0 400 400"
   width="400"
   version="1.1"
   id="svg9"
   sodipodi:docname="function6-large.svg"
   inkscape:version="1.4 (86a8ad7, 2024-10-11)"
   xmlns:inkscape="http://www.inkscape.org/namespaces/inkscape"
   xmlns:sodipodi="http://sodipodi.sourceforge.net/DTD/sodipodi-0.dtd"
   xmlns="http://www.w3.org/2000/svg"
   xmlns:svg="http://www.w3.org/2000/svg">
  <defs
     id="defs9" />
  <sodipodi:namedview
     id="namedview9"
     pagecolor="#ffffff"
     bordercolor="#000000"
     borderopacity="0.25"
     inkscape:showpageshadow="2"
     inkscape:pageopacity="0.0"
     inkscape:pagecheckerboard="0"
     inkscape:deskcolor="#d1d1d1"
     inkscape:zoom="1.755"
     inkscape:cx="199.7151"
     inkscape:cy="200"
     inkscape:window-width="1680"
     inkscape:window-height="946"
     inkscape:window-x="-8"
     inkscape:window-y="-8"
     inkscape:window-maximized="1"
     inkscape:current-layer="svg9" />
  <path
     d="m224.415 130.895h-90.035c-11.703 0-21.185 9.483-21.185 21.187v165.941c0 11.699 9.482 21.185 21.185 21.185h90.035c11.696 0 21.182-9.485 21.182-21.185v-165.942c0-11.703-9.485-21.186-21.182-21.186zm-79.991 192.557h-5.083c-6.641 0-12.022-5.384-12.022-12.025s5.381-12.021 12.022-12.021h5.083c6.641 0 12.021 5.381 12.021 12.021 0 6.641-5.381 12.025-12.021 12.025zm0-29.345h-5.083c-6.641 0-12.022-5.383-12.022-12.021 0-6.641 5.381-12.021 12.022-12.021h5.083c6.641 0 12.021 5.382 12.021 12.021s-5.381 12.021-12.021 12.021zm0-28.614h-5.083c-6.641 0-12.022-5.384-12.022-12.024 0-6.642 5.381-12.025 12.022-12.025h5.083c6.641 0 12.021 5.384 12.021 12.025 0 6.638-5.381 12.024-12.021 12.024zm37.514 57.959h-5.083c-6.641 0-12.022-5.384-12.022-12.025s5.381-12.021 12.022-12.021h5.083c6.641 0 12.023 5.381 12.023 12.021 0 6.641-5.382 12.025-12.023 12.025zm0-29.345h-5.083c-6.641 0-12.022-5.383-12.022-12.021 0-6.641 5.381-12.021 12.022-12.021h5.083c6.641 0 12.023 5.382 12.023 12.021s-5.382 12.021-12.023 12.021zm0-28.614h-5.083c-6.641 0-12.022-5.384-12.022-12.024 0-6.642 5.381-12.025 12.022-12.025h5.083c6.641 0 12.023 5.384 12.023 12.025 0 6.638-5.382 12.024-12.023 12.024zm37.512 57.959h-5.082c-6.64 0-12.021-5.384-12.021-12.025s5.382-12.021 12.021-12.021h5.082c6.641 0 12.024 5.381 12.024 12.021.001 6.641-5.383 12.025-12.024 12.025zm0-29.345h-5.082c-6.64 0-12.021-5.383-12.021-12.021 0-6.641 5.382-12.021 12.021-12.021h5.082c6.641 0 12.024 5.382 12.024 12.021.001 6.639-5.383 12.021-12.024 12.021zm0-28.614h-5.082c-6.64 0-12.021-5.384-12.021-12.024 0-6.642 5.382-12.025 12.021-12.025h5.082c6.641 0 12.024 5.384 12.024 12.025.001 6.638-5.383 12.024-12.024 12.024zm12.025-68.378c0 9.751-7.908 17.652-17.656 17.652h-68.847c-9.749 0-17.654-7.901-17.654-17.652v-35.305c0-9.75 7.905-17.654 17.654-17.654h68.847c9.747 0 17.656 7.904 17.656 17.654z"
     fill="#f37021"
     id="path1"
     style="fill:#005500" />
  <path
     d="m220.441 126.855c5.851 0 10.593-4.741 10.593-10.591v-14.125c0-5.848-4.741-10.591-10.593-10.591-5.851 0-10.593 4.742-10.593 10.591v14.125c.001 5.85 4.742 10.591 10.593 10.591z"
     fill="#f37021"
     id="path2"
     style="fill:#005500" />
  <g
     fill="#939598"
     id="g9">
    <path
       d="m132.609 76.727v-12.865c-46.923 0-84.963 38.039-84.963 84.962h12.864c0-39.818 32.281-72.097 72.099-72.097z"
       id="path3" />
    <path
       d="m132.609 97.844v-9.097c-33.179 0-60.079 26.897-60.079 60.077h9.099c-.001-28.155 22.823-50.98 50.98-50.98z"
       id="path4" />
    <path
       d="m132.609 115.878v-5.88c-21.443 0-38.827 17.384-38.827 38.826h5.878c0-18.196 14.752-32.946 32.949-32.946z"
       id="path5" />
    <path
       d="m263.154 158.741h85.76v22.869h-85.76z"
       id="path6" />
    <path
       d="m263.154 203.702h85.76v22.868h-85.76z"
       id="path7" />
    <path
       d="m263.154 248.706h85.76v22.868h-85.76z"
       id="path8" />
    <path
       d="m263.154 293.667h85.76v22.871h-85.76z"
       id="path9" />
  </g>
</svg>
