<?xml version="1.0" encoding="UTF-8" standalone="no"?>
<svg
   enable-background="new 0 0 400 400"
   height="400"
   viewBox="0 0 400 400"
   width="400"
   version="1.1"
   id="svg4"
   sodipodi:docname="function13-large.svg"
   inkscape:version="1.4 (86a8ad7, 2024-10-11)"
   xmlns:inkscape="http://www.inkscape.org/namespaces/inkscape"
   xmlns:sodipodi="http://sodipodi.sourceforge.net/DTD/sodipodi-0.dtd"
   xmlns="http://www.w3.org/2000/svg"
   xmlns:svg="http://www.w3.org/2000/svg">
  <defs
     id="defs4" />
  <sodipodi:namedview
     id="namedview4"
     pagecolor="#ffffff"
     bordercolor="#000000"
     borderopacity="0.25"
     inkscape:showpageshadow="2"
     inkscape:pageopacity="0.0"
     inkscape:pagecheckerboard="0"
     inkscape:deskcolor="#d1d1d1"
     inkscape:zoom="1.755"
     inkscape:cx="199.7151"
     inkscape:cy="200"
     inkscape:window-width="1680"
     inkscape:window-height="946"
     inkscape:window-x="-8"
     inkscape:window-y="-8"
     inkscape:window-maximized="1"
     inkscape:current-layer="svg4" />
  <g
     fill="#f37021"
     id="g3"
     style="fill:#005500">
    <path
       d="m107.124 288.941 59.869-45.294c-3.422-1.657-7.252-2.612-11.31-2.612h-96.731c-5.528 0-10.647 1.739-14.864 4.682z"
       id="path1"
       style="fill:#005500" />
    <path
       d="m107.32 306.041-72.012-49.798c-1.506 3.295-2.371 6.947-2.371 10.81v60.508c0 14.37 11.649 26.017 26.015 26.017h96.731c14.37 0 26.02-11.646 26.02-26.017v-60.508c0-5.266-1.576-10.159-4.265-14.255z"
       id="path2"
       style="fill:#005500" />
    <path
       d="m221.154 44.15c-77.868 0-140.989 63.124-140.989 140.992 0 12.866 1.756 25.316 4.986 37.159h20.651c-3.766-11.712-5.825-24.192-5.825-37.159 0-66.927 54.251-121.179 121.176-121.179s121.181 54.251 121.181 121.179c0 66.924-54.256 121.178-121.181 121.178-7.225 0-14.291-.669-21.171-1.881v20.108c6.907 1.039 13.978 1.585 21.171 1.585 77.868 0 140.994-63.123 140.994-140.991.001-77.868-63.125-140.991-140.993-140.991z"
       id="path3"
       style="fill:#005500" />
  </g>
  <path
     d="m311.233 84.363-112.876 99.853-39.22-43.96 25.351 112.542z"
     fill="#939598"
     id="path4" />
</svg>
