<?xml version="1.0" encoding="UTF-8" standalone="no"?>
<svg
   enable-background="new 0 0 400 400"
   height="400"
   viewBox="0 0 400 400"
   width="400"
   version="1.1"
   id="svg8"
   sodipodi:docname="function10-large.svg"
   inkscape:version="1.4 (86a8ad7, 2024-10-11)"
   xmlns:inkscape="http://www.inkscape.org/namespaces/inkscape"
   xmlns:sodipodi="http://sodipodi.sourceforge.net/DTD/sodipodi-0.dtd"
   xmlns="http://www.w3.org/2000/svg"
   xmlns:svg="http://www.w3.org/2000/svg">
  <defs
     id="defs8" />
  <sodipodi:namedview
     id="namedview8"
     pagecolor="#ffffff"
     bordercolor="#000000"
     borderopacity="0.25"
     inkscape:showpageshadow="2"
     inkscape:pageopacity="0.0"
     inkscape:pagecheckerboard="0"
     inkscape:deskcolor="#d1d1d1"
     inkscape:zoom="1.755"
     inkscape:cx="199.7151"
     inkscape:cy="200"
     inkscape:window-width="1680"
     inkscape:window-height="946"
     inkscape:window-x="-8"
     inkscape:window-y="-8"
     inkscape:window-maximized="1"
     inkscape:current-layer="svg8" />
  <path
     d="m208.576 163.563 129.38-97.882c-7.395-3.582-15.672-5.646-24.44-5.646h-209.042c-11.946 0-23.009 3.759-32.122 10.117z"
     fill="#f37021"
     id="path1"
     style="fill:#005500" />
  <g
     fill="#939598"
     id="g7">
    <path
       d="m113.349 233.346-26.14 40.257-28.629-17.2 31.463 39.127z"
       id="path2" />
    <path
       d="m90.042 209.024c-35.666 0-64.577 28.912-64.577 64.578s28.911 64.578 64.577 64.578 64.578-28.912 64.578-64.578-28.912-64.578-64.578-64.578zm0 120.081c-30.653 0-55.503-24.85-55.503-55.503 0-30.654 24.85-55.504 55.503-55.504s55.504 24.85 55.504 55.504-24.85 55.503-55.504 55.503z"
       id="path3" />
    <path
       d="m123.772 271.628h13.867v3.947h-13.867z"
       id="path4" />
    <path
       d="m43.74 271.628h13.868v3.947h-13.868z"
       id="path5" />
    <path
       d="m88.069 223.303h3.947v13.867h-3.947z"
       id="path6" />
    <path
       d="m88.069 308.31h3.947v13.868h-3.947z"
       id="path7" />
  </g>
  <path
     d="m360.528 85.454-151.528 115.062-155.621-107.616c-3.255 7.12-5.124 15.013-5.124 23.359v85.986c12.595-7.779 27.431-12.277 43.322-12.277 45.607 0 82.578 36.971 82.578 82.578 0 10.852-2.114 21.204-5.918 30.696h145.279c31.055 0 56.229-25.168 56.229-56.223v-130.759c0-11.379-3.405-21.954-9.217-30.806z"
     fill="#f37021"
     id="path8"
     style="fill:#005500" />
</svg>
