<?xml version="1.0" encoding="UTF-8" standalone="no"?>
<svg
   enable-background="new 0 0 400 400"
   height="400"
   viewBox="0 0 400 400"
   width="400"
   version="1.1"
   id="svg6"
   sodipodi:docname="function15-large.svg"
   inkscape:version="1.4 (86a8ad7, 2024-10-11)"
   xmlns:inkscape="http://www.inkscape.org/namespaces/inkscape"
   xmlns:sodipodi="http://sodipodi.sourceforge.net/DTD/sodipodi-0.dtd"
   xmlns="http://www.w3.org/2000/svg"
   xmlns:svg="http://www.w3.org/2000/svg">
  <defs
     id="defs6" />
  <sodipodi:namedview
     id="namedview6"
     pagecolor="#ffffff"
     bordercolor="#000000"
     borderopacity="0.25"
     inkscape:showpageshadow="2"
     inkscape:pageopacity="0.0"
     inkscape:pagecheckerboard="0"
     inkscape:deskcolor="#d1d1d1"
     inkscape:zoom="1.755"
     inkscape:cx="199.7151"
     inkscape:cy="200"
     inkscape:window-width="1680"
     inkscape:window-height="946"
     inkscape:window-x="-8"
     inkscape:window-y="-8"
     inkscape:window-maximized="1"
     inkscape:current-layer="svg6" />
  <path
     d="m117.593 261.548 53.408-40.406c-3.054-1.479-6.469-2.331-10.09-2.331h-86.291c-4.931 0-9.497 1.553-13.259 4.177z"
     fill="#d0d2d3"
     id="path1" />
  <path
     d="m117.768 276.802-64.24-44.424c-1.344 2.939-2.115 6.197-2.115 9.643v53.978c0 12.819 10.393 23.209 23.207 23.209h86.292c12.819 0 23.212-10.39 23.212-23.209v-53.978c0-4.697-1.406-9.063-3.805-12.716z"
     fill="#d0d2d3"
     id="path2" />
  <path
     d="m167.337 212.971 66.411-50.243c-3.797-1.839-8.046-2.898-12.546-2.898h-107.3c-6.131 0-11.81 1.93-16.488 5.193z"
     fill="#929497"
     id="path3" />
  <path
     d="m167.555 231.939-79.88-55.239c-1.671 3.654-2.63 7.706-2.63 11.989v67.12c0 15.94 12.923 28.858 28.857 28.858h107.301c15.94 0 28.862-12.918 28.862-28.858v-67.12c0-5.84-1.747-11.268-4.73-15.812z"
     fill="#929497"
     id="path4" />
  <g
     fill="#f26f21"
     id="g6"
     style="fill:#005500">
    <path
       d="m245.554 136.239 88.021-66.591c-5.032-2.438-10.662-3.841-16.627-3.841h-142.215c-8.126 0-15.652 2.558-21.853 6.883z"
       id="path5"
       style="fill:#005500" />
    <path
       d="m245.844 161.378-105.871-73.212c-2.214 4.844-3.486 10.213-3.486 15.891v88.958c0 21.127 17.127 38.25 38.246 38.25h142.214c21.127 0 38.253-17.122 38.253-38.25v-88.958c0-7.74-2.316-14.935-6.271-20.956z"
       id="path6"
       style="fill:#005500" />
  </g>
</svg>
