<?xml version="1.0" encoding="UTF-8" standalone="no"?>
<svg
   enable-background="new 0 0 400 400"
   height="400"
   viewBox="0 0 400 400"
   width="400"
   version="1.1"
   id="svg5"
   sodipodi:docname="function9-large.svg"
   inkscape:version="1.4 (86a8ad7, 2024-10-11)"
   xmlns:inkscape="http://www.inkscape.org/namespaces/inkscape"
   xmlns:sodipodi="http://sodipodi.sourceforge.net/DTD/sodipodi-0.dtd"
   xmlns="http://www.w3.org/2000/svg"
   xmlns:svg="http://www.w3.org/2000/svg">
  <defs
     id="defs5" />
  <sodipodi:namedview
     id="namedview5"
     pagecolor="#ffffff"
     bordercolor="#000000"
     borderopacity="0.25"
     inkscape:showpageshadow="2"
     inkscape:pageopacity="0.0"
     inkscape:pagecheckerboard="0"
     inkscape:deskcolor="#d1d1d1"
     inkscape:zoom="1.755"
     inkscape:cx="199.7151"
     inkscape:cy="200"
     inkscape:window-width="1680"
     inkscape:window-height="946"
     inkscape:window-x="-8"
     inkscape:window-y="-8"
     inkscape:window-maximized="1"
     inkscape:current-layer="svg5" />
  <path
     d="m126.907 274.691c12.543-5.75 21.275-18.386 21.275-33.094 0-20.109-16.303-36.415-36.418-36.415-20.116 0-36.419 16.306-36.419 36.415 0 14.708 8.732 27.344 21.276 33.094-26.196 4.419-45.556 20.045-45.556 38.642 0 22.027 27.177 39.884 60.699 39.884s60.697-17.856 60.697-39.884c-.001-18.601-19.358-34.223-45.554-38.642z"
     fill="#f37021"
     id="path1"
     style="fill:#005500" />
  <path
     d="m210.226 45.871c-78.194 0-141.586 63.392-141.586 141.583 0 5.924.405 11.747 1.112 17.478 5.32-6.941 12.296-12.529 20.36-16.162-.004-.437-.033-.874-.033-1.316 0-66.359 53.788-120.144 120.147-120.144 66.353 0 120.144 53.785 120.144 120.144 0 66.356-53.791 120.147-120.144 120.147-6.793 0-13.443-.592-19.929-1.676 1.069 3.734 1.641 7.588 1.641 11.531 0 3.494-.446 6.903-1.26 10.212 6.393.878 12.911 1.374 19.548 1.374 78.192 0 141.585-63.392 141.585-141.588 0-78.191-63.393-141.583-141.585-141.583z"
     fill="#f37021"
     id="path2"
     style="fill:#005500" />
  <g
     fill="#939598"
     id="g5">
    <path
       d="m132.967 130.63h147.685v22.291h-147.685z"
       id="path3" />
    <path
       d="m171.151 174.496h109.5v22.291h-109.5z"
       id="path4" />
    <path
       d="m203.88 218.322h76.771v22.288h-76.771z"
       id="path5" />
  </g>
</svg>
