<?xml version="1.0" encoding="UTF-8" standalone="no"?>
<svg
   enable-background="new 0 0 400 400"
   height="400"
   viewBox="0 0 400 400"
   width="400"
   version="1.1"
   id="svg4"
   sodipodi:docname="function7-large.svg"
   inkscape:version="1.4 (86a8ad7, 2024-10-11)"
   xmlns:inkscape="http://www.inkscape.org/namespaces/inkscape"
   xmlns:sodipodi="http://sodipodi.sourceforge.net/DTD/sodipodi-0.dtd"
   xmlns="http://www.w3.org/2000/svg"
   xmlns:svg="http://www.w3.org/2000/svg">
  <defs
     id="defs4" />
  <sodipodi:namedview
     id="namedview4"
     pagecolor="#ffffff"
     bordercolor="#000000"
     borderopacity="0.25"
     inkscape:showpageshadow="2"
     inkscape:pageopacity="0.0"
     inkscape:pagecheckerboard="0"
     inkscape:deskcolor="#d1d1d1"
     inkscape:zoom="1.755"
     inkscape:cx="199.7151"
     inkscape:cy="200"
     inkscape:window-width="1680"
     inkscape:window-height="946"
     inkscape:window-x="-8"
     inkscape:window-y="-8"
     inkscape:window-maximized="1"
     inkscape:current-layer="svg4" />
  <g
     fill="#f37021"
     id="g3"
     style="fill:#005500">
    <path
       d="m109.752 284.5 58.965-44.611c-3.37-1.633-7.142-2.573-11.139-2.573h-95.271c-5.444 0-10.485 1.714-14.639 4.611z"
       id="path1"
       style="fill:#005500" />
    <path
       d="m109.945 301.341-70.924-49.046c-1.484 3.244-2.335 6.842-2.335 10.645v59.596c0 14.152 11.473 25.624 25.621 25.624h95.271c14.154 0 25.627-11.472 25.627-25.624v-59.596c0-5.186-1.552-10.005-4.201-14.038z"
       id="path2"
       style="fill:#005500" />
    <path
       d="m222.061 43.403c-76.692 0-138.86 62.171-138.86 138.863 0 12.672 1.729 24.934 4.911 36.599h20.339c-3.709-11.536-5.736-23.827-5.736-36.599 0-65.917 53.433-119.349 119.346-119.349 65.914 0 119.352 53.432 119.352 119.349 0 65.914-53.438 119.348-119.352 119.348-7.115 0-14.075-.657-20.852-1.851v19.804c6.802 1.023 13.768 1.562 20.852 1.562 76.692 0 138.865-62.17 138.865-138.862s-62.173-138.864-138.865-138.864z"
       id="path3"
       style="fill:#005500" />
  </g>
  <path
     d="m290.958 177.891c-.029-10.239-.739-20.014-2.299-29.097h-110.467c3.033-25.157 14.488-39.722 44.093-39.722 22.411 0 33.746 7.604 39.236 21.297l22.352-.051c-9.025-24.77-27.68-40.934-61.588-40.934-50.195 0-68.517 38.887-68.671 88.506-.247 1.698-.415 3.422-.415 5.187v39.594c22.205 0 40.774 15.372 45.774 36.04h56.387c19.891 0 36.014-16.123 36.014-36.015v-39.62c-.001-1.763-.169-3.487-.416-5.185zm-58.9 22.206v19.428c0 5.305-4.295 9.602-9.6 9.602-5.299 0-9.596-4.297-9.596-9.602v-19.207c-4.772-3.099-7.941-8.457-7.941-14.569 0-9.587 7.776-17.361 17.364-17.361 9.59 0 17.361 7.774 17.361 17.361 0 5.965-3.006 11.224-7.588 14.348z"
     fill="#939598"
     id="path4" />
</svg>
