<?xml version="1.0" encoding="UTF-8" standalone="no"?>
<svg
   enable-background="new 0 0 400 400"
   height="400"
   viewBox="0 0 400 400"
   width="400"
   version="1.1"
   id="svg7"
   sodipodi:docname="function16-large.svg"
   inkscape:version="1.4 (86a8ad7, 2024-10-11)"
   xmlns:inkscape="http://www.inkscape.org/namespaces/inkscape"
   xmlns:sodipodi="http://sodipodi.sourceforge.net/DTD/sodipodi-0.dtd"
   xmlns="http://www.w3.org/2000/svg"
   xmlns:svg="http://www.w3.org/2000/svg">
  <defs
     id="defs7" />
  <sodipodi:namedview
     id="namedview7"
     pagecolor="#ffffff"
     bordercolor="#000000"
     borderopacity="0.25"
     inkscape:showpageshadow="2"
     inkscape:pageopacity="0.0"
     inkscape:pagecheckerboard="0"
     inkscape:deskcolor="#d1d1d1"
     inkscape:zoom="1.755"
     inkscape:cx="199.7151"
     inkscape:cy="200"
     inkscape:window-width="1680"
     inkscape:window-height="946"
     inkscape:window-x="-8"
     inkscape:window-y="-8"
     inkscape:window-maximized="1"
     inkscape:current-layer="svg7" />
  <path
     d="m123.94 125.666c-1.221.986-2.665 2.136-4.331 3.451-1.667 1.313-3.369 2.57-5.105 3.767-1.738 1.197-3.428 2.218-5.07 3.063-1.644.845-3.028 1.268-4.155 1.268-4.225 0-8.192-.528-11.9-1.584-3.709-1.056-6.963-2.594-9.763-4.612-2.8-2.019-5.006-4.448-6.619-7.288-1.613-2.841-2.419-6.068-2.419-9.682 0-4.366.786-8.497 2.359-12.394 1.572-3.896 3.908-7.769 7.007-11.619-1.409-.986-2.641-2.113-3.697-3.38s-1.937-2.593-2.641-3.979c-.704-1.384-1.244-2.757-1.62-4.119-.376-1.361-.563-2.605-.563-3.732 0-1.831.451-3.837 1.354-6.021.902-2.183 2.1-4.213 3.591-6.091 1.491-1.877 3.188-3.438 5.089-4.683 1.901-1.243 3.861-1.866 5.88-1.866 1.643 0 3.31.271 5 .81 1.69.54 3.333 1.268 4.929 2.183s3.074 1.983 4.437 3.204c1.361 1.222 2.535 2.512 3.521 3.873v3.239c-1.69-.563-3.228-1.009-4.612-1.338-1.385-.328-2.7-.586-3.943-.774-1.244-.187-2.429-.317-3.556-.388-1.127-.07-2.253-.105-3.38-.105-.563 0-1.408.271-2.535.81-1.127.54-2.266 1.186-3.416 1.936-1.151.752-2.183 1.549-3.098 2.395-.916.845-1.444 1.549-1.584 2.112 1.736 2.441 3.778 4.39 6.126 5.845 2.347 1.456 5 2.183 7.957 2.183 3.239-.845 6.079-1.572 8.521-2.183 2.44-.609 4.565-1.15 6.373-1.62 1.807-.469 3.356-.868 4.647-1.197 1.291-.328 2.405-.634 3.345-.915l-6.83 13.379c-2.301.376-4.672.94-7.112 1.69-2.441.752-4.848 1.644-7.218 2.676-2.371 1.033-4.625 2.183-6.76 3.45-2.137 1.268-4.014 2.595-5.633 3.979-1.62 1.385-2.899 2.829-3.837 4.331-.94 1.502-1.409 2.981-1.409 4.437 0 1.924.423 3.637 1.268 5.141.845 1.501 1.983 2.828 3.416 3.979 1.431 1.149 3.086 2.124 4.964 2.922 1.877.797 3.849 1.455 5.915 1.972 2.065.516 4.143.891 6.232 1.126 2.088.234 4.072.352 5.95.352h14.925z"
     fill="#929497"
     id="path1" />
  <path
     d="m210.02 128.215-4.905-16.104h-24.665l-4.905 16.104h-15.455l23.877-67.931h17.538l23.97 67.931zm-8.329-28.134c-4.536-14.591-7.088-22.843-7.659-24.756s-.979-3.424-1.226-4.535c-1.018 3.949-3.933 13.713-8.746 29.292h17.631z"
     fill="#929497"
     id="path2" />
  <path
     d="m261.87 81.495c-2.818 4.673-5.934 8.827-9.049 12.387-.52-1.187-1.78-3.486-2.597-4.673 7.121-7.714 14.241-20.546 18.544-33.378l5.934 2.003c-.297.519-.816.742-1.706.667-1.929 5.192-4.228 10.384-6.824 15.354l2.003.519c-.148.445-.52.816-1.483.89v49.177h-4.821v-42.946zm9.94-12.164h48.954v4.228h-48.954zm5.488 54.888v-23.81h38.348v23.587h-5.044v-3.486h-28.482v3.708h-4.822zm37.68-44.504v4.154h-36.938v-4.154zm-36.938 14.538v-4.154h36.863v4.154zm35.603-35.306v4.153h-34.787v-4.153zm-3.041 45.616h-28.482v11.793h28.482z"
     fill="#929497"
     id="path3" />
  <g
     fill="#f26f21"
     id="g7"
     style="fill:#005500">
    <path
       d="m199.278 235.954 94.157-71.235c-5.38-2.607-11.404-4.108-17.787-4.108h-152.13c-8.693 0-16.744 2.736-23.376 7.362z"
       id="path4"
       style="fill:#005500" />
    <path
       d="m86.334 184.529c-2.37 5.181-3.729 10.925-3.729 16.998v95.163c0 10.659 4.078 20.363 10.755 27.645l89.235-73.239z"
       id="path5"
       style="fill:#005500" />
    <path
       d="m316.57 296.69v-95.163c0-8.28-2.478-15.976-6.708-22.417l-86.351 65.57-6.227 5.11 94.688 65.735c2.932-5.637 4.598-12.04 4.598-18.835z"
       id="path6"
       style="fill:#005500" />
    <path
       d="m112.227 336.017c3.588 1.028 7.373 1.591 11.291 1.591h152.13c8.113 0 15.668-2.37 22.028-6.441l-97.266-67.525z"
       id="path7"
       style="fill:#005500" />
  </g>
</svg>
