<?xml version="1.0" encoding="utf-8"?>
<!-- Generator: Adobe Illustrator 16.0.0, SVG Export Plug-In . SVG Version: 6.00 Build 0)  -->
<!DOCTYPE svg PUBLIC "-//W3C//DTD SVG 1.1//EN" "http://www.w3.org/Graphics/SVG/1.1/DTD/svg11.dtd">
<svg version="1.1" id="Layer_1" xmlns="http://www.w3.org/2000/svg" xmlns:xlink="http://www.w3.org/1999/xlink" x="0px" y="0px"
	 width="256px" height="175px" viewBox="0 0 256 175" enable-background="new 0 0 256 175" xml:space="preserve">
<g>
	<defs>
		<path id="SVGID_1_" d="M49.521,128.011c1.449,4.114,3.133,7.685,5.241,11.261c-6.78-0.061-13.102-1.007-18.348-2.75
			c-1.226-2.777-2.365-5.58-3.4-8.396c2.39,0.054,4.781,0.087,7.166,0.087C43.309,128.212,46.427,128.156,49.521,128.011
			 M53.156,127.801c5.65-0.392,11.188-1.113,16.515-2.325c1.249,4.546,2.677,8.401,4.22,11.705
			c-5.802,1.325-11.677,2.003-17.286,2.085C55.099,135.508,54.014,131.831,53.156,127.801 M30.867,121.777
			c-1.344-4.372-2.413-8.758-3.14-13.119c5.673,0.62,11.473,0.97,17.214,0.956c1.047,5.657,2.099,10.33,3.296,14.404
			C41.844,123.652,35.862,122.837,30.867,121.777 M52.461,124.192c-0.744-4.276-1.315-9.044-1.911-14.714
			c5.396-0.255,10.685-0.873,15.71-1.942c0.743,6.042,1.719,11.307,2.876,15.904c-4.476,0.549-9.051,0.791-13.544,0.791
			C54.543,124.231,53.499,124.217,52.461,124.192 M10.099,57.755c-7.014,16.729,3.237,48.025,5.936,56.119
			c2.699,8.095,12.95,29.679,21.583,38.312c8.635,8.634,35.884,3.229,44.518-2.847l0.086-1.13c-25.25,8.4-36.66,6.986-42.265-4.171
			c-0.187-0.372-0.368-0.744-0.551-1.116c6.265,0.177,11.979,0.23,17.498-0.223c1.279,1.943,2.694,3.938,4.278,6.069
			c-1.193-2.151-2.23-4.187-3.141-6.167c5.604-0.537,11.038-1.638,16.687-3.704c0.967,1.901,1.973,3.607,3.001,5.141
			c-0.693-1.82-1.334-3.671-1.93-5.539c2.416-0.932,4.878-2.051,7.412-3.375l0.054-0.708c-2.617,0.954-5.288,1.77-7.983,2.436
			c-1.207-3.987-2.184-8.036-2.915-12.039c4.145-1.092,8.144-2.516,11.952-4.346l0.03-0.39c-3.853,1.324-8.001,2.292-12.287,2.956
			c-0.957-5.804-1.375-11.463-1.187-16.629c5.479-1.538,10.554-3.69,15.005-6.582l0.096-1.28c-1.532,1.038-4.232,2.472-8.999,4.305
			c-12.737,4.901-30.038,3.904-38.999,2.584c-13.309-1.96-13.669-0.355-18.166-28.869c-4.533-28.738,13.649-30.419,37.413-31.897
			c19.25-1.199,26.096,4.227,31.562,16.682l0.095-1.253c-4.318-18.707-29.139-20.685-41.01-20.685S17.114,41.027,10.099,57.755"/>
	</defs>
	<linearGradient id="SVGID_2_" gradientUnits="userSpaceOnUse" x1="11.04" y1="98.0444" x2="99.0685" y2="98.0444">
		<stop  offset="0" style="stop-color:#F58220"/>
		<stop  offset="0.3867" style="stop-color:#EF9221"/>
		<stop  offset="0.9015" style="stop-color:#FFC20E"/>
	</linearGradient>
	<use xlink:href="#SVGID_1_"  overflow="visible" fill="url(#SVGID_2_)"/>
	<clipPath id="SVGID_3_">
		<use xlink:href="#SVGID_1_"  overflow="visible"/>
	</clipPath>
	
		<linearGradient id="SVGID_4_" gradientUnits="userSpaceOnUse" x1="-168.543" y1="513.9556" x2="-167.9135" y2="513.9556" gradientTransform="matrix(0 -209.142 -209.142 0 107535.7266 -35093.457)">
		<stop  offset="0" style="stop-color:#F58220"/>
		<stop  offset="0.3867" style="stop-color:#EF9221"/>
		<stop  offset="0.9015" style="stop-color:#FFC20E"/>
	</linearGradient>
	<rect x="3.084" y="39.408" clip-path="url(#SVGID_3_)" fill="url(#SVGID_4_)" width="85.797" height="121.411"/>
</g>
<g>
	<defs>
		<path id="SVGID_5_" d="M62.98,29.516v9.041c4.833,0.331,8.853,1.514,12.411,3.216V30.235c-0.664-3.985-3.359-5.518-6.068-5.518
			C66.162,24.718,62.98,26.804,62.98,29.516"/>
	</defs>
	<linearGradient id="SVGID_6_" gradientUnits="userSpaceOnUse" x1="-20.1006" y1="33.2451" x2="75.8126" y2="33.2451">
		<stop  offset="0" style="stop-color:#F58220"/>
		<stop  offset="0.3867" style="stop-color:#EF9221"/>
		<stop  offset="0.9015" style="stop-color:#FFC20E"/>
	</linearGradient>
	<use xlink:href="#SVGID_5_"  overflow="visible" fill="url(#SVGID_6_)"/>
	<clipPath id="SVGID_7_">
		<use xlink:href="#SVGID_5_"  overflow="visible"/>
	</clipPath>
	
		<linearGradient id="SVGID_8_" gradientUnits="userSpaceOnUse" x1="-168.5439" y1="514.0044" x2="-167.9138" y2="514.0044" gradientTransform="matrix(0 -209.1429 -209.1429 0 107569.5703 -35093.707)">
		<stop  offset="0" style="stop-color:#F58220"/>
		<stop  offset="0.3867" style="stop-color:#EF9221"/>
		<stop  offset="0.9015" style="stop-color:#FFC20E"/>
	</linearGradient>
	<rect x="62.98" y="24.718" clip-path="url(#SVGID_7_)" fill="url(#SVGID_8_)" width="12.411" height="17.055"/>
</g>
<g>
	<defs>
		<path id="SVGID_9_" d="M95.999,60.939c-2.705,0.452-4.979,1.155-6.819,2.11c-1.842,0.954-3.223,2.167-4.143,3.639
			c-0.922,1.473-1.381,3.222-1.381,5.246c0,1.202,0.209,2.378,0.629,3.53c0.419,1.151,1.072,2.114,1.96,2.888
			c1.102,0.97,2.754,1.835,4.958,2.592s5.019,1.551,8.447,2.382c3.428,0.831,5.998,1.481,7.707,1.949
			c1.71,0.47,2.804,0.976,3.28,1.519c0.428,0.51,0.642,1.069,0.642,1.678c0,2.485-2.205,3.727-6.61,3.727
			c-1.908,0-3.371-0.485-4.39-1.457c-0.888-0.938-1.357-2.436-1.406-4.494H83.21c0.099,2.102,0.354,3.846,0.765,5.233
			c0.41,1.388,1.286,2.652,2.626,3.793c1.339,1.142,3.436,2.048,6.289,2.723c2.853,0.674,6.647,1.009,11.382,1.009
			c5.393,0,9.795-0.48,13.208-1.442c3.412-0.963,5.895-2.33,7.449-4.106c1.554-1.776,2.33-3.913,2.33-6.413
			c0-2.795-0.961-5.089-2.886-6.881c-1.069-0.954-2.712-1.826-4.933-2.614c-2.219-0.791-5.125-1.616-8.718-2.48
			c-3.593-0.862-6.109-1.492-7.547-1.886c-1.439-0.395-2.405-0.831-2.898-1.308c-0.444-0.395-0.667-0.945-0.667-1.652
			c0-0.97,0.428-1.735,1.282-2.293c0.855-0.559,2.08-0.839,3.675-0.839c2.056,0,3.551,0.337,4.49,1.011
			c1.15,0.773,1.775,2.129,1.875,4.07h15.044c-0.05-1.99-0.424-3.712-1.122-5.168c-0.699-1.456-1.817-2.684-3.354-3.687
			s-3.625-1.764-6.264-2.282c-2.639-0.518-5.858-0.777-9.656-0.777C101.896,60.259,98.703,60.486,95.999,60.939"/>
	</defs>
	<linearGradient id="SVGID_10_" gradientUnits="userSpaceOnUse" x1="18.6343" y1="79.6328" x2="168.2412" y2="79.6328">
		<stop  offset="0" style="stop-color:#F58220"/>
		<stop  offset="0.3867" style="stop-color:#EF9221"/>
		<stop  offset="0.9015" style="stop-color:#FFC20E"/>
	</linearGradient>
	<use xlink:href="#SVGID_9_"  overflow="visible" fill="url(#SVGID_10_)"/>
	<clipPath id="SVGID_11_">
		<use xlink:href="#SVGID_9_"  overflow="visible"/>
	</clipPath>
	
		<linearGradient id="SVGID_12_" gradientUnits="userSpaceOnUse" x1="-168.543" y1="514.105" x2="-167.9144" y2="514.105" gradientTransform="matrix(0 -209.1399 -209.1399 0 107625.1797 -35093.332)">
		<stop  offset="0" style="stop-color:#F58220"/>
		<stop  offset="0.3867" style="stop-color:#EF9221"/>
		<stop  offset="0.9015" style="stop-color:#FFC20E"/>
	</linearGradient>
	<rect x="83.21" y="60.259" clip-path="url(#SVGID_11_)" fill="url(#SVGID_12_)" width="44.049" height="38.747"/>
</g>
<g>
	<defs>
		<polygon id="SVGID_13_" points="172.594,61.222 165.218,85.91 165.121,85.91 157.499,61.222 134.216,61.222 134.216,98.044 
			147.238,98.044 147.238,70.372 147.385,70.372 156.783,98.044 171.631,98.044 181.645,70.372 181.743,70.372 181.743,98.044 
			195.999,98.044 195.999,61.222 		"/>
	</defs>
	<linearGradient id="SVGID_14_" gradientUnits="userSpaceOnUse" x1="37.4971" y1="79.6333" x2="258.3207" y2="79.6333">
		<stop  offset="0" style="stop-color:#F58220"/>
		<stop  offset="0.3867" style="stop-color:#EF9221"/>
		<stop  offset="0.9015" style="stop-color:#FFC20E"/>
	</linearGradient>
	<use xlink:href="#SVGID_13_"  overflow="visible" fill="url(#SVGID_14_)"/>
	<clipPath id="SVGID_15_">
		<use xlink:href="#SVGID_13_"  overflow="visible"/>
	</clipPath>
	
		<linearGradient id="SVGID_16_" gradientUnits="userSpaceOnUse" x1="-168.5415" y1="514.3228" x2="-167.9132" y2="514.3228" gradientTransform="matrix(0 -209.1418 -209.1418 0 107731.3594 -35093.582)">
		<stop  offset="0" style="stop-color:#F58220"/>
		<stop  offset="0.3867" style="stop-color:#EF9221"/>
		<stop  offset="0.9015" style="stop-color:#FFC20E"/>
	</linearGradient>
	<rect x="134.216" y="61.222" clip-path="url(#SVGID_15_)" fill="url(#SVGID_16_)" width="61.783" height="36.822"/>
</g>
<g>
	<defs>
		<path id="SVGID_17_" d="M215.742,60.939c-2.704,0.452-4.979,1.155-6.82,2.11c-1.841,0.954-3.222,2.167-4.142,3.639
			c-0.922,1.473-1.382,3.222-1.382,5.246c0,1.202,0.21,2.378,0.629,3.53c0.42,1.151,1.072,2.114,1.96,2.888
			c1.102,0.97,2.754,1.835,4.957,2.592s5.021,1.551,8.45,2.382c3.427,0.831,5.995,1.481,7.706,1.949
			c1.71,0.47,2.803,0.976,3.28,1.519c0.428,0.51,0.641,1.069,0.641,1.678c0,2.485-2.202,3.727-6.609,3.727
			c-1.908,0-3.37-0.485-4.39-1.457c-0.889-0.938-1.357-2.436-1.407-4.494h-15.66c0.098,2.102,0.353,3.846,0.764,5.233
			c0.41,1.388,1.287,2.652,2.628,3.793c1.339,1.142,3.436,2.048,6.288,2.723c2.853,0.674,6.646,1.009,11.383,1.009
			c5.393,0,9.796-0.48,13.207-1.442c3.413-0.963,5.894-2.33,7.449-4.106c1.553-1.776,2.33-3.913,2.33-6.413
			c0-2.795-0.961-5.089-2.886-6.881c-1.068-0.954-2.712-1.826-4.933-2.614c-2.22-0.791-5.125-1.616-8.719-2.48
			c-3.592-0.862-6.108-1.492-7.547-1.886c-1.439-0.395-2.405-0.831-2.897-1.308c-0.444-0.395-0.666-0.945-0.666-1.652
			c0-0.97,0.428-1.735,1.282-2.293c0.854-0.559,2.08-0.839,3.675-0.839c2.056,0,3.551,0.337,4.488,1.011
			c1.151,0.773,1.776,2.129,1.874,4.07h15.045c-0.049-1.99-0.422-3.712-1.121-5.168c-0.7-1.456-1.816-2.684-3.354-3.687
			s-3.626-1.764-6.265-2.282c-2.64-0.518-5.857-0.777-9.655-0.777C221.642,60.259,218.447,60.486,215.742,60.939"/>
	</defs>
	<linearGradient id="SVGID_18_" gradientUnits="userSpaceOnUse" x1="138.3799" y1="79.6328" x2="287.9851" y2="79.6328">
		<stop  offset="0" style="stop-color:#F58220"/>
		<stop  offset="0.3867" style="stop-color:#EF9221"/>
		<stop  offset="0.9015" style="stop-color:#FFC20E"/>
	</linearGradient>
	<use xlink:href="#SVGID_17_"  overflow="visible" fill="url(#SVGID_18_)"/>
	<clipPath id="SVGID_19_">
		<use xlink:href="#SVGID_17_"  overflow="visible"/>
	</clipPath>
	
		<linearGradient id="SVGID_20_" gradientUnits="userSpaceOnUse" x1="-168.543" y1="514.4419" x2="-167.9144" y2="514.4419" gradientTransform="matrix(0 -209.1399 -209.1399 0 107815.3047 -35093.332)">
		<stop  offset="0" style="stop-color:#F58220"/>
		<stop  offset="0.3867" style="stop-color:#EF9221"/>
		<stop  offset="0.9015" style="stop-color:#FFC20E"/>
	</linearGradient>
	<rect x="202.955" y="60.259" clip-path="url(#SVGID_19_)" fill="url(#SVGID_20_)" width="44.049" height="38.747"/>
</g>
<g>
	<defs>
		<path id="SVGID_21_" d="M171.8,38.488c1.103-1.404,2.572-2.106,4.407-2.106c1.509,0,2.86,0.592,4.06,1.778
			c1.2,1.185,1.908,2.819,2.128,4.901h-12.352C170.11,41.417,170.695,39.893,171.8,38.488 M169.682,37.019
			c-1.842,2.027-2.764,4.803-2.764,8.324c0,3.659,0.931,6.512,2.795,8.561c1.863,2.049,4.097,3.072,6.7,3.072
			c1.646,0,3.233-0.446,4.769-1.336s2.98-2.246,4.336-4.069l-2.444-1.727c-2.124,2.987-4.405,4.48-6.846,4.48
			c-0.972,0-1.979-0.339-3.021-1.017c-1.042-0.678-1.871-1.757-2.487-3.237c-0.466-1.123-0.733-2.563-0.801-4.316h15.599
			c-0.04-2.63-0.44-4.768-1.2-6.412c-0.761-1.644-1.902-2.949-3.423-3.916c-1.521-0.965-3.104-1.449-4.749-1.449
			C173.68,33.977,171.525,34.991,169.682,37.019"/>
	</defs>
	<linearGradient id="SVGID_22_" gradientUnits="userSpaceOnUse" x1="87.1162" y1="45.4761" x2="193.5184" y2="45.4761">
		<stop  offset="0" style="stop-color:#F58220"/>
		<stop  offset="0.3867" style="stop-color:#EF9221"/>
		<stop  offset="0.9015" style="stop-color:#FFC20E"/>
	</linearGradient>
	<use xlink:href="#SVGID_21_"  overflow="visible" fill="url(#SVGID_22_)"/>
	<clipPath id="SVGID_23_">
		<use xlink:href="#SVGID_21_"  overflow="visible"/>
	</clipPath>
	
		<linearGradient id="SVGID_24_" gradientUnits="userSpaceOnUse" x1="-168.543" y1="514.3032" x2="-167.9145" y2="514.3032" gradientTransform="matrix(0 -209.1453 -209.1453 0 107740.4844 -35094.332)">
		<stop  offset="0" style="stop-color:#F58220"/>
		<stop  offset="0.3867" style="stop-color:#EF9221"/>
		<stop  offset="0.9015" style="stop-color:#FFC20E"/>
	</linearGradient>
	<rect x="166.918" y="33.977" clip-path="url(#SVGID_23_)" fill="url(#SVGID_24_)" width="18.6" height="22.999"/>
</g>
<g>
	<defs>
		<rect id="SVGID_25_" x="191.891" y="25.365" width="3" height="31.159"/>
	</defs>
	<linearGradient id="SVGID_26_" gradientUnits="userSpaceOnUse" x1="182.3467" y1="40.9438" x2="195.0147" y2="40.9438">
		<stop  offset="0" style="stop-color:#F58220"/>
		<stop  offset="0.3867" style="stop-color:#EF9221"/>
		<stop  offset="0.9015" style="stop-color:#FFC20E"/>
	</linearGradient>
	<use xlink:href="#SVGID_25_"  overflow="visible" fill="url(#SVGID_26_)"/>
	<clipPath id="SVGID_27_">
		<use xlink:href="#SVGID_25_"  overflow="visible"/>
	</clipPath>
	
		<linearGradient id="SVGID_28_" gradientUnits="userSpaceOnUse" x1="-168.5425" y1="514.353" x2="-167.9136" y2="514.353" gradientTransform="matrix(0 -209.1417 -209.1417 0 107766.1172 -35093.707)">
		<stop  offset="0" style="stop-color:#F58220"/>
		<stop  offset="0.3867" style="stop-color:#EF9221"/>
		<stop  offset="0.9015" style="stop-color:#FFC20E"/>
	</linearGradient>
	<rect x="191.891" y="25.365" clip-path="url(#SVGID_27_)" fill="url(#SVGID_28_)" width="3" height="31.159"/>
</g>
<g>
	<defs>
		<path id="SVGID_29_" d="M203.707,56.523h3.002V34.429h-3.002V56.523z M203.707,29.25h3.002v-3.597h-3.002V29.25z"/>
	</defs>
	<linearGradient id="SVGID_30_" gradientUnits="userSpaceOnUse" x1="194.0508" y1="41.0879" x2="206.8591" y2="41.0879">
		<stop  offset="0" style="stop-color:#F58220"/>
		<stop  offset="0.3867" style="stop-color:#EF9221"/>
		<stop  offset="0.9015" style="stop-color:#FFC20E"/>
	</linearGradient>
	<use xlink:href="#SVGID_29_"  overflow="visible" fill="url(#SVGID_30_)"/>
	<clipPath id="SVGID_31_">
		<use xlink:href="#SVGID_29_"  overflow="visible"/>
	</clipPath>
	
		<linearGradient id="SVGID_32_" gradientUnits="userSpaceOnUse" x1="-168.5464" y1="514.3853" x2="-167.9151" y2="514.3853" gradientTransform="matrix(0 -209.1417 -209.1417 0 107784.6172 -35093.957)">
		<stop  offset="0" style="stop-color:#F58220"/>
		<stop  offset="0.3867" style="stop-color:#EF9221"/>
		<stop  offset="0.9015" style="stop-color:#FFC20E"/>
	</linearGradient>
	<rect x="203.707" y="25.652" clip-path="url(#SVGID_31_)" fill="url(#SVGID_32_)" width="3.002" height="30.871"/>
</g>
<g>
	<defs>
		<path id="SVGID_33_" d="M216.411,26.372v8.057h-3.865v2.734h3.865v14.263c0,2.001,0.448,3.44,1.346,4.317
			c0.896,0.876,2.401,1.315,4.51,1.315c0.7,0,1.563-0.062,2.591-0.185V54.18c-0.891,0.22-1.609,0.33-2.158,0.33
			c-1.014,0-1.822-0.319-2.425-0.956c-0.604-0.638-0.905-1.524-0.905-2.662V37.163h5.488v-2.734h-5.488v-8.057H216.411z"/>
	</defs>
	<linearGradient id="SVGID_34_" gradientUnits="userSpaceOnUse" x1="173.0361" y1="41.7153" x2="225.7851" y2="41.7153">
		<stop  offset="0" style="stop-color:#F58220"/>
		<stop  offset="0.3867" style="stop-color:#EF9221"/>
		<stop  offset="0.9015" style="stop-color:#FFC20E"/>
	</linearGradient>
	<use xlink:href="#SVGID_33_"  overflow="visible" fill="url(#SVGID_34_)"/>
	<clipPath id="SVGID_35_">
		<use xlink:href="#SVGID_33_"  overflow="visible"/>
	</clipPath>
	
		<linearGradient id="SVGID_36_" gradientUnits="userSpaceOnUse" x1="-168.5435" y1="514.4204" x2="-167.9158" y2="514.4204" gradientTransform="matrix(0 -209.1436 -209.1436 0 107806.6719 -35094.332)">
		<stop  offset="0" style="stop-color:#F58220"/>
		<stop  offset="0.3867" style="stop-color:#EF9221"/>
		<stop  offset="0.9015" style="stop-color:#FFC20E"/>
	</linearGradient>
	<rect x="212.546" y="26.372" clip-path="url(#SVGID_35_)" fill="url(#SVGID_36_)" width="12.312" height="30.687"/>
</g>
<g>
	<defs>
		<path id="SVGID_37_" d="M233.623,38.488c1.102-1.404,2.573-2.106,4.408-2.106c1.508,0,2.861,0.592,4.062,1.778
			c1.197,1.185,1.906,2.819,2.125,4.901h-12.353C231.935,41.417,232.521,39.893,233.623,38.488 M231.508,37.019
			c-1.844,2.027-2.767,4.803-2.767,8.324c0,3.659,0.932,6.512,2.796,8.561c1.863,2.049,4.097,3.072,6.7,3.072
			c1.645,0,3.233-0.446,4.768-1.336c1.536-0.89,2.981-2.246,4.338-4.069l-2.446-1.727c-2.123,2.987-4.404,4.48-6.844,4.48
			c-0.973,0-1.979-0.339-3.021-1.017c-1.042-0.678-1.869-1.757-2.487-3.237c-0.466-1.123-0.733-2.563-0.801-4.316h15.6
			c-0.041-2.63-0.441-4.768-1.202-6.412c-0.76-1.644-1.901-2.949-3.423-3.916c-1.521-0.965-3.103-1.449-4.747-1.449
			C235.505,33.977,233.35,34.991,231.508,37.019"/>
	</defs>
	<linearGradient id="SVGID_38_" gradientUnits="userSpaceOnUse" x1="148.9316" y1="45.4761" x2="255.345" y2="45.4761">
		<stop  offset="0" style="stop-color:#F58220"/>
		<stop  offset="0.3867" style="stop-color:#EF9221"/>
		<stop  offset="0.9015" style="stop-color:#FFC20E"/>
	</linearGradient>
	<use xlink:href="#SVGID_37_"  overflow="visible" fill="url(#SVGID_38_)"/>
	<clipPath id="SVGID_39_">
		<use xlink:href="#SVGID_37_"  overflow="visible"/>
	</clipPath>
	
		<linearGradient id="SVGID_40_" gradientUnits="userSpaceOnUse" x1="-168.543" y1="514.479" x2="-167.9145" y2="514.479" gradientTransform="matrix(0 -209.1453 -209.1453 0 107838.7344 -35094.332)">
		<stop  offset="0" style="stop-color:#F58220"/>
		<stop  offset="0.3867" style="stop-color:#EF9221"/>
		<stop  offset="0.9015" style="stop-color:#FFC20E"/>
	</linearGradient>
	<rect x="228.741" y="33.977" clip-path="url(#SVGID_39_)" fill="url(#SVGID_40_)" width="18.602" height="22.999"/>
</g>
</svg>
