<?xml version="1.0" encoding="utf-8"?>
<!-- Generator: Adobe Illustrator 16.0.0, SVG Export Plug-In . SVG Version: 6.00 Build 0)  -->
<!DOCTYPE svg PUBLIC "-//W3C//DTD SVG 1.1//EN" "http://www.w3.org/Graphics/SVG/1.1/DTD/svg11.dtd">
<svg version="1.1" id="Layer_1" xmlns="http://www.w3.org/2000/svg" xmlns:xlink="http://www.w3.org/1999/xlink" x="0px" y="0px"
	 width="400px" height="400px" viewBox="0 0 400 400" enable-background="new 0 0 400 400" xml:space="preserve">
<g>
	<path fill="#929497" d="M257.965,115.357l43.874-63.532c-3.885-0.516-7.928-0.216-11.888,1.094l-94.47,31.178
		c-5.403,1.784-9.842,5.134-13.008,9.362L257.965,115.357z"/>
	<path fill="#929497" d="M263.672,131.991l-86.379-25.423c-0.409,3.705-0.077,7.551,1.167,11.32l19.503,59.094
		c4.633,14.037,19.762,21.653,33.793,17.024l94.468-31.178c14.031-4.632,21.653-19.757,17.021-33.794l-19.504-59.091
		c-1.696-5.142-4.812-9.414-8.756-12.548L263.672,131.991z"/>
</g>
<polygon fill="#F26F21" points="308.446,190.223 276.203,327.091 122.334,327.091 76.682,123.475 54.877,128.363 104.446,349.437 
	293.797,349.437 334.223,181.843 "/>
</svg>
