<?xml version="1.0" encoding="utf-8"?>
<!-- Generator: Adobe Illustrator 16.0.0, SVG Export Plug-In . SVG Version: 6.00 Build 0)  -->
<!DOCTYPE svg PUBLIC "-//W3C//DTD SVG 1.1//EN" "http://www.w3.org/Graphics/SVG/1.1/DTD/svg11.dtd">
<svg version="1.1" id="Layer_1" xmlns="http://www.w3.org/2000/svg" xmlns:xlink="http://www.w3.org/1999/xlink" x="0px" y="0px"
	 width="400px" height="400px" viewBox="0 0 400 400" enable-background="new 0 0 400 400" xml:space="preserve">
<g>
	<path fill="#D0D2D3" d="M117.593,261.548l53.408-40.406c-3.054-1.479-6.469-2.331-10.09-2.331H74.62
		c-4.931,0-9.497,1.553-13.259,4.177L117.593,261.548z"/>
	<path fill="#D0D2D3" d="M117.768,276.802l-64.24-44.424c-1.344,2.939-2.115,6.197-2.115,9.643v53.978
		c0,12.819,10.393,23.209,23.207,23.209h86.292c12.819,0,23.212-10.39,23.212-23.209v-53.978c0-4.697-1.406-9.063-3.805-12.716
		L117.768,276.802z"/>
</g>
<g>
	<path fill="#929497" d="M167.337,212.971l66.411-50.243c-3.797-1.839-8.046-2.898-12.546-2.898H113.902
		c-6.131,0-11.81,1.93-16.488,5.193L167.337,212.971z"/>
	<path fill="#929497" d="M167.555,231.939L87.675,176.7c-1.671,3.654-2.63,7.706-2.63,11.989v67.12
		c0,15.94,12.923,28.858,28.857,28.858h107.301c15.94,0,28.862-12.918,28.862-28.858v-67.12c0-5.84-1.747-11.268-4.73-15.812
		L167.555,231.939z"/>
</g>
<g>
	<path fill="#F26F21" d="M245.554,136.239l88.021-66.591c-5.032-2.438-10.662-3.841-16.627-3.841H174.733
		c-8.126,0-15.652,2.558-21.853,6.883L245.554,136.239z"/>
	<path fill="#F26F21" d="M245.844,161.378L139.973,88.166c-2.214,4.844-3.486,10.213-3.486,15.891v88.958
		c0,21.127,17.127,38.25,38.246,38.25h142.214c21.127,0,38.253-17.122,38.253-38.25v-88.958c0-7.74-2.316-14.935-6.271-20.956
		L245.844,161.378z"/>
</g>
</svg>
