<?xml version="1.0" encoding="utf-8"?>
<!-- Generator: Adobe Illustrator 16.0.0, SVG Export Plug-In . SVG Version: 6.00 Build 0)  -->
<!DOCTYPE svg PUBLIC "-//W3C//DTD SVG 1.1//EN" "http://www.w3.org/Graphics/SVG/1.1/DTD/svg11.dtd">
<svg version="1.1" id="Layer_1" xmlns="http://www.w3.org/2000/svg" xmlns:xlink="http://www.w3.org/1999/xlink" x="0px" y="0px"
	 width="400px" height="400px" viewBox="0 0 400 400" enable-background="new 0 0 400 400" xml:space="preserve">
<g>
	<g>
		<path fill="#939598" d="M107.438,278.398c0-33.873,25.717-64.012,65.598-80.055c-12.623-15.135-19.941-34.459-19.941-54.829
			c0-35.128,21.264-65.358,51.579-78.578c-12.53-13.8-30.56-22.521-50.671-22.521c-37.82,0-68.481,30.659-68.481,68.485
			c0,27.649,16.418,51.415,40.006,62.228c-49.255,8.311-85.663,37.688-85.663,72.655c0,33.462,33.353,61.796,79.402,71.457
			C111.674,305.491,107.438,292.358,107.438,278.398z"/>
	</g>
	<path fill="#F37021" d="M275.834,210.513c23.555-10.797,39.945-34.523,39.945-62.125c0-37.761-30.607-68.372-68.368-68.372
		c-37.762,0-68.373,30.61-68.373,68.372c0,27.603,16.396,51.327,39.947,62.125c-49.182,8.298-85.53,37.626-85.53,72.533
		c0,34.477,35.468,63.493,83.727,72.201l20.027-93.5l-15.902-15.904l27.914-27.912l27.91,27.912l-16.097,16.098l0.7,0.011
		l19.412,92.641c46.463-9.453,80.214-37.907,80.214-71.546C361.361,248.139,325.012,218.811,275.834,210.513z"/>
</g>
</svg>
