<?xml version="1.0" encoding="utf-8"?>
<!-- Generator: Adobe Illustrator 16.0.0, SVG Export Plug-In . SVG Version: 6.00 Build 0)  -->
<!DOCTYPE svg PUBLIC "-//W3C//DTD SVG 1.1//EN" "http://www.w3.org/Graphics/SVG/1.1/DTD/svg11.dtd">
<svg version="1.1" id="Layer_1" xmlns="http://www.w3.org/2000/svg" xmlns:xlink="http://www.w3.org/1999/xlink" x="0px" y="0px"
	 width="400px" height="400px" viewBox="0 0 400 400" enable-background="new 0 0 400 400" xml:space="preserve">
<path fill="#F37021" d="M224.415,130.895h-90.035c-11.703,0-21.185,9.483-21.185,21.187v165.941
	c0,11.699,9.482,21.185,21.185,21.185h90.035c11.696,0,21.182-9.485,21.182-21.185V152.081
	C245.597,140.378,236.112,130.895,224.415,130.895z M144.424,323.452h-5.083c-6.641,0-12.022-5.384-12.022-12.025
	c0-6.641,5.381-12.021,12.022-12.021h5.083c6.641,0,12.021,5.381,12.021,12.021C156.445,318.068,151.064,323.452,144.424,323.452z
	 M144.424,294.107h-5.083c-6.641,0-12.022-5.383-12.022-12.021c0-6.641,5.381-12.021,12.022-12.021h5.083
	c6.641,0,12.021,5.382,12.021,12.021C156.445,288.725,151.064,294.107,144.424,294.107z M144.424,265.493h-5.083
	c-6.641,0-12.022-5.384-12.022-12.024c0-6.642,5.381-12.025,12.022-12.025h5.083c6.641,0,12.021,5.384,12.021,12.025
	C156.445,260.107,151.064,265.493,144.424,265.493z M181.938,323.452h-5.083c-6.641,0-12.022-5.384-12.022-12.025
	c0-6.641,5.381-12.021,12.022-12.021h5.083c6.641,0,12.023,5.381,12.023,12.021C193.961,318.068,188.579,323.452,181.938,323.452z
	 M181.938,294.107h-5.083c-6.641,0-12.022-5.383-12.022-12.021c0-6.641,5.381-12.021,12.022-12.021h5.083
	c6.641,0,12.023,5.382,12.023,12.021C193.961,288.725,188.579,294.107,181.938,294.107z M181.938,265.493h-5.083
	c-6.641,0-12.022-5.384-12.022-12.024c0-6.642,5.381-12.025,12.022-12.025h5.083c6.641,0,12.023,5.384,12.023,12.025
	C193.961,260.107,188.579,265.493,181.938,265.493z M219.45,323.452h-5.082c-6.64,0-12.021-5.384-12.021-12.025
	c0-6.641,5.382-12.021,12.021-12.021h5.082c6.641,0,12.024,5.381,12.024,12.021C231.475,318.068,226.091,323.452,219.45,323.452z
	 M219.45,294.107h-5.082c-6.64,0-12.021-5.383-12.021-12.021c0-6.641,5.382-12.021,12.021-12.021h5.082
	c6.641,0,12.024,5.382,12.024,12.021C231.475,288.725,226.091,294.107,219.45,294.107z M219.45,265.493h-5.082
	c-6.64,0-12.021-5.384-12.021-12.024c0-6.642,5.382-12.025,12.021-12.025h5.082c6.641,0,12.024,5.384,12.024,12.025
	C231.475,260.107,226.091,265.493,219.45,265.493z M231.475,197.115c0,9.751-7.908,17.652-17.656,17.652h-68.847
	c-9.749,0-17.654-7.901-17.654-17.652V161.81c0-9.75,7.905-17.654,17.654-17.654h68.847c9.747,0,17.656,7.904,17.656,17.654V197.115
	z"/>
<path fill="#F37021" d="M220.441,126.855c5.851,0,10.593-4.741,10.593-10.591v-14.125c0-5.848-4.741-10.591-10.593-10.591
	c-5.851,0-10.593,4.742-10.593,10.591v14.125C209.849,122.114,214.59,126.855,220.441,126.855z"/>
<g>
	<path fill="#939598" d="M132.609,76.727V63.862c-46.923,0-84.963,38.039-84.963,84.962H60.51
		C60.51,109.006,92.791,76.727,132.609,76.727z"/>
	<path fill="#939598" d="M132.609,97.844v-9.097c-33.179,0-60.079,26.897-60.079,60.077h9.099
		C81.628,120.669,104.452,97.844,132.609,97.844z"/>
	<path fill="#939598" d="M132.609,115.878v-5.88c-21.443,0-38.827,17.384-38.827,38.826h5.878
		C99.66,130.628,114.412,115.878,132.609,115.878z"/>
</g>
<rect x="263.154" y="158.741" fill="#939598" width="85.76" height="22.869"/>
<rect x="263.154" y="203.702" fill="#939598" width="85.76" height="22.868"/>
<rect x="263.154" y="248.706" fill="#939598" width="85.76" height="22.868"/>
<rect x="263.154" y="293.667" fill="#939598" width="85.76" height="22.871"/>
</svg>
