<?xml version="1.0" encoding="utf-8"?>
<!-- Generator: Adobe Illustrator 16.0.0, SVG Export Plug-In . SVG Version: 6.00 Build 0)  -->
<!DOCTYPE svg PUBLIC "-//W3C//DTD SVG 1.1//EN" "http://www.w3.org/Graphics/SVG/1.1/DTD/svg11.dtd">
<svg version="1.1" id="Layer_1" xmlns="http://www.w3.org/2000/svg" xmlns:xlink="http://www.w3.org/1999/xlink" x="0px" y="0px"
	 width="400px" height="400px" viewBox="0 0 400 400" enable-background="new 0 0 400 400" xml:space="preserve">
<g>
	<g>
		<polygon fill="#939598" points="268.595,207.389 308.448,207.389 308.448,234.754 355.787,181.883 308.448,129.017 
			308.448,156.382 268.595,156.382 		"/>
	</g>
	<g>
		<polygon fill="#939598" points="268.595,316.297 308.448,316.297 308.448,343.662 355.787,290.793 308.448,237.927 
			308.448,265.294 268.595,265.294 		"/>
	</g>
	<g>
		<path fill="#F37021" d="M230.112,128.788h-92.958c-12.08,0-21.873,9.792-21.873,21.875v171.333
			c0,12.082,9.792,21.874,21.873,21.874h92.958c12.079,0,21.875-9.792,21.875-21.874V150.663
			C251.986,138.58,242.191,128.788,230.112,128.788z M147.524,327.602h-5.249c-6.855,0-12.414-5.559-12.414-12.415
			c0-6.857,5.559-12.413,12.414-12.413h5.249c6.855,0,12.413,5.556,12.413,12.413C159.937,322.043,154.379,327.602,147.524,327.602z
			 M147.524,297.304h-5.249c-6.855,0-12.414-5.558-12.414-12.412c0-6.856,5.559-12.412,12.414-12.412h5.249
			c6.855,0,12.413,5.556,12.413,12.412C159.937,291.746,154.379,297.304,147.524,297.304z M147.524,267.76h-5.249
			c-6.855,0-12.414-5.559-12.414-12.413c0-6.858,5.559-12.415,12.414-12.415h5.249c6.855,0,12.413,5.557,12.413,12.415
			C159.937,262.201,154.379,267.76,147.524,267.76z M186.256,327.602h-5.248c-6.854,0-12.412-5.559-12.412-12.415
			c0-6.857,5.557-12.413,12.412-12.413h5.248c6.856,0,12.413,5.556,12.413,12.413C198.668,322.043,193.112,327.602,186.256,327.602z
			 M186.256,297.304h-5.248c-6.854,0-12.412-5.558-12.412-12.412c0-6.856,5.557-12.412,12.412-12.412h5.248
			c6.856,0,12.413,5.556,12.413,12.412C198.668,291.746,193.112,297.304,186.256,297.304z M186.256,267.76h-5.248
			c-6.854,0-12.412-5.559-12.412-12.413c0-6.858,5.557-12.415,12.412-12.415h5.248c6.856,0,12.413,5.557,12.413,12.415
			C198.668,262.201,193.112,267.76,186.256,267.76z M224.989,327.602h-5.249c-6.854,0-12.412-5.559-12.412-12.415
			c0-6.857,5.559-12.413,12.412-12.413h5.249c6.854,0,12.412,5.556,12.412,12.413C237.401,322.043,231.842,327.602,224.989,327.602z
			 M224.989,297.304h-5.249c-6.854,0-12.412-5.558-12.412-12.412c0-6.856,5.559-12.412,12.412-12.412h5.249
			c6.854,0,12.412,5.556,12.412,12.412C237.401,291.746,231.842,297.304,224.989,297.304z M224.989,267.76h-5.249
			c-6.854,0-12.412-5.559-12.412-12.413c0-6.858,5.559-12.415,12.412-12.415h5.249c6.854,0,12.412,5.557,12.412,12.415
			C237.401,262.201,231.842,267.76,224.989,267.76z M237.401,197.161c0,10.067-8.16,18.23-18.226,18.23h-71.086
			c-10.068,0-18.228-8.163-18.228-18.23v-36.453c0-10.068,8.16-18.228,18.228-18.228h71.086c10.065,0,18.226,8.16,18.226,18.228
			V197.161L237.401,197.161z"/>
		<path fill="#F37021" d="M226.009,124.618c6.04,0,10.936-4.896,10.936-10.934V99.099c0-6.04-4.896-10.933-10.936-10.933
			c-6.038,0-10.937,4.895-10.937,10.933v14.585C215.073,119.723,219.971,124.618,226.009,124.618z"/>
	</g>
	<g>
		<path fill="#939598" d="M135.324,72.861V59.579c-48.447,0-87.723,39.274-87.723,87.723h13.281
			C60.883,106.19,94.213,72.861,135.324,72.861z"/>
		<path fill="#939598" d="M135.324,94.665v-9.393c-34.257,0-62.029,27.772-62.029,62.03h9.392
			C82.687,118.23,106.253,94.665,135.324,94.665z"/>
		<path fill="#939598" d="M135.324,113.284v-6.071c-22.139,0-40.087,17.949-40.087,40.088h6.069
			C101.307,128.513,116.535,113.284,135.324,113.284z"/>
	</g>
</g>
</svg>
