<?xml version="1.0" encoding="utf-8"?>
<!-- Generator: Adobe Illustrator 16.0.0, SVG Export Plug-In . SVG Version: 6.00 Build 0)  -->
<!DOCTYPE svg PUBLIC "-//W3C//DTD SVG 1.1//EN" "http://www.w3.org/Graphics/SVG/1.1/DTD/svg11.dtd">
<svg version="1.1" id="Layer_1" xmlns="http://www.w3.org/2000/svg" xmlns:xlink="http://www.w3.org/1999/xlink" x="0px" y="0px"
	 width="400px" height="400px" viewBox="0 0 400 400" enable-background="new 0 0 400 400" xml:space="preserve">
<g display="none">
	<path display="inline" fill="#F26F21" d="M288.929,171.632c-5.184-2.511-10.983-3.957-17.128-3.957H125.306
		c-8.371,0-16.123,2.635-22.511,7.09l95.463,65.463L288.929,171.632z"/>
	<path display="inline" fill="#F26F21" d="M137.061,220.18l-61.983-42.863c-2.281,4.99-3.591,10.521-3.591,16.369v91.18
		l46.244-10.375L137.061,220.18z"/>
	<g display="inline">
		<path fill="#F26F21" d="M316.077,178.279l-105.921,80.43l-0.268,30.203l69.692,15.451l-7.647,26.54h11.198
			c21.763,0,39.404-17.638,39.404-39.4v-91.637C322.536,191.893,320.151,184.482,316.077,178.279z"/>
		<path fill="#F26F21" d="M193.407,301.272l0.269-30.202l-0.269,0.205l-47.075-32.554l-19.331,54.311l-46.244,10.375v0.457
			c0,21.763,17.643,39.4,39.397,39.4h135.297l7.647-26.54L193.407,301.272z"/>
	</g>
</g>
<g>
	<path fill="#929497" d="M123.94,125.666c-1.221,0.986-2.665,2.136-4.331,3.451c-1.667,1.313-3.369,2.57-5.105,3.767
		c-1.738,1.197-3.428,2.218-5.07,3.063c-1.644,0.845-3.028,1.268-4.155,1.268c-4.225,0-8.192-0.528-11.9-1.584
		c-3.709-1.056-6.963-2.594-9.763-4.612c-2.8-2.019-5.006-4.448-6.619-7.288c-1.613-2.841-2.419-6.068-2.419-9.682
		c0-4.366,0.786-8.497,2.359-12.394c1.572-3.896,3.908-7.769,7.007-11.619c-1.409-0.986-2.641-2.113-3.697-3.38
		s-1.937-2.593-2.641-3.979c-0.704-1.384-1.244-2.757-1.62-4.119c-0.376-1.361-0.563-2.605-0.563-3.732
		c0-1.831,0.451-3.837,1.354-6.021c0.902-2.183,2.1-4.213,3.591-6.091c1.491-1.877,3.188-3.438,5.089-4.683
		c1.901-1.243,3.861-1.866,5.88-1.866c1.643,0,3.31,0.271,5,0.81c1.69,0.54,3.333,1.268,4.929,2.183
		c1.596,0.915,3.074,1.983,4.437,3.204c1.361,1.222,2.535,2.512,3.521,3.873v3.239c-1.69-0.563-3.228-1.009-4.612-1.338
		c-1.385-0.328-2.7-0.586-3.943-0.774c-1.244-0.187-2.429-0.317-3.556-0.388c-1.127-0.07-2.253-0.105-3.38-0.105
		c-0.563,0-1.408,0.271-2.535,0.81c-1.127,0.54-2.266,1.186-3.416,1.936c-1.151,0.752-2.183,1.549-3.098,2.395
		c-0.916,0.845-1.444,1.549-1.584,2.112c1.736,2.441,3.778,4.39,6.126,5.845c2.347,1.456,5,2.183,7.957,2.183
		c3.239-0.845,6.079-1.572,8.521-2.183c2.44-0.609,4.565-1.15,6.373-1.62c1.807-0.469,3.356-0.868,4.647-1.197
		c1.291-0.328,2.405-0.634,3.345-0.915l-6.83,13.379c-2.301,0.376-4.672,0.94-7.112,1.69c-2.441,0.752-4.848,1.644-7.218,2.676
		c-2.371,1.033-4.625,2.183-6.76,3.45c-2.137,1.268-4.014,2.595-5.633,3.979c-1.62,1.385-2.899,2.829-3.837,4.331
		c-0.94,1.502-1.409,2.981-1.409,4.437c0,1.924,0.423,3.637,1.268,5.141c0.845,1.501,1.983,2.828,3.416,3.979
		c1.431,1.149,3.086,2.124,4.964,2.922c1.877,0.797,3.849,1.455,5.915,1.972c2.065,0.516,4.143,0.891,6.232,1.126
		c2.088,0.234,4.072,0.352,5.95,0.352H123.94z"/>
</g>
<g>
	<path fill="#929497" d="M210.02,128.215l-4.905-16.104H180.45l-4.905,16.104H160.09l23.877-67.931h17.538l23.97,67.931H210.02z
		 M201.691,100.081c-4.536-14.591-7.088-22.843-7.659-24.756c-0.571-1.913-0.979-3.424-1.226-4.535
		c-1.018,3.949-3.933,13.713-8.746,29.292H201.691z"/>
</g>
<g>
	<path fill="#929497" d="M261.87,81.495c-2.818,4.673-5.934,8.827-9.049,12.387c-0.52-1.187-1.78-3.486-2.597-4.673
		c7.121-7.714,14.241-20.546,18.544-33.378l5.934,2.003c-0.297,0.519-0.816,0.742-1.706,0.667
		c-1.929,5.192-4.228,10.384-6.824,15.354l2.003,0.519c-0.148,0.445-0.52,0.816-1.483,0.89v49.177h-4.821V81.495z M271.81,69.331
		h48.954v4.228H271.81V69.331z M277.298,124.219v-23.81h38.348v23.587h-5.044v-3.486h-28.482v3.708H277.298z M314.978,79.715v4.154
		H278.04v-4.154H314.978z M278.04,94.253v-4.154h36.863v4.154H278.04z M313.643,58.947V63.1h-34.787v-4.153H313.643z
		 M310.602,104.563h-28.482v11.793h28.482V104.563z"/>
</g>
<g>
	<path fill="#F26F21" d="M199.278,235.954l94.157-71.235c-5.38-2.607-11.404-4.108-17.787-4.108h-152.13
		c-8.693,0-16.744,2.736-23.376,7.362L199.278,235.954z"/>
	<g>
		<path fill="#F26F21" d="M86.334,184.529c-2.37,5.181-3.729,10.925-3.729,16.998v95.163c0,10.659,4.078,20.363,10.755,27.645
			l89.235-73.239L86.334,184.529z"/>
		<g>
			<path fill="#F26F21" d="M316.57,296.69v-95.163c0-8.28-2.478-15.976-6.708-22.417l-86.351,65.57l-6.227,5.11l94.688,65.735
				C314.904,309.888,316.57,303.485,316.57,296.69z"/>
			<path fill="#F26F21" d="M112.227,336.017c3.588,1.028,7.373,1.591,11.291,1.591h152.13c8.113,0,15.668-2.37,22.028-6.441
				l-97.266-67.525L112.227,336.017z"/>
		</g>
	</g>
</g>
</svg>
