<?xml version="1.0" encoding="utf-8"?>
<!-- Generator: Adobe Illustrator 16.0.0, SVG Export Plug-In . SVG Version: 6.00 Build 0)  -->
<!DOCTYPE svg PUBLIC "-//W3C//DTD SVG 1.1//EN" "http://www.w3.org/Graphics/SVG/1.1/DTD/svg11.dtd">
<svg version="1.1" id="Layer_1" xmlns="http://www.w3.org/2000/svg" xmlns:xlink="http://www.w3.org/1999/xlink" x="0px" y="0px"
	 width="400px" height="400px" viewBox="0 0 400 400" enable-background="new 0 0 400 400" xml:space="preserve">
<g>
	<path fill="#F37021" d="M208.576,163.563l129.38-97.882c-7.395-3.582-15.672-5.646-24.44-5.646H104.474
		c-11.946,0-23.009,3.759-32.122,10.117L208.576,163.563z"/>
	<g>
		<polygon fill="#939598" points="113.349,233.346 113.349,233.346 87.209,273.603 58.58,256.403 58.58,256.403 90.043,295.53 		"/>
		<path fill="#939598" d="M90.042,209.024c-35.666,0-64.577,28.912-64.577,64.578s28.911,64.578,64.577,64.578
			s64.578-28.912,64.578-64.578S125.708,209.024,90.042,209.024z M90.042,329.105c-30.653,0-55.503-24.85-55.503-55.503
			c0-30.654,24.85-55.504,55.503-55.504s55.504,24.85,55.504,55.504C145.546,304.256,120.696,329.105,90.042,329.105z"/>
		<rect x="123.772" y="271.628" fill="#939598" width="13.867" height="3.947"/>
		<rect x="43.74" y="271.628" fill="#939598" width="13.868" height="3.947"/>
		<rect x="88.069" y="223.303" fill="#939598" width="3.947" height="13.867"/>
		<rect x="88.069" y="308.31" fill="#939598" width="3.947" height="13.868"/>
	</g>
	<path fill="#F37021" d="M360.528,85.454L209,200.516L53.379,92.9c-3.255,7.12-5.124,15.013-5.124,23.359v85.986
		c12.595-7.779,27.431-12.277,43.322-12.277c45.607,0,82.578,36.971,82.578,82.578c0,10.852-2.114,21.204-5.918,30.696h145.279
		c31.055,0,56.229-25.168,56.229-56.223V116.26C369.745,104.881,366.34,94.306,360.528,85.454z"/>
</g>
</svg>
