<?xml version="1.0" encoding="utf-8"?>
<!-- Generator: Adobe Illustrator 16.0.0, SVG Export Plug-In . SVG Version: 6.00 Build 0)  -->
<!DOCTYPE svg PUBLIC "-//W3C//DTD SVG 1.1//EN" "http://www.w3.org/Graphics/SVG/1.1/DTD/svg11.dtd">
<svg version="1.1" id="Layer_1" xmlns="http://www.w3.org/2000/svg" xmlns:xlink="http://www.w3.org/1999/xlink" x="0px" y="0px"
	 width="400px" height="400px" viewBox="0 0 400 400" enable-background="new 0 0 400 400" xml:space="preserve">
<g>
	<g>
		<path fill="#F37021" d="M274.839,131.454h-96.025c-12.478,0-22.595,10.116-22.595,22.596v176.987
			c0,12.479,10.117,22.594,22.595,22.594h96.026c12.479,0,22.594-10.114,22.594-22.594V154.049
			C297.433,141.57,287.319,131.454,274.839,131.454z M189.525,336.826h-5.421c-7.081,0-12.821-5.745-12.821-12.824
			c0-7.08,5.74-12.82,12.821-12.82h5.421c7.081,0,12.824,5.738,12.824,12.82C202.349,331.082,196.606,336.826,189.525,336.826z
			 M189.525,305.53h-5.421c-7.081,0-12.821-5.743-12.821-12.823c0-7.082,5.74-12.823,12.821-12.823h5.421
			c7.081,0,12.824,5.739,12.824,12.823C202.349,299.787,196.606,305.53,189.525,305.53z M189.525,275.01h-5.421
			c-7.081,0-12.821-5.742-12.821-12.822c0-7.087,5.74-12.828,12.821-12.828h5.421c7.081,0,12.824,5.741,12.824,12.828
			C202.349,269.268,196.606,275.01,189.525,275.01z M229.538,336.826h-5.422c-7.082,0-12.822-5.745-12.822-12.824
			c0-7.08,5.739-12.82,12.822-12.82h5.422c7.079,0,12.821,5.738,12.821,12.82C242.36,331.082,236.617,336.826,229.538,336.826z
			 M229.538,305.53h-5.422c-7.082,0-12.822-5.743-12.822-12.823c0-7.082,5.739-12.823,12.822-12.823h5.422
			c7.079,0,12.821,5.739,12.821,12.823C242.36,299.787,236.617,305.53,229.538,305.53z M229.538,275.01h-5.422
			c-7.082,0-12.822-5.742-12.822-12.822c0-7.087,5.739-12.828,12.822-12.828h5.422c7.079,0,12.821,5.741,12.821,12.828
			C242.36,269.268,236.617,275.01,229.538,275.01z M269.547,336.826h-5.422c-7.08,0-12.823-5.745-12.823-12.824
			c0-7.08,5.742-12.82,12.823-12.82h5.422c7.078,0,12.821,5.738,12.821,12.82C282.368,331.082,276.626,336.826,269.547,336.826z
			 M269.547,305.53h-5.422c-7.08,0-12.823-5.743-12.823-12.823c0-7.082,5.742-12.823,12.823-12.823h5.422
			c7.078,0,12.821,5.739,12.821,12.823C282.368,299.787,276.626,305.53,269.547,305.53z M269.547,275.01h-5.422
			c-7.08,0-12.823-5.742-12.823-12.822c0-7.087,5.742-12.828,12.823-12.828h5.422c7.078,0,12.821,5.741,12.821,12.828
			C282.368,269.268,276.626,275.01,269.547,275.01z M282.368,202.083c0,10.398-8.427,18.83-18.826,18.83h-73.431
			c-10.4,0-18.829-8.432-18.829-18.83v-37.657c0-10.4,8.429-18.829,18.829-18.829h73.431c10.399,0,18.826,8.429,18.826,18.829
			V202.083L282.368,202.083z"/>
		<path fill="#F37021" d="M270.601,127.146c6.239,0,11.3-5.057,11.3-11.294v-15.065c0-6.24-5.061-11.297-11.3-11.297
			c-6.24,0-11.297,5.057-11.297,11.297v15.064C259.304,122.088,264.361,127.146,270.601,127.146z"/>
	</g>
	<g>
		<path fill="#939598" d="M219.278,82.938c6.237,0,11.299-5.059,11.299-11.297V56.577c0-6.239-5.062-11.296-11.299-11.296
			c-6.239,0-11.297,5.057-11.297,11.296v15.064C207.982,77.878,213.038,82.938,219.278,82.938z"/>
		<path fill="#939598" d="M225.872,88.584h-96.028c-12.479,0-22.593,10.116-22.593,22.597v176.983
			c0,12.483,10.114,22.598,22.593,22.598h12.095v-16.946c-0.46,0.052-0.909,0.14-1.383,0.14h-5.42
			c-7.082,0-12.822-5.742-12.822-12.824c0-7.08,5.74-12.822,12.822-12.822h5.42c0.474,0,0.922,0.092,1.383,0.144v-5.934
			c-0.46,0.054-0.909,0.139-1.383,0.139h-5.42c-7.082,0-12.822-5.736-12.822-12.817c0-7.085,5.74-12.825,12.822-12.825h5.42
			c0.474,0,0.922,0.089,1.383,0.14v-5.153c-0.46,0.05-0.909,0.14-1.383,0.14h-5.42c-7.082,0-12.822-5.742-12.822-12.823
			c0-7.083,5.74-12.828,12.822-12.828h5.42c0.474,0,0.922,0.088,1.383,0.142v-28.589h-0.797c-10.399,0-18.828-8.43-18.828-18.828
			v-37.656c0-10.401,8.429-18.83,18.828-18.83h73.432c9.872,0,17.954,7.602,18.747,17.274h15.146v-8.822
			C248.467,98.7,238.349,88.584,225.872,88.584z"/>
	</g>
</g>
</svg>
