<?xml version="1.0" encoding="utf-8"?>
<!-- Generator: Adobe Illustrator 16.0.0, SVG Export Plug-In . SVG Version: 6.00 Build 0)  -->
<!DOCTYPE svg PUBLIC "-//W3C//DTD SVG 1.1//EN" "http://www.w3.org/Graphics/SVG/1.1/DTD/svg11.dtd">
<svg version="1.1" id="Layer_1" xmlns="http://www.w3.org/2000/svg" xmlns:xlink="http://www.w3.org/1999/xlink" x="0px" y="0px"
	 width="400px" height="400px" viewBox="0 0 400 400" enable-background="new 0 0 400 400" xml:space="preserve">
<g>
	<g>
		<path fill="#F37021" d="M109.752,284.5l58.965-44.611c-3.37-1.633-7.142-2.573-11.139-2.573H62.307
			c-5.444,0-10.485,1.714-14.639,4.611L109.752,284.5z"/>
		<path fill="#F37021" d="M109.945,301.341l-70.924-49.046c-1.484,3.244-2.335,6.842-2.335,10.645v59.596
			c0,14.152,11.473,25.624,25.621,25.624h95.271c14.154,0,25.627-11.472,25.627-25.624v-59.596c0-5.186-1.552-10.005-4.201-14.038
			L109.945,301.341z"/>
	</g>
	<path fill="#F37021" d="M222.061,43.403c-76.692,0-138.86,62.171-138.86,138.863c0,12.672,1.729,24.934,4.911,36.599h20.339
		c-3.709-11.536-5.736-23.827-5.736-36.599c0-65.917,53.433-119.349,119.346-119.349c65.914,0,119.352,53.432,119.352,119.349
		c0,65.914-53.438,119.348-119.352,119.348c-7.115,0-14.075-0.657-20.852-1.851v19.804c6.802,1.023,13.768,1.562,20.852,1.562
		c76.692,0,138.865-62.17,138.865-138.862S298.753,43.403,222.061,43.403z"/>
	<path fill="#939598" d="M290.958,177.891c-0.029-10.239-0.739-20.014-2.299-29.097H178.192
		c3.033-25.157,14.488-39.722,44.093-39.722c22.411,0,33.746,7.604,39.236,21.297l22.352-0.051
		c-9.025-24.77-27.68-40.934-61.588-40.934c-50.195,0-68.517,38.887-68.671,88.506c-0.247,1.698-0.415,3.422-0.415,5.187v39.594
		c22.205,0,40.774,15.372,45.774,36.04h56.387c19.891,0,36.014-16.123,36.014-36.015v-39.62
		C291.373,181.313,291.205,179.589,290.958,177.891z M232.058,200.097v19.428c0,5.305-4.295,9.602-9.6,9.602
		c-5.299,0-9.596-4.297-9.596-9.602v-19.207c-4.772-3.099-7.941-8.457-7.941-14.569c0-9.587,7.776-17.361,17.364-17.361
		c9.59,0,17.361,7.774,17.361,17.361C239.646,191.714,236.64,196.973,232.058,200.097z"/>
</g>
</svg>
