<?xml version="1.0" encoding="utf-8"?>
<!-- Generator: Adobe Illustrator 16.0.0, SVG Export Plug-In . SVG Version: 6.00 Build 0)  -->
<!DOCTYPE svg PUBLIC "-//W3C//DTD SVG 1.1//EN" "http://www.w3.org/Graphics/SVG/1.1/DTD/svg11.dtd">
<svg version="1.1" id="Layer_1" xmlns="http://www.w3.org/2000/svg" xmlns:xlink="http://www.w3.org/1999/xlink" x="0px" y="0px"
	 width="400px" height="400px" viewBox="0 0 400 400" enable-background="new 0 0 400 400" xml:space="preserve">
<g>
	<polygon fill="#939598" points="262.41,97.038 262.41,97.038 194.982,200.88 121.133,156.516 121.133,156.516 202.293,257.443 	"/>
	<path fill="#F37021" d="M202.29,34.301c-92,0-166.576,74.579-166.576,166.579S110.29,367.459,202.29,367.459
		S368.869,292.88,368.869,200.88S294.29,34.301,202.29,34.301z M202.29,344.05c-79.07,0-143.17-64.1-143.17-143.17
		c0-79.073,64.1-143.17,143.17-143.17s143.174,64.097,143.174,143.17C345.464,279.95,281.36,344.05,202.29,344.05z"/>
	<rect x="289.295" y="195.788" fill="#939598" width="35.771" height="10.181"/>
	<rect x="82.854" y="195.788" fill="#939598" width="35.771" height="10.181"/>
	<rect x="197.201" y="71.131" fill="#939598" width="10.181" height="35.771"/>
	<rect x="197.201" y="290.407" fill="#939598" width="10.181" height="35.771"/>
</g>
</svg>
