<?xml version="1.0" encoding="utf-8"?>
<!-- Generator: Adobe Illustrator 16.0.0, SVG Export Plug-In . SVG Version: 6.00 Build 0)  -->
<!DOCTYPE svg PUBLIC "-//W3C//DTD SVG 1.1//EN" "http://www.w3.org/Graphics/SVG/1.1/DTD/svg11.dtd">
<svg version="1.1" id="Layer_1" xmlns="http://www.w3.org/2000/svg" xmlns:xlink="http://www.w3.org/1999/xlink" x="0px" y="0px"
	 width="400px" height="400px" viewBox="0 0 400 400" enable-background="new 0 0 400 400" xml:space="preserve">
<g>
	<g>
		<path fill="#F37021" d="M107.124,288.941l59.869-45.294c-3.422-1.657-7.252-2.612-11.31-2.612H58.952
			c-5.528,0-10.647,1.739-14.864,4.682L107.124,288.941z"/>
		<path fill="#F37021" d="M107.32,306.041l-72.012-49.798c-1.506,3.295-2.371,6.947-2.371,10.81v60.508
			c0,14.37,11.649,26.017,26.015,26.017h96.731c14.37,0,26.02-11.646,26.02-26.017v-60.508c0-5.266-1.576-10.159-4.265-14.255
			L107.32,306.041z"/>
	</g>
	<path fill="#F37021" d="M221.154,44.15c-77.868,0-140.989,63.124-140.989,140.992c0,12.866,1.756,25.316,4.986,37.159h20.651
		c-3.766-11.712-5.825-24.192-5.825-37.159c0-66.927,54.251-121.179,121.176-121.179c66.925,0,121.181,54.251,121.181,121.179
		c0,66.924-54.256,121.178-121.181,121.178c-7.225,0-14.291-0.669-21.171-1.881v20.108c6.907,1.039,13.978,1.585,21.171,1.585
		c77.868,0,140.994-63.123,140.994-140.991C362.148,107.273,299.022,44.15,221.154,44.15z"/>
	<text transform="matrix(1 0 0 1 155.0313 208.8945)" fill="#939598" font-family="'OpenSans-Bold'" font-size="166.1895">{}</text>
</g>
</svg>
