<?xml version="1.0" encoding="utf-8"?>
<!-- Generator: Adobe Illustrator 16.0.0, SVG Export Plug-In . SVG Version: 6.00 Build 0)  -->
<!DOCTYPE svg PUBLIC "-//W3C//DTD SVG 1.1//EN" "http://www.w3.org/Graphics/SVG/1.1/DTD/svg11.dtd">
<svg version="1.1" id="Layer_1" xmlns="http://www.w3.org/2000/svg" xmlns:xlink="http://www.w3.org/1999/xlink" x="0px" y="0px"
	 width="400px" height="400px" viewBox="0 0 400 400" enable-background="new 0 0 400 400" xml:space="preserve">
<g>
	<path fill="#F37021" d="M126.907,274.691c12.543-5.75,21.275-18.386,21.275-33.094c0-20.109-16.303-36.415-36.418-36.415
		c-20.116,0-36.419,16.306-36.419,36.415c0,14.708,8.732,27.344,21.276,33.094c-26.196,4.419-45.556,20.045-45.556,38.642
		c0,22.027,27.177,39.884,60.699,39.884s60.697-17.856,60.697-39.884C172.46,294.732,153.103,279.11,126.907,274.691z"/>
	<g>
		<path fill="#F37021" d="M210.226,45.871c-78.194,0-141.586,63.392-141.586,141.583c0,5.924,0.405,11.747,1.112,17.478
			c5.32-6.941,12.296-12.529,20.36-16.162c-0.004-0.437-0.033-0.874-0.033-1.316c0-66.359,53.788-120.144,120.147-120.144
			c66.353,0,120.144,53.785,120.144,120.144c0,66.356-53.791,120.147-120.144,120.147c-6.793,0-13.443-0.592-19.929-1.676
			c1.069,3.734,1.641,7.588,1.641,11.531c0,3.494-0.446,6.903-1.26,10.212c6.393,0.878,12.911,1.374,19.548,1.374
			c78.192,0,141.585-63.392,141.585-141.588C351.811,109.263,288.418,45.871,210.226,45.871z"/>
	</g>
	<rect x="132.967" y="130.63" fill="#939598" width="147.685" height="22.291"/>
	<rect x="171.151" y="174.496" fill="#939598" width="109.5" height="22.291"/>
	<rect x="203.88" y="218.322" fill="#939598" width="76.771" height="22.288"/>
</g>
</svg>
