<?xml version="1.0" encoding="utf-8"?>
<!-- Generator: Adobe Illustrator 16.0.0, SVG Export Plug-In . SVG Version: 6.00 Build 0)  -->
<!DOCTYPE svg PUBLIC "-//W3C//DTD SVG 1.1//EN" "http://www.w3.org/Graphics/SVG/1.1/DTD/svg11.dtd">
<svg version="1.1" id="Layer_1" xmlns="http://www.w3.org/2000/svg" xmlns:xlink="http://www.w3.org/1999/xlink" x="0px" y="0px"
	 width="400px" height="400px" viewBox="0 0 400 400" enable-background="new 0 0 400 400" xml:space="preserve">
<g>
	<g>
		<polygon fill="#939598" points="38.604,117.051 84.859,163.308 53.1,195.065 169.398,188.647 175.813,72.356 144.054,104.114 
			97.799,57.86 		"/>
	</g>
	<g>
		<polygon fill="#939598" points="276.357,218.246 322.614,171.991 354.372,203.749 347.954,87.453 231.663,81.037 263.421,112.795 
			217.166,159.052 		"/>
	</g>
	<g>
		<path fill="#F37021" d="M145.623,280.441l1.557-1.557c-0.523-0.271-1.038-0.56-1.557-0.838V280.441z"/>
		<path fill="#F37021" d="M114.37,254.463c-12.587-13.045-21.779-28.146-27.554-44.211l-21.004,1.385
			c6.774,21.533,18.657,41.807,35.723,58.872c4.093,4.093,8.399,7.827,12.835,11.32V254.463z"/>
		<path fill="#F37021" d="M325.193,196.865c-4.264,18-12.574,35.229-24.941,50.243v29.255c2.121-1.884,4.21-3.819,6.244-5.851
			c16.44-16.438,28.068-35.854,34.958-56.5L325.193,196.865z"/>
		<path fill="#F37021" d="M308.879,67.953C258.112,17.577,176.593,9.697,120.149,49.85l14.627,14.627
			c42.099-28.21,97.577-27.976,139.463,0.685L308.879,67.953z"/>
	</g>
	<g>
		<path fill="#F37021" d="M238.419,217.756h-68.282c-8.873,0-16.067,7.193-16.067,16.067v125.853
			c0,8.875,7.194,16.066,16.067,16.066h68.282c8.875,0,16.067-7.191,16.067-16.066V233.823
			C254.486,224.949,247.294,217.756,238.419,217.756z M177.753,363.795h-3.855c-5.035,0-9.117-4.086-9.117-9.119
			c0-5.035,4.083-9.117,9.117-9.117h3.855c5.036,0,9.119,4.082,9.119,9.117C186.872,359.709,182.789,363.795,177.753,363.795z
			 M177.753,341.539h-3.855c-5.035,0-9.117-4.082-9.117-9.117s4.083-9.117,9.117-9.117h3.855c5.036,0,9.119,4.082,9.119,9.117
			S182.789,341.539,177.753,341.539z M177.753,319.836h-3.855c-5.035,0-9.117-4.084-9.117-9.117c0-5.037,4.083-9.121,9.117-9.121
			h3.855c5.036,0,9.119,4.084,9.119,9.121C186.872,315.752,182.789,319.836,177.753,319.836z M206.206,363.795h-3.855
			c-5.038,0-9.117-4.086-9.117-9.119c0-5.035,4.079-9.117,9.117-9.117h3.855c5.033,0,9.117,4.082,9.117,9.117
			C215.323,359.709,211.239,363.795,206.206,363.795z M206.206,341.539h-3.855c-5.038,0-9.117-4.082-9.117-9.117
			s4.079-9.117,9.117-9.117h3.855c5.033,0,9.117,4.082,9.117,9.117S211.239,341.539,206.206,341.539z M206.206,319.836h-3.855
			c-5.038,0-9.117-4.084-9.117-9.117c0-5.037,4.079-9.121,9.117-9.121h3.855c5.033,0,9.117,4.084,9.117,9.121
			C215.323,315.752,211.239,319.836,206.206,319.836z M234.656,363.795h-3.854c-5.036,0-9.12-4.086-9.12-9.119
			c0-5.035,4.084-9.117,9.12-9.117h3.854c5.033,0,9.117,4.082,9.117,9.117C243.773,359.709,239.689,363.795,234.656,363.795z
			 M234.656,341.539h-3.854c-5.036,0-9.12-4.082-9.12-9.117s4.084-9.117,9.12-9.117h3.854c5.033,0,9.117,4.082,9.117,9.117
			S239.689,341.539,234.656,341.539z M234.656,319.836h-3.854c-5.036,0-9.12-4.084-9.12-9.117c0-5.037,4.084-9.121,9.12-9.121h3.854
			c5.033,0,9.117,4.084,9.117,9.121C243.773,315.752,239.689,319.836,234.656,319.836z M243.773,267.98
			c0,7.394-5.992,13.389-13.387,13.389H178.17c-7.395,0-13.389-5.995-13.389-13.389v-26.778c0-7.394,5.994-13.388,13.389-13.388
			h52.217c7.395,0,13.387,5.994,13.387,13.388V267.98z"/>
		<path fill="#F37021" d="M235.406,214.693c4.437,0,8.035-3.597,8.035-8.033v-10.711c0-4.438-3.599-8.034-8.035-8.034
			c-4.438,0-8.035,3.596-8.035,8.034v10.711C227.371,211.097,230.968,214.693,235.406,214.693z"/>
	</g>
</g>
</svg>
