<?xml version="1.0" encoding="utf-8"?>
<!-- Generator: Adobe Illustrator 16.0.0, SVG Export Plug-In . SVG Version: 6.00 Build 0)  -->
<!DOCTYPE svg PUBLIC "-//W3C//DTD SVG 1.1//EN" "http://www.w3.org/Graphics/SVG/1.1/DTD/svg11.dtd">
<svg version="1.1" id="Layer_1" xmlns="http://www.w3.org/2000/svg" xmlns:xlink="http://www.w3.org/1999/xlink" x="0px" y="0px"
	 width="400px" height="400px" viewBox="0 0 400 400" enable-background="new 0 0 400 400" xml:space="preserve">
<path fill="#F37021" d="M198.476,34c-91.263,0-165.242,73.982-165.242,165.245c0,91.263,73.979,165.245,165.242,165.245
	c91.263,0,165.245-73.982,165.245-165.245C363.721,107.982,289.738,34,198.476,34z M198.476,341.269
	c-78.437,0-142.024-63.587-142.024-142.023c0-78.44,63.587-142.024,142.024-142.024c78.437,0,142.026,63.584,142.026,142.024
	C340.502,277.682,276.912,341.269,198.476,341.269z"/>
<g>
	<path fill="#939598" d="M246.494,167.22h-42.656v-6.388c0-6.811-0.498-11.266-1.482-13.367c-0.986-2.099-3.1-3.146-6.336-3.146
		c-2.605,0-4.554,0.905-5.856,2.72c-1.303,1.809-1.956,4.535-1.956,8.157c0,6.046,1.334,10.28,4.013,12.692
		c2.605,2.419,10.274,7.122,23.02,14.12c10.84,5.919,18.232,10.451,22.174,13.6s7.271,7.597,9.979,13.358
		c2.711,5.757,4.066,12.926,4.066,21.521c0,13.74-3.662,24.519-10.982,32.349c-7.321,7.821-18.304,12.652-32.945,14.502v14.502
		h-19.641v-14.98c-11.406-1.017-21.366-4.974-29.883-11.878c-8.521-6.901-12.776-18.944-12.776-36.119v-7.545h42.66v9.459
		c0,10.365,0.438,16.806,1.321,19.317c0.879,2.515,3.009,3.768,6.388,3.768c2.885,0,5.03-0.87,6.441-2.617
		c1.405-1.757,2.107-4.346,2.107-7.778c0-8.657-0.668-14.84-2.002-18.564c-1.34-3.725-5.912-7.774-13.728-12.167
		c-13.025-7.38-21.878-12.798-26.557-16.271c-4.682-3.463-8.732-8.35-12.146-14.642c-3.417-6.304-5.123-13.423-5.123-21.378
		c0-11.511,3.609-20.545,10.824-27.098c7.218-6.55,18.042-10.594,32.473-12.117v-12.31h19.641v12.31
		c13.161,1.523,23.022,5.515,29.565,11.974c6.55,6.457,9.823,15.378,9.823,26.762C246.92,161.559,246.777,163.972,246.494,167.22z"
		/>
</g>
</svg>
