<?xml version="1.0" encoding="UTF-8" standalone="no"?>
<svg
   width="160"
   height="160"
   viewBox="0 0 42.333332 42.333334"
   version="1.1"
   id="svg8"
   sodipodi:docname="logox.svg"
   inkscape:version="1.4 (86a8ad7, 2024-10-11)"
   xmlns:inkscape="http://www.inkscape.org/namespaces/inkscape"
   xmlns:sodipodi="http://sodipodi.sourceforge.net/DTD/sodipodi-0.dtd"
   xmlns:xlink="http://www.w3.org/1999/xlink"
   xmlns="http://www.w3.org/2000/svg"
   xmlns:svg="http://www.w3.org/2000/svg"
   xmlns:rdf="http://www.w3.org/1999/02/22-rdf-syntax-ns#"
   xmlns:cc="http://creativecommons.org/ns#"
   xmlns:dc="http://purl.org/dc/elements/1.1/">
  <sodipodi:namedview
     id="namedview1"
     pagecolor="#ffffff"
     bordercolor="#000000"
     borderopacity="0.25"
     inkscape:showpageshadow="2"
     inkscape:pageopacity="0.0"
     inkscape:pagecheckerboard="0"
     inkscape:deskcolor="#d1d1d1"
     showgrid="false"
     showguides="true"
     inkscape:lockguides="false"
     inkscape:document-units="px"
     inkscape:zoom="2.6728636"
     inkscape:cx="94.467969"
     inkscape:cy="75.574375"
     inkscape:window-width="1680"
     inkscape:window-height="946"
     inkscape:window-x="-8"
     inkscape:window-y="-8"
     inkscape:window-maximized="1"
     inkscape:current-layer="svg8" />
  <defs
     id="defs2">
    <rect
       x="86.243386"
       y="-123.80952"
       width="0.52910053"
       height="66.137566"
       id="rect11" />
    <rect
       x="63.113006"
       y="21.535181"
       width="47.121535"
       height="43.283582"
       id="rect9" />
    <rect
       x="66.238379"
       y="22.724115"
       width="43.836591"
       height="41.74146"
       id="rect8" />
    <rect
       x="60.919969"
       y="34.166755"
       width="47.221034"
       height="30.782312"
       id="rect7" />
    <rect
       x="57.374362"
       y="35.61723"
       width="33.199771"
       height="29.654165"
       id="rect6" />
    <rect
       x="64.626739"
       y="26.914378"
       width="33.844427"
       height="38.03469"
       id="rect5" />
    <style
       id="style4103">.cls-1{fill:url(#linear-gradient);}.cls-2{fill:url(#linear-gradient-2);}.cls-3{fill:#0096c7;}.cls-4{fill:url(#linear-gradient-3);}.cls-5{fill:url(#linear-gradient-4);}.cls-6{fill:url(#linear-gradient-5);}.cls-7{fill:url(#linear-gradient-6);}.cls-8{fill:url(#linear-gradient-7);}.cls-9{fill:url(#linear-gradient-8);}.cls-10{fill:url(#linear-gradient-9);}.cls-11{fill:url(#linear-gradient-10);}.cls-12{fill:url(#linear-gradient-11);}.cls-13{fill:url(#linear-gradient-12);}.cls-14{fill:url(#linear-gradient-13);}.cls-15{fill:url(#linear-gradient-14);}.cls-16{fill:url(#linear-gradient-15);}.cls-17{fill:url(#linear-gradient-16);}.cls-18{fill:url(#linear-gradient-17);}.cls-19{fill:url(#linear-gradient-18);}.cls-20{fill:url(#linear-gradient-19);}.cls-21{fill:url(#linear-gradient-20);}.cls-22{fill:url(#linear-gradient-21);}.cls-23{fill:url(#linear-gradient-22);}.cls-24{fill:url(#linear-gradient-23);}.cls-25{fill:url(#linear-gradient-24);}.cls-26{fill:url(#linear-gradient-25);}.cls-27{fill:url(#linear-gradient-26);}.cls-28{fill:url(#linear-gradient-27);}.cls-29{fill:url(#linear-gradient-28);}.cls-30{fill:#e9feff;}.cls-31{fill:url(#linear-gradient-29);}.cls-32{fill:url(#linear-gradient-30);}.cls-33{fill:url(#linear-gradient-31);}.cls-34{fill:url(#linear-gradient-32);}.cls-35{fill:url(#linear-gradient-33);}.cls-36{fill:url(#linear-gradient-34);}.cls-37{fill:url(#linear-gradient-35);}.cls-38{fill:url(#linear-gradient-36);}.cls-39{fill:url(#linear-gradient-37);}</style>
    <linearGradient
       id="linear-gradient"
       x1="50.98"
       y1="65.87"
       x2="74.75"
       y2="65.87"
       gradientTransform="matrix(-1, 0, 0, 1, 121.82, 0)"
       gradientUnits="userSpaceOnUse">
      <stop
         offset="0"
         stop-color="#00b4d8"
         id="stop4105" />
      <stop
         offset="1"
         stop-color="#0096c7"
         id="stop4107" />
    </linearGradient>
    <linearGradient
       id="linear-gradient-2"
       x1="57.07"
       y1="63.35"
       x2="59.92"
       y2="63.35"
       xlink:href="#linear-gradient" />
    <linearGradient
       id="linear-gradient-3"
       x1="57.8"
       y1="65.38"
       x2="70.52"
       y2="58.04"
       xlink:href="#linear-gradient" />
    <linearGradient
       gradientTransform="matrix(0.26458333,0,0,0.26458333,40.110967,-17.768759)"
       id="linear-gradient-4"
       x1="47.07"
       y1="65.05"
       x2="47.66"
       y2="65.05"
       xlink:href="#linear-gradient" />
    <linearGradient
       gradientTransform="matrix(0.26458333,0,0,0.26458333,40.110967,-17.768759)"
       id="linear-gradient-5"
       x1="70.24"
       y1="70.78"
       x2="70.84"
       y2="70.78"
       xlink:href="#linear-gradient" />
    <linearGradient
       id="linear-gradient-6"
       x1="58.64"
       y1="74.44"
       x2="74.88"
       y2="65.07"
       xlink:href="#linear-gradient" />
    <linearGradient
       id="linear-gradient-7"
       x1="51.57"
       y1="72.62"
       x2="56.54"
       y2="72.62"
       xlink:href="#linear-gradient" />
    <linearGradient
       gradientTransform="matrix(0.26458333,0,0,0.26458333,40.110967,-17.768759)"
       id="linear-gradient-8"
       x1="62.45"
       y1="74.22"
       x2="65.28"
       y2="74.22"
       xlink:href="#linear-gradient" />
    <linearGradient
       id="linear-gradient-9"
       x1="57.07"
       y1="56"
       x2="68.4"
       y2="56"
       gradientTransform="matrix(-1,0,0,1,121.82,0)"
       gradientUnits="userSpaceOnUse">
      <stop
         offset="0"
         stop-color="#3e5368"
         id="stop4117" />
      <stop
         offset="1"
         stop-color="#4d6c84"
         id="stop4119" />
    </linearGradient>
    <linearGradient
       id="linear-gradient-10"
       x1="69.04"
       y1="23.65"
       x2="107.26"
       y2="45.72"
       gradientTransform="matrix(-1, 0, 0, 1, 121.82, 0)"
       gradientUnits="userSpaceOnUse">
      <stop
         offset="0"
         stop-color="#caf0f8"
         id="stop4122" />
      <stop
         offset="1"
         stop-color="#90e0ef"
         id="stop4124" />
    </linearGradient>
    <linearGradient
       id="linear-gradient-11"
       x1="97.38"
       y1="33.46"
       x2="115.77"
       y2="44.08"
       xlink:href="#linear-gradient-10" />
    <linearGradient
       id="linear-gradient-12"
       x1="78.25"
       y1="7.71"
       x2="109.43"
       y2="25.71"
       xlink:href="#linear-gradient-10" />
    <linearGradient
       gradientTransform="matrix(0.26458333,0,0,0.26458333,40.110967,-17.768759)"
       id="linear-gradient-13"
       x1="104.16"
       y1="33.64"
       x2="108.99"
       y2="36.44"
       xlink:href="#linear-gradient" />
    <linearGradient
       gradientTransform="matrix(0.26458333,0,0,0.26458333,40.110967,-17.768759)"
       id="linear-gradient-14"
       x1="104.16"
       y1="28.37"
       x2="108.99"
       y2="31.16"
       xlink:href="#linear-gradient" />
    <linearGradient
       id="linear-gradient-15"
       x1="18.9"
       y1="24.47"
       x2="20.6"
       y2="24.47"
       gradientUnits="userSpaceOnUse">
      <stop
         offset="0"
         stop-color="#ffd500"
         id="stop4131" />
      <stop
         offset="1"
         stop-color="#fdc500"
         id="stop4133" />
    </linearGradient>
    <linearGradient
       gradientTransform="matrix(0.26458333,0,0,0.26458333,40.110967,-17.768759)"
       id="linear-gradient-16"
       x1="17.13"
       y1="23.44"
       x2="18.83"
       y2="23.44"
       xlink:href="#linear-gradient-15" />
    <linearGradient
       gradientTransform="matrix(0.26458333,0,0,0.26458333,40.110967,-17.768759)"
       id="linear-gradient-17"
       x1="15.26"
       y1="22.15"
       x2="16.26"
       y2="22.15"
       xlink:href="#linear-gradient-15" />
    <linearGradient
       gradientTransform="matrix(0.26458333,0,0,0.26458333,40.110967,-17.768759)"
       id="linear-gradient-18"
       x1="13.97"
       y1="21.41"
       x2="14.97"
       y2="21.41"
       xlink:href="#linear-gradient-15" />
    <linearGradient
       gradientTransform="matrix(0.26458333,0,0,0.26458333,40.110967,-17.768759)"
       id="linear-gradient-19"
       x1="104.28"
       y1="45.5"
       x2="108.89"
       y2="48.15"
       xlink:href="#linear-gradient" />
    <linearGradient
       id="linear-gradient-20"
       x1="13.82"
       y1="44.95"
       x2="16.66"
       y2="44.95"
       gradientTransform="matrix(0.22876556,0.13293102,-0.13293102,0.22876556,43.60953,4.789182)"
       xlink:href="#linear-gradient-15" />
    <linearGradient
       gradientTransform="matrix(0.26458333,0,0,0.26458333,40.110967,-17.768759)"
       id="linear-gradient-21"
       x1="95.07"
       y1="40"
       x2="97.92"
       y2="40"
       xlink:href="#linear-gradient" />
    <linearGradient
       gradientTransform="matrix(0.26458333,0,0,0.26458333,40.110967,-17.768759)"
       id="linear-gradient-22"
       x1="94.82"
       y1="60.96"
       x2="103.66"
       y2="66.07"
       xlink:href="#linear-gradient-10" />
    <linearGradient
       gradientTransform="matrix(0.26458333,0,0,0.26458333,40.110967,-17.768759)"
       id="linear-gradient-23"
       x1="95.49"
       y1="65.22"
       x2="103.44"
       y2="60.63"
       xlink:href="#linear-gradient-10" />
    <linearGradient
       gradientTransform="matrix(0.26458333,0,0,0.26458333,40.110967,-17.768759)"
       id="linear-gradient-24"
       x1="23.14"
       y1="61.5"
       x2="24.89"
       y2="61.5"
       xlink:href="#linear-gradient-15" />
    <linearGradient
       id="linear-gradient-25"
       x1="39.55"
       y1="59.76"
       x2="42.44"
       y2="59.76"
       xlink:href="#linear-gradient-10" />
    <linearGradient
       id="linear-gradient-26"
       x1="59.75"
       y1="33.01"
       x2="61.17"
       y2="35.46"
       xlink:href="#linear-gradient-10" />
    <linearGradient
       gradientTransform="matrix(0.26458333,0,0,0.26458333,40.110967,-17.768759)"
       id="linear-gradient-27"
       x1="46.4"
       y1="76.18"
       x2="77.42"
       y2="22.46"
       xlink:href="#linear-gradient-10" />
    <linearGradient
       id="linear-gradient-28"
       x1="48.12"
       y1="41.36"
       x2="75.7"
       y2="57.28"
       gradientTransform="matrix(-0.26458333,0,0,0.26458333,72.342508,-17.768759)"
       gradientUnits="userSpaceOnUse">
      <stop
         offset="0"
         stop-color="#dcf7ff"
         id="stop4148" />
      <stop
         offset="1"
         stop-color="#c3edfd"
         id="stop4150" />
    </linearGradient>
    <linearGradient
       gradientTransform="matrix(0.26458333,0,0,0.26458333,40.110967,-17.768759)"
       id="linear-gradient-29"
       x1="77.14"
       y1="23.7"
       x2="80.97"
       y2="23.7"
       xlink:href="#linear-gradient-10" />
    <linearGradient
       gradientTransform="matrix(0.26458333,0,0,0.26458333,40.110967,-17.768759)"
       id="linear-gradient-30"
       x1="39.62"
       y1="72.85"
       x2="42.85"
       y2="72.85"
       xlink:href="#linear-gradient-10" />
    <linearGradient
       gradientTransform="matrix(0.26458333,0,0,0.26458333,40.110967,-17.768759)"
       id="linear-gradient-31"
       x1="39.96"
       y1="44.92"
       x2="43.07"
       y2="46.72"
       xlink:href="#linear-gradient-10" />
    <linearGradient
       gradientTransform="matrix(0.26458333,0,0,0.26458333,40.110967,-17.768759)"
       id="linear-gradient-32"
       x1="26.64"
       y1="74.2"
       x2="27.23"
       y2="74.2"
       xlink:href="#linear-gradient" />
    <linearGradient
       gradientTransform="matrix(0.26458333,0,0,0.26458333,40.110967,-17.768759)"
       id="linear-gradient-33"
       x1="60.4"
       y1="83.62"
       x2="60.99"
       y2="83.62"
       xlink:href="#linear-gradient" />
    <linearGradient
       id="linear-gradient-34"
       x1="71.33"
       y1="81.37"
       x2="94.6"
       y2="81.37"
       xlink:href="#linear-gradient" />
    <linearGradient
       id="linear-gradient-35"
       x1="61.41"
       y1="86.08"
       x2="68.51"
       y2="86.08"
       xlink:href="#linear-gradient" />
    <linearGradient
       gradientTransform="matrix(0.26458333,0,0,0.26458333,40.110967,-17.768759)"
       id="linear-gradient-36"
       x1="50.48"
       y1="88.3"
       x2="53.31"
       y2="88.3"
       xlink:href="#linear-gradient" />
    <linearGradient
       gradientTransform="matrix(0.26458333,0,0,0.26458333,40.110967,-17.768759)"
       id="linear-gradient-37"
       x1="60.83"
       y1="77.28"
       x2="95.18"
       y2="77.28"
       xlink:href="#linear-gradient" />
    <pattern
       id="EMFhbasepattern"
       patternUnits="userSpaceOnUse"
       width="6"
       height="6"
       x="0"
       y="0" />
    <pattern
       id="EMFhbasepattern-4"
       patternUnits="userSpaceOnUse"
       width="6"
       height="6"
       x="0"
       y="0" />
    <pattern
       id="EMFhbasepattern-1"
       patternUnits="userSpaceOnUse"
       width="6"
       height="6"
       x="0"
       y="0" />
  </defs>
  <metadata
     id="metadata5">
    <rdf:RDF>
      <cc:Work
         rdf:about="">
        <dc:format>image/svg+xml</dc:format>
        <dc:type
           rdf:resource="http://purl.org/dc/dcmitype/StillImage" />
      </cc:Work>
    </rdf:RDF>
  </metadata>
  <g
     transform="matrix(1.0755702,0,0,1.0818368,-1.4228897,-1.4123549)"
     id="g5281"
     style="fill:#ffeeaa;fill-opacity:1">
    <path
       style="color:#000000;fill:#ffeeaa;fill-opacity:1;stroke:none;stroke-width:0.23673876;stroke-linecap:round;stroke-linejoin:round"
       d="m 13.773195,37.400582 c 0.108746,0.318335 -0.277243,0.134847 -0.766954,0.149006 -0.845912,0.02446 -1.577194,0.07559 -2.49543,1.598475 0.843628,0.313253 1.843051,0.702839 2.82741,0.514758 1.109594,-0.212005 0.956573,-2.002168 1.676979,-1.686531 l -0.326113,-0.653626 z"
       id="path3915" />
    <path
       style="color:#000000;fill:#ffeeaa;fill-opacity:1;stroke:none;stroke-width:0.23673876;stroke-linecap:round;stroke-linejoin:round"
       d="m 4.9363082,16.173686 c 0,0 0.028619,-0.338653 -0.3262384,-0.460572 -0.3548523,-0.121913 -1.3189505,-0.145135 -1.4308614,-1.29366 -0.078098,-0.801589 -0.1094476,-2.43459 0.124244,-3.092145 0.6086041,0.3285 1.26256,0.835922 1.5985103,1.744311 0.1948382,0.526792 0.1457181,1.966804 0.4864919,1.537474 0.074406,-0.142237 0.3205123,0.358975 0.3205123,0.358975 l -0.2346596,0.711149 z"
       id="path3917" />
    <path
       style="color:#000000;fill:#ffeeaa;fill-opacity:1;stroke:none;stroke-width:0.23673876;stroke-linecap:round;stroke-linejoin:round"
       d="M 6.1894607,12.534201 C 6.2758084,11.683205 4.8605046,12.264711 4.7649072,10.63761 4.6640894,8.9221562 5.1747362,8.4445785 5.5607909,7.3258715 6.0720467,7.9016896 6.4015913,8.5196871 6.5941455,9.6126922 6.6961107,10.191377 6.3250209,11.498525 6.9709668,11.006068 c 0.060099,-0.07789 0.1287792,0.575715 0.1287792,0.575715 z"
       id="path3919" />
    <path
       style="color:#000000;fill:#ffeeaa;fill-opacity:1;stroke:none;stroke-width:0.23673876;stroke-linecap:round;stroke-linejoin:round"
       d="M 8.0841164,9.2857183 C 8.2452943,8.8118444 6.9222654,8.7327935 6.9222654,7.3486102 6.982408,6.1352123 7.6810086,5.6535763 8.2629129,4.2541459 8.8016407,4.9263234 9.0447126,5.8637646 9.0061583,6.5953978 8.9503116,7.6554865 8.6993928,7.8348197 8.7970947,8.1469781 8.8375664,8.2762861 8.9090274,8.2860064 8.9616386,8.2524845 9.0142514,8.2189613 8.8523704,8.860723 8.8523704,8.860723 Z"
       id="path3921" />
    <path
       style="color:#000000;fill:#ffeeaa;fill-opacity:1;stroke:none;stroke-width:0.23673876;stroke-linecap:round;stroke-linejoin:round"
       d="M 10.453931,6.8540267 C 10.58128,6.7084022 10.592727,6.542461 10.505443,6.3189515 10.414936,6.0871839 9.8040149,5.5340466 9.8293009,4.8715958 9.8543971,4.2134609 10.295363,3.4941312 10.75292,2.8662716 c 0.425468,-0.5838121 0.865325,-0.7631968 1.046025,-0.8374037 0.181287,1.0754196 0.329898,1.224864 0.222299,1.9455465 -0.220994,1.4801433 -0.995725,2.0015237 -0.586527,2.113156 0.161885,-0.076629 0.03238,0.2490439 0.03238,0.2490439 l -0.428992,0.3352514 z"
       id="path3923" />
    <path
       style="color:#000000;fill:#ffeeaa;fill-opacity:1;stroke:none;stroke-width:0.23673876;stroke-linecap:round;stroke-linejoin:round"
       d="m 13.004827,4.9769541 c 0.0769,-0.1173396 0.0688,-0.3256727 -0.01214,-0.4118802 -0.08094,-0.086207 -0.405049,-0.6084898 -0.335907,-1.0153198 0.145696,-0.8573082 0.913287,-1.392538 1.181754,-1.623597 0.267107,-0.2298866 0.432722,-0.434445 0.599414,-0.6533037 0.439661,0.393058 0.335548,1.643437 -0.09759,2.200246 -0.202353,0.2394653 -0.413869,0.4224702 -0.48672,0.623621 -0.07285,0.2011508 -0.07947,0.4103343 0.0096,0.4103343 0.08904,0 -0.267515,0.3070502 -0.267515,0.3070502 z"
       id="path3925" />
    <path
       style="color:#000000;fill:#ffeeaa;fill-opacity:1;stroke:none;stroke-width:0.23673876;stroke-linecap:round;stroke-linejoin:round"
       d="m 16.028272,3.3343545 c 0.245981,-0.00249 0.996431,0.048729 1.642448,0.7495408 -0.33035,0.4549356 -1.016715,0.9572168 -1.419062,0.975382 -0.509151,0.022925 -0.911764,-0.1380621 -1.150431,-0.2776959 -0.509391,-0.2980127 -0.961521,-0.040637 -1.150432,0.033867 -0.152031,0.05997 0.04579,-0.3488173 0.04579,-0.3488173 0.59713,-0.014673 0.748901,-1.1192867 2.031635,-1.1322987 z"
       id="path3927" />
    <path
       style="color:#000000;fill:#ffeeaa;fill-opacity:1;stroke:none;stroke-width:0.23673876;stroke-linecap:round;stroke-linejoin:round"
       d="m 12.968937,5.4761755 c -0.230983,0.7406514 0.687344,0.045175 1.582523,0.3488109 0.473697,0.1606784 0.803171,0.747415 0.968644,1.377207 C 14.832434,7.5551333 13.957158,7.6572 13.343822,7.3828278 12.582306,7.0421849 12.591768,5.9412052 11.912961,6.2246341 L 12.17624,5.7843852 Z"
       id="path3929" />
    <path
       style="color:#000000;fill:#ffeeaa;fill-opacity:1;stroke:none;stroke-width:0.23673876;stroke-linecap:round;stroke-linejoin:round"
       d="m 10.451213,7.5091341 c -0.314727,0.4047687 0.194577,0.3741198 0.389654,0.3001513 0.361753,-0.1371668 0.897028,-0.09576 1.136239,-0.04071 1.246029,0.2867722 0.905565,1.0271079 1.295078,1.4415583 -0.701265,0.4097739 -1.952297,0.7130171 -2.77227,0.014368 C 10.212567,8.956301 10.070922,8.6449994 9.9058832,8.5209542 9.7805951,8.4267849 9.6560684,8.4068289 9.436749,8.5517732 9.2702257,8.6618209 9.2964144,8.3404641 9.3287859,8.3021496 9.3611629,8.2638345 9.8685578,7.7541848 9.8685578,7.7541848 Z"
       id="path3931" />
    <path
       style="color:#000000;fill:#ffeeaa;fill-opacity:1;stroke:none;stroke-width:0.23673876;stroke-linecap:round;stroke-linejoin:round"
       d="m 8.0427888,10.355018 c 0,0.04789 -0.097131,0.25383 0.056657,0.268201 0.1537933,0.01437 1.048635,-0.7818125 1.9187992,-0.61419 0.870111,0.167622 1.359354,0.777046 1.359354,0.777046 0,0 -0.488688,1.023436 -1.5609889,1.174878 -1.0479281,0.147988 -1.4349399,-0.0503 -1.8143386,-0.518746 -0.1525807,-0.188403 -0.5018429,-0.167623 -0.5868528,-0.02873 -0.084988,0.138887 -0.1983075,-0.373566 -0.1942618,-0.392723 0.00405,-0.01916 0.8215504,-0.665736 0.8215504,-0.665736 z"
       id="path3933" />
    <path
       style="color:#000000;fill:#ffeeaa;fill-opacity:1;stroke:none;stroke-width:0.23673876;stroke-linecap:round;stroke-linejoin:round"
       d="m 6.4429733,13.457277 c 0.00659,0.04725 -0.060926,0.269154 0.092786,0.253714 0.1537172,-0.01544 0.9271535,-0.973385 1.8087377,-0.975511 0.8815842,-0.0022 1.4480995,0.504871 1.4480995,0.504871 0,0 -0.3414263,1.103956 -1.3786038,1.459852 -1.0136152,0.347832 -1.422759,0.226724 -1.8614848,-0.162411 -0.1764582,-0.156511 -0.5181999,-0.06874 -0.5829375,0.08466 -0.064754,0.153406 -0.2470361,-0.330394 -0.2456766,-0.350073 0.00136,-0.01968 0.7190469,-0.815051 0.7190469,-0.815051 z"
       id="path3935" />
    <path
       style="color:#000000;fill:#ffeeaa;fill-opacity:1;stroke:none;stroke-width:0.23673876;stroke-linecap:round;stroke-linejoin:round"
       d="m 5.4476292,16.739255 c 0.011406,0.04595 -0.032742,0.275938 0.1182352,0.238429 0.1509819,-0.0375 0.8199734,-1.099834 1.6947603,-1.229245 0.874787,-0.129366 1.4893184,0.292164 1.4893184,0.292164 0,0 -0.2251433,1.144924 -1.2179153,1.647882 -0.9701668,0.491478 -1.3887725,0.430309 -1.8643125,0.107381 -0.1912655,-0.129882 -0.5214191,0.0065 -0.5698866,0.168144 -0.048466,0.161606 -0.2792336,-0.292286 -0.2799134,-0.312017 -6.732e-4,-0.01973 0.6297031,-0.912705 0.6297031,-0.912705 z"
       id="path3937" />
    <path
       style="color:#000000;fill:#ffeeaa;fill-opacity:1;stroke:none;stroke-width:0.23673876;stroke-linecap:round;stroke-linejoin:round"
       d="m 5.019888,20.57392 c 0.022268,0.03999 0.036915,0.275197 0.17201,0.187063 0.135098,-0.08814 0.5121367,-1.335659 1.3166667,-1.762219 0.8045299,-0.426593 1.4963875,-0.23629 1.4963875,-0.23629 0,0 0.067794,1.172816 -0.7571662,1.997401 -0.8062157,0.805905 -1.221613,0.892351 -1.7562081,0.748188 -0.2150125,-0.05797 -0.4969868,0.186793 -0.5033763,0.358106 -0.00639,0.171314 -0.3392838,-0.182811 -0.3448086,-0.20144 -0.00552,-0.01863 0.376495,-1.090815 0.376495,-1.090815 z"
       id="path3939" />
    <path
       style="color:#000000;fill:#ffeeaa;fill-opacity:1;stroke:none;stroke-width:0.23673876;stroke-linecap:round;stroke-linejoin:round"
       d="m 5.2771526,24.194081 c 0.02684,0.03584 0.069556,0.266211 0.192712,0.156266 0.1231564,-0.109945 0.3467119,-1.408127 1.0919203,-1.96558 0.745203,-0.55744 1.4528848,-0.485301 1.4528848,-0.485301 0,0 0.2078074,1.149562 -0.5098637,2.104395 -0.7013739,0.93319 -1.1021435,1.088561 -1.6486474,1.035676 -0.219787,-0.02126 -0.469542,0.268394 -0.4553166,0.43905 0.014228,0.17065 -0.3577779,-0.123955 -0.3654834,-0.141469 -0.0077,-0.01752 0.2418158,-1.143056 0.2418158,-1.143056 z"
       id="path3941" />
    <path
       style="color:#000000;fill:#ffeeaa;fill-opacity:1;stroke:none;stroke-width:0.23673876;stroke-linecap:round;stroke-linejoin:round"
       d="m 6.1815215,27.818107 c 0.032609,0.02836 0.1153096,0.242943 0.2161708,0.10481 0.1008667,-0.138133 0.088708,-1.462944 0.7181769,-2.193353 0.6294311,-0.73041 1.3341221,-0.836051 1.3341221,-0.836051 0,0 0.4074527,1.072134 -0.1244778,2.184206 -0.5198367,1.086886 -0.8840857,1.338493 -1.4277075,1.422814 -0.2186506,0.03391 -0.4113408,0.379253 -0.3671039,0.542547 0.044237,0.163294 -0.3718021,-0.03214 -0.3824548,-0.04735 -0.010642,-0.01521 0.033272,-1.177648 0.033272,-1.177648 z"
       id="path3943" />
    <path
       style="color:#000000;fill:#ffeeaa;fill-opacity:1;stroke:none;stroke-width:0.23673876;stroke-linecap:round;stroke-linejoin:round"
       d="m 7.8187494,31.156771 c 0.037556,0.01785 0.162869,0.201234 0.2314294,0.0377 0.06856,-0.163545 -0.2224298,-1.442911 0.2331805,-2.336035 0.4556102,-0.893123 1.1157924,-1.203413 1.1157924,-1.203413 0,0 0.6205133,0.917988 0.3398167,2.151934 -0.2743395,1.205926 -0.5740195,1.55712 -1.0827303,1.799259 -0.2045937,0.09738 -0.3184079,0.488676 -0.2411578,0.633753 0.077255,0.145077 -0.3668265,0.07861 -0.380345,0.06703 -0.013511,-0.01159 -0.2159805,-1.15027 -0.2159805,-1.15027 z"
       id="path3945" />
    <path
       style="color:#000000;fill:#ffeeaa;fill-opacity:1;stroke:none;stroke-width:0.23673876;stroke-linecap:round;stroke-linejoin:round"
       d="m 10.077088,33.912473 c 0.04002,0.0071 0.197797,0.151171 0.232517,-0.0267 0.03472,-0.177878 -0.4985416,-1.342809 -0.229944,-2.336485 0.268597,-0.993676 0.850153,-1.476279 0.850153,-1.476279 0,0 0.783214,0.723131 0.751402,2.000493 -0.03107,1.248376 -0.253958,1.672038 -0.701483,2.046873 -0.179998,0.150758 -0.214213,0.562606 -0.110682,0.682613 0.103532,0.11998 -0.341496,0.17693 -0.356913,0.169368 -0.01541,-0.0076 -0.435044,-1.059896 -0.435044,-1.059896 z"
       id="path3947" />
    <path
       style="color:#000000;fill:#ffeeaa;fill-opacity:1;stroke:none;stroke-width:0.23673876;stroke-linecap:round;stroke-linejoin:round"
       d="m 12.798189,36.076195 c 0.04012,-0.0062 0.225295,0.081 0.21735,-0.101319 -0.0079,-0.182322 -0.791315,-1.128885 -0.763854,-2.171645 0.02741,-1.042761 0.474452,-1.696001 0.474452,-1.696001 0,0 0.921009,0.440455 1.187191,1.67893 0.260131,1.210371 0.144267,1.690268 -0.198943,2.196253 -0.13804,0.203515 -0.07526,0.610622 0.05216,0.692275 0.127415,0.08168 -0.287238,0.281219 -0.303812,0.278958 -0.01658,-0.0023 -0.664506,-0.877534 -0.664506,-0.877534 z"
       id="path3949" />
    <path
       style="color:#000000;fill:#ffeeaa;fill-opacity:1;stroke:none;stroke-width:0.23673876;stroke-linecap:round;stroke-linejoin:round"
       d="m 15.953773,37.62346 c 0.03771,-0.01736 0.235116,0.01507 0.190662,-0.159745 -0.04446,-0.174817 -0.995997,-0.872961 -1.179524,-1.893369 -0.183539,-1.020409 0.118947,-1.780965 0.118947,-1.780965 0,0 0.983218,0.167797 1.491276,1.295399 0.496563,1.102024 0.480766,1.60073 0.249435,2.189038 -0.09304,0.236599 0.04998,0.614236 0.190183,0.65762 0.140199,0.04336 -0.222272,0.35417 -0.238825,0.356656 -0.01656,0.0025 -0.822203,-0.664641 -0.822203,-0.664641 z"
       id="path3951" />
    <path
       style="color:#000000;fill:#ffeeaa;fill-opacity:1;stroke:none;stroke-width:0.23673876;stroke-linecap:round;stroke-linejoin:round"
       d="m 4.413187,20.012216 c 0,0 -0.038413,-0.337294 -0.4074798,-0.35868 -0.3690669,-0.02138 -1.3115007,0.220173 -1.6450584,-0.866519 -0.2327944,-0.75843 -0.5827744,-2.338482 -0.484072,-3.042159 0.6563485,0.152839 1.3917634,0.46729 1.8963415,1.25894 0.2926052,0.459103 0.5265415,1.873465 0.7740779,1.362456 0.044558,-0.158759 0.3820362,0.261405 0.3820362,0.261405 l -0.089154,0.756175 z"
       id="path3953" />
    <path
       style="color:#000000;fill:#ffeeaa;fill-opacity:1;stroke:none;stroke-width:0.23673876;stroke-linecap:round;stroke-linejoin:round"
       d="m 4.6284171,23.723202 c 0,0 -0.1036291,-0.317479 -0.4667796,-0.236734 C 3.798487,23.567213 2.929312,24.061449 2.3913998,23.096335 2.0159816,22.42274 1.3651688,20.982277 1.3229167,20.270741 c 0.6683661,-0.03193 1.4454349,0.07157 2.0917234,0.702711 0.3747875,0.366016 0.8801704,1.677255 1.0205213,1.112137 0.012148,-0.166663 0.4229233,0.149135 0.4229233,0.149135 l 0.06185,0.759976 z"
       id="path3955" />
    <path
       style="color:#000000;fill:#ffeeaa;fill-opacity:1;stroke:none;stroke-width:0.23673876;stroke-linecap:round;stroke-linejoin:round"
       d="m 5.5170162,27.458667 c 0,0 -0.1507644,-0.289832 -0.4954099,-0.132155 -0.3446509,0.157677 -1.1231879,0.831026 -1.8006896,-0.002 -0.4728156,-0.581383 -1.3345028,-1.85749 -1.4855663,-2.548026 0.6522701,-0.175468 1.4322753,-0.241211 2.1648625,0.240064 0.4248538,0.279107 1.1236229,1.459466 1.17463,0.873541 -0.01371,-0.166495 0.4388018,0.05548 0.4388018,0.05548 l 0.1777851,0.733887 z"
       id="path3957" />
    <path
       style="color:#000000;fill:#ffeeaa;fill-opacity:1;stroke:none;stroke-width:0.23673876;stroke-linecap:round;stroke-linejoin:round"
       d="m 6.9563063,30.926807 c 0,0 -0.1890251,-0.256503 -0.507036,-0.03384 C 6.1312594,31.115634 5.4569715,31.931478 4.6728879,31.241786 4.1256227,30.760453 3.0981953,29.669657 2.8531658,29.017964 3.4721562,28.717812 4.2323676,28.501009 5.0218891,28.832994 5.4797778,29.02552 6.3332266,30.053607 6.3020134,29.465769 6.2653274,29.304214 6.7425445,29.435 6.7425445,29.435 l 0.2774608,0.689248 z"
       id="path3959" />
    <path
       style="color:#000000;fill:#ffeeaa;fill-opacity:1;stroke:none;stroke-width:0.23673876;stroke-linecap:round;stroke-linejoin:round"
       d="m 9.1613545,33.87318 c 0,0 -0.2302603,-0.203921 -0.5017667,0.09268 -0.2715064,0.296602 -0.7863131,1.261516 -1.6751297,0.781684 -0.6203499,-0.334897 -1.8181452,-1.146663 -2.1732368,-1.723055 0.5520506,-0.447019 1.2570134,-0.847581 2.0878082,-0.718814 0.4818152,0.07467 1.4983995,0.868259 1.3637584,0.301188 -0.064487,-0.148865 0.4252997,-0.139357 0.4252997,-0.139357 l 0.3933795,0.605121 z"
       id="path3961" />
    <path
       style="color:#000000;fill:#ffeeaa;fill-opacity:1;stroke:none;stroke-width:0.23673876;stroke-linecap:round;stroke-linejoin:round"
       d="m 12.057553,36.344809 c 0,0 -0.279565,-0.158862 -0.531299,0.184287 -0.251735,0.343148 -0.67065,1.391378 -1.7052013,1.081732 -0.7220377,-0.216128 -2.140229,-0.7965 -2.6093523,-1.30023 0.5344863,-0.543572 1.2416787,-1.069494 2.1623611,-1.095904 0.5339153,-0.0153 1.7526735,0.580623 1.5242835,0.04541 -0.09161,-0.135118 0.441505,-0.216256 0.441505,-0.216256 l 0.514861,0.524981 z"
       id="path3963" />
    <path
       d="m 26.465681,40.436492 c 0,0 -1.100839,-1.41766 -5.002224,-1.455923 C 17.5618,38.942564 14.486152,38.7126 9.9373901,34.631867 5.3881935,30.551135 4.4098156,23.922118 4.4098156,20.508732 c 0,-3.413644 1.2768071,-9.224324 5.2450238,-12.9481942 1.5200426,-1.4263562 3.9068236,-2.9880497 4.3492466,-3.0924675 0.32148,-0.075882 0.313449,0.1250888 0.124179,0.2526061 C 13.44228,5.1828588 13.052549,5.3435501 11.865304,6.2777319 10.814059,7.1048936 9.6963628,8.178123 8.8525173,9.2487759 7.0555797,11.528511 4.4330678,16.241097 5.1615766,23.290748 c 0.7284544,7.049651 4.6784542,10.651131 6.8152574,12.222229 2.136858,1.570905 5.180313,3.046024 9.405305,2.950238 4.225155,-0.09579 6.345971,1.877394 6.345971,1.877394 z"
       id="path3965"
       style="fill:#ffeeaa;fill-opacity:1;stroke:none;stroke-width:0.23673876;stroke-linecap:round;stroke-linejoin:round" />
    <path
       style="color:#000000;fill:#ffeeaa;fill-opacity:1;stroke:none;stroke-width:0.23673876;stroke-linecap:round;stroke-linejoin:round"
       d="m 28.190023,37.400582 c -0.108746,0.318335 0.277243,0.134847 0.766954,0.149006 0.845912,0.02446 1.577194,0.07559 2.49543,1.598475 -0.843628,0.313253 -1.843051,0.702839 -2.82741,0.514758 -1.109594,-0.212005 -0.956573,-2.002168 -1.676979,-1.686531 l 0.326113,-0.653626 z"
       id="path3967" />
    <path
       style="color:#000000;fill:#ffeeaa;fill-opacity:1;stroke:none;stroke-width:0.23673876;stroke-linecap:round;stroke-linejoin:round"
       d="m 37.027073,16.173686 c 0,0 -0.02862,-0.338653 0.326238,-0.460572 0.354853,-0.121913 1.318951,-0.145135 1.430862,-1.29366 0.0781,-0.801589 0.109448,-2.43459 -0.124244,-3.092145 -0.608604,0.3285 -1.26256,0.835922 -1.59851,1.744311 -0.194839,0.526792 -0.145719,1.966804 -0.486492,1.537474 -0.07441,-0.142237 -0.320513,0.358975 -0.320513,0.358975 l 0.23466,0.711149 z"
       id="path3969" />
    <path
       style="color:#000000;fill:#ffeeaa;fill-opacity:1;stroke:none;stroke-width:0.23673876;stroke-linecap:round;stroke-linejoin:round"
       d="m 35.773649,12.534201 c -0.08635,-0.850996 1.328956,-0.26949 1.424553,-1.896591 0.100818,-1.7154538 -0.409829,-2.1930315 -0.795884,-3.3117385 -0.511255,0.5758181 -0.8408,1.1938156 -1.033354,2.2868207 -0.101965,0.5786848 0.269124,1.8858328 -0.376821,1.3933758 -0.0601,-0.07789 -0.12878,0.575715 -0.12878,0.575715 z"
       id="path3971" />
    <path
       style="color:#000000;fill:#ffeeaa;fill-opacity:1;stroke:none;stroke-width:0.23673876;stroke-linecap:round;stroke-linejoin:round"
       d="M 33.879102,9.2857183 C 33.717924,8.8118444 35.040953,8.7327935 35.040953,7.3486102 34.98081,6.1352123 34.28221,5.6535763 33.700305,4.2541459 c -0.538728,0.6721775 -0.7818,1.6096187 -0.743245,2.3412519 0.05585,1.0600887 0.306765,1.2394219 0.209063,1.5515803 -0.04047,0.129308 -0.111932,0.1390283 -0.164543,0.1055064 -0.05261,-0.033523 0.109273,0.6082385 0.109273,0.6082385 z"
       id="path3973" />
    <path
       style="color:#000000;fill:#ffeeaa;fill-opacity:1;stroke:none;stroke-width:0.23673876;stroke-linecap:round;stroke-linejoin:round"
       d="M 31.509287,6.8540267 C 31.381938,6.7084022 31.370491,6.542461 31.457776,6.3189515 31.548283,6.0871839 32.159204,5.5340466 32.133918,4.8715958 32.108822,4.2134609 31.667856,3.4941312 31.210299,2.8662716 30.784825,2.2824595 30.344974,2.1030748 30.164274,2.0288679 c -0.181287,1.0754196 -0.329898,1.224864 -0.222299,1.9455465 0.220994,1.4801433 0.995725,2.0015237 0.586526,2.113156 -0.161884,-0.076629 -0.03238,0.2490439 -0.03238,0.2490439 l 0.428992,0.3352514 z"
       id="path3975" />
    <path
       style="color:#000000;fill:#ffeeaa;fill-opacity:1;stroke:none;stroke-width:0.23673876;stroke-linecap:round;stroke-linejoin:round"
       d="m 28.958391,4.9769541 c -0.0769,-0.1173396 -0.0688,-0.3256727 0.01214,-0.4118802 0.08094,-0.086207 0.405054,-0.6084898 0.335907,-1.0153198 -0.145697,-0.8573082 -0.913287,-1.392538 -1.181754,-1.623597 -0.267107,-0.2298866 -0.432722,-0.434445 -0.599414,-0.6533037 -0.439661,0.393058 -0.335554,1.643437 0.09759,2.200246 0.202353,0.2394653 0.413869,0.4224702 0.48672,0.623621 0.07285,0.2011508 0.07947,0.4103343 -0.0096,0.4103343 -0.08904,0 0.267515,0.3070502 0.267515,0.3070502 z"
       id="path3977" />
    <path
       style="color:#000000;fill:#ffeeaa;fill-opacity:1;stroke:none;stroke-width:0.23673876;stroke-linecap:round;stroke-linejoin:round"
       d="m 25.934947,3.3343545 c -0.245982,-0.00249 -0.996432,0.048729 -1.642449,0.7495408 0.330355,0.4549356 1.016715,0.9572168 1.419062,0.975382 0.509151,0.022925 0.911764,-0.1380621 1.150431,-0.2776959 0.509391,-0.2980127 0.961521,-0.040637 1.150432,0.033867 0.152031,0.05997 -0.04579,-0.3488173 -0.04579,-0.3488173 C 27.369504,4.451958 27.217734,3.3473446 25.934999,3.3343326 Z"
       id="path3979" />
    <path
       style="color:#000000;fill:#ffeeaa;fill-opacity:1;stroke:none;stroke-width:0.23673876;stroke-linecap:round;stroke-linejoin:round"
       d="m 28.994281,5.4761755 c 0.230984,0.7406514 -0.687344,0.045175 -1.582523,0.3488109 -0.473697,0.1606784 -0.803171,0.747415 -0.968644,1.377207 0.68767,0.3529399 1.562947,0.4550066 2.176282,0.1806344 0.761516,-0.3406429 0.752054,-1.4416226 1.430861,-1.1581937 L 29.786978,5.7843852 Z"
       id="path3981" />
    <path
       style="color:#000000;fill:#ffeeaa;fill-opacity:1;stroke:none;stroke-width:0.23673876;stroke-linecap:round;stroke-linejoin:round"
       d="m 31.512549,7.5091341 c 0.314727,0.4047687 -0.194577,0.3741198 -0.389654,0.3001513 -0.361753,-0.1371668 -0.897028,-0.09576 -1.136239,-0.04071 -1.246029,0.2867722 -0.905565,1.0271079 -1.295078,1.4415583 0.701265,0.4097739 1.952297,0.7130171 2.77227,0.014368 0.287347,-0.2682011 0.428992,-0.5795027 0.594031,-0.7035479 0.125288,-0.094169 0.249815,-0.1141253 0.469134,0.030819 0.166523,0.1100477 0.14034,-0.2113091 0.107958,-0.2496236 -0.03238,-0.038315 -0.539772,-0.5479648 -0.539772,-0.5479648 z"
       id="path3983" />
    <path
       style="color:#000000;fill:#ffeeaa;fill-opacity:1;stroke:none;stroke-width:0.23673876;stroke-linecap:round;stroke-linejoin:round"
       d="m 33.920429,10.355018 c 0,0.04789 0.09713,0.25383 -0.05666,0.268201 -0.153793,0.01437 -1.048635,-0.7818125 -1.918799,-0.61419 -0.870111,0.167622 -1.359354,0.777046 -1.359354,0.777046 0,0 0.488689,1.023436 1.560989,1.174878 1.047928,0.147988 1.43494,-0.0503 1.814339,-0.518746 0.15258,-0.188403 0.501843,-0.167623 0.586853,-0.02873 0.08499,0.138887 0.198307,-0.373566 0.194261,-0.392723 -0.004,-0.01916 -0.82155,-0.665736 -0.82155,-0.665736 z"
       id="path3985" />
    <path
       style="color:#000000;fill:#ffeeaa;fill-opacity:1;stroke:none;stroke-width:0.23673876;stroke-linecap:round;stroke-linejoin:round"
       d="m 35.520245,13.457277 c -0.0066,0.04725 0.06092,0.269154 -0.09279,0.253714 -0.153717,-0.01544 -0.927154,-0.973385 -1.808738,-0.975511 -0.881584,-0.0022 -1.448099,0.504871 -1.448099,0.504871 0,0 0.341426,1.103956 1.378603,1.459852 1.013616,0.347832 1.422759,0.226724 1.861485,-0.162411 0.176458,-0.156511 0.5182,-0.06874 0.582938,0.08466 0.06475,0.153406 0.247036,-0.330394 0.245676,-0.350073 -0.0014,-0.01968 -0.719047,-0.815051 -0.719047,-0.815051 z"
       id="path3987" />
    <path
       style="color:#000000;fill:#ffeeaa;fill-opacity:1;stroke:none;stroke-width:0.23673876;stroke-linecap:round;stroke-linejoin:round"
       d="m 36.515915,16.739255 c -0.0114,0.04595 0.03274,0.275938 -0.118235,0.238429 -0.150982,-0.0375 -0.819973,-1.099834 -1.69476,-1.229245 -0.874787,-0.129366 -1.489319,0.292164 -1.489319,0.292164 0,0 0.225144,1.144924 1.217916,1.647882 0.970166,0.491478 1.388772,0.430309 1.864312,0.107381 0.191266,-0.129882 0.521419,0.0065 0.569887,0.168144 0.04847,0.161606 0.279233,-0.292286 0.279913,-0.312017 6.74e-4,-0.01973 -0.629703,-0.912705 -0.629703,-0.912705 z"
       id="path3989" />
    <path
       style="color:#000000;fill:#ffeeaa;fill-opacity:1;stroke:none;stroke-width:0.23673876;stroke-linecap:round;stroke-linejoin:round"
       d="m 36.94333,20.57392 c -0.02227,0.03999 -0.03692,0.275197 -0.17201,0.187063 -0.135098,-0.08814 -0.512137,-1.335659 -1.316667,-1.762219 -0.804529,-0.426593 -1.496387,-0.23629 -1.496387,-0.23629 0,0 -0.06779,1.172816 0.757166,1.997401 0.806216,0.805905 1.221613,0.892351 1.756208,0.748188 0.215013,-0.05797 0.496987,0.186793 0.503377,0.358106 0.0064,0.171314 0.339283,-0.182811 0.344808,-0.20144 0.0055,-0.01863 -0.376495,-1.090815 -0.376495,-1.090815 z"
       id="path3991" />
    <path
       style="color:#000000;fill:#ffeeaa;fill-opacity:1;stroke:none;stroke-width:0.23673876;stroke-linecap:round;stroke-linejoin:round"
       d="m 36.68612,24.194081 c -0.02684,0.03584 -0.06956,0.266211 -0.192712,0.156266 -0.123157,-0.109945 -0.346712,-1.408127 -1.09192,-1.96558 -0.745203,-0.55744 -1.452885,-0.485301 -1.452885,-0.485301 0,0 -0.207808,1.149562 0.509864,2.104395 0.701373,0.93319 1.102143,1.088561 1.648647,1.035676 0.219787,-0.02126 0.469542,0.268394 0.455317,0.43905 -0.01423,0.17065 0.357777,-0.123955 0.365483,-0.141469 0.0077,-0.01752 -0.241816,-1.143056 -0.241816,-1.143056 z"
       id="path3993" />
    <path
       style="color:#000000;fill:#ffeeaa;fill-opacity:1;stroke:none;stroke-width:0.23673876;stroke-linecap:round;stroke-linejoin:round"
       d="m 35.781805,27.818107 c -0.03261,0.02836 -0.115309,0.242943 -0.21617,0.10481 -0.100862,-0.138133 -0.08871,-1.462944 -0.718177,-2.193353 -0.629431,-0.73041 -1.334122,-0.836051 -1.334122,-0.836051 0,0 -0.407448,1.072134 0.124477,2.184206 0.519837,1.086886 0.884086,1.338493 1.427708,1.422814 0.21865,0.03391 0.411341,0.379253 0.367104,0.542547 -0.04424,0.163294 0.371807,-0.03214 0.382455,-0.04735 0.01064,-0.01521 -0.03327,-1.177648 -0.03327,-1.177648 z"
       id="path3995" />
    <path
       style="color:#000000;fill:#ffeeaa;fill-opacity:1;stroke:none;stroke-width:0.23673876;stroke-linecap:round;stroke-linejoin:round"
       d="m 34.144469,31.156771 c -0.03756,0.01785 -0.162869,0.201234 -0.23143,0.0377 -0.06856,-0.163545 0.22243,-1.442911 -0.23318,-2.336035 -0.45561,-0.893123 -1.115793,-1.203413 -1.115793,-1.203413 0,0 -0.620513,0.917988 -0.339816,2.151934 0.274339,1.205926 0.574019,1.55712 1.08273,1.799259 0.204594,0.09738 0.318408,0.488676 0.241158,0.633753 -0.07726,0.145077 0.366826,0.07861 0.380345,0.06703 0.01351,-0.01159 0.21598,-1.15027 0.21598,-1.15027 z"
       id="path3997" />
    <path
       style="color:#000000;fill:#ffeeaa;fill-opacity:1;stroke:none;stroke-width:0.23673876;stroke-linecap:round;stroke-linejoin:round"
       d="m 31.88613,33.912473 c -0.04002,0.0071 -0.197797,0.151171 -0.232517,-0.0267 -0.03472,-0.177878 0.498542,-1.342809 0.229945,-2.336485 -0.268598,-0.993676 -0.850154,-1.476279 -0.850154,-1.476279 0,0 -0.783213,0.723131 -0.751402,2.000493 0.03108,1.248376 0.253958,1.672038 0.701483,2.046873 0.179998,0.150758 0.214207,0.562606 0.110682,0.682613 -0.103532,0.11998 0.341497,0.17693 0.356913,0.169368 0.01541,-0.0076 0.435044,-1.059896 0.435044,-1.059896 z"
       id="path3999" />
    <path
       style="color:#000000;fill:#ffeeaa;fill-opacity:1;stroke:none;stroke-width:0.23673876;stroke-linecap:round;stroke-linejoin:round"
       d="m 29.16503,36.076195 c -0.04013,-0.0062 -0.225296,0.081 -0.217351,-0.101319 0.0079,-0.182322 0.791316,-1.128885 0.763854,-2.171645 -0.02741,-1.042761 -0.474452,-1.696001 -0.474452,-1.696001 0,0 -0.921009,0.440455 -1.187191,1.67893 -0.260131,1.210371 -0.144267,1.690268 0.198943,2.196253 0.13804,0.203515 0.07525,0.610622 -0.05216,0.692275 -0.127415,0.08168 0.287238,0.281219 0.303812,0.278958 0.01658,-0.0023 0.664506,-0.877534 0.664506,-0.877534 z"
       id="path4001" />
    <path
       style="color:#000000;fill:#ffeeaa;fill-opacity:1;stroke:none;stroke-width:0.23673876;stroke-linecap:round;stroke-linejoin:round"
       d="m 26.009445,37.62346 c -0.03771,-0.01736 -0.235116,0.01507 -0.190662,-0.159745 0.04446,-0.174817 0.995997,-0.872961 1.179524,-1.893369 0.183539,-1.020409 -0.118947,-1.780965 -0.118947,-1.780965 0,0 -0.983218,0.167797 -1.491276,1.295399 -0.496563,1.102024 -0.480766,1.60073 -0.24944,2.189038 0.09304,0.236599 -0.04998,0.614236 -0.190183,0.65762 -0.140199,0.04336 0.222272,0.35417 0.238825,0.356656 0.01656,0.0025 0.822203,-0.664641 0.822203,-0.664641 z"
       id="path4003" />
    <path
       style="color:#000000;fill:#ffeeaa;fill-opacity:1;stroke:none;stroke-width:0.23673876;stroke-linecap:round;stroke-linejoin:round"
       d="m 37.550194,20.012216 c 0,0 0.03841,-0.337294 0.40748,-0.35868 0.369067,-0.02138 1.311501,0.220173 1.645058,-0.866519 0.232795,-0.75843 0.582775,-2.338482 0.484072,-3.042159 -0.656348,0.152839 -1.391763,0.46729 -1.896341,1.25894 -0.292605,0.459103 -0.526542,1.873465 -0.774078,1.362456 -0.04456,-0.158759 -0.382036,0.261405 -0.382036,0.261405 l 0.08915,0.756175 z"
       id="path4005" />
    <path
       style="color:#000000;fill:#ffeeaa;fill-opacity:1;stroke:none;stroke-width:0.23673876;stroke-linecap:round;stroke-linejoin:round"
       d="m 37.334855,23.723202 c 0,0 0.103629,-0.317479 0.46678,-0.236734 0.36315,0.08075 1.232326,0.574981 1.770238,-0.390133 0.375418,-0.673595 1.026231,-2.114058 1.068483,-2.825594 -0.668366,-0.03193 -1.445435,0.07157 -2.091724,0.702711 -0.374787,0.366016 -0.88017,1.677255 -1.020521,1.112137 -0.01215,-0.166663 -0.422923,0.149135 -0.422923,0.149135 l -0.06185,0.759976 z"
       id="path4007" />
    <path
       style="color:#000000;fill:#ffeeaa;fill-opacity:1;stroke:none;stroke-width:0.23673876;stroke-linecap:round;stroke-linejoin:round"
       d="m 36.446311,27.458667 c 0,0 0.150764,-0.289832 0.49541,-0.132155 0.34465,0.157677 1.123187,0.831026 1.800689,-0.002 0.472816,-0.581383 1.334449,-1.85749 1.485566,-2.548026 -0.65227,-0.175468 -1.432275,-0.241211 -2.164862,0.240064 -0.424854,0.279107 -1.123623,1.459466 -1.17463,0.873541 0.01371,-0.166495 -0.438802,0.05548 -0.438802,0.05548 l -0.177785,0.733887 z"
       id="path4009" />
    <path
       style="color:#000000;fill:#ffeeaa;fill-opacity:1;stroke:none;stroke-width:0.23673876;stroke-linecap:round;stroke-linejoin:round"
       d="m 35.006912,30.926807 c 0,0 0.189025,-0.256503 0.507036,-0.03384 0.318011,0.222665 0.992299,1.038509 1.776382,0.348817 0.547265,-0.481333 1.574693,-1.572129 1.819722,-2.223822 -0.61899,-0.300152 -1.379202,-0.516955 -2.168723,-0.18497 -0.457889,0.192526 -1.311337,1.220613 -1.280124,0.632775 0.03669,-0.161555 -0.440531,-0.03077 -0.440531,-0.03077 l -0.277461,0.689248 z"
       id="path4011" />
    <path
       style="color:#000000;fill:#ffeeaa;fill-opacity:1;stroke:none;stroke-width:0.23673876;stroke-linecap:round;stroke-linejoin:round"
       d="m 32.801864,33.87318 c 0,0 0.23026,-0.203921 0.501766,0.09268 0.271507,0.296602 0.786313,1.261516 1.67513,0.781684 0.62035,-0.334897 1.818145,-1.146663 2.173237,-1.723055 -0.552051,-0.447019 -1.257014,-0.847581 -2.087808,-0.718814 -0.481816,0.07467 -1.4984,0.868259 -1.363759,0.301188 0.06449,-0.148865 -0.425294,-0.139357 -0.425294,-0.139357 l -0.393379,0.605121 z"
       id="path4013" />
    <path
       style="color:#000000;fill:#ffeeaa;fill-opacity:1;stroke:none;stroke-width:0.23673876;stroke-linecap:round;stroke-linejoin:round"
       d="m 29.905665,36.344809 c 0,0 0.279565,-0.158862 0.531299,0.184287 0.251735,0.343148 0.67065,1.391378 1.705201,1.081732 0.722038,-0.216128 2.140229,-0.7965 2.609298,-1.30023 -0.534486,-0.543572 -1.241678,-1.069494 -2.162361,-1.095904 -0.533915,-0.0153 -1.752673,0.580623 -1.524283,0.04541 0.09161,-0.135118 -0.441505,-0.216256 -0.441505,-0.216256 l -0.514861,0.524981 z"
       id="path4015" />
    <path
       d="m 15.497537,40.436492 c 0,0 1.100839,-1.41766 5.002224,-1.455923 3.901386,-0.03831 6.977306,-0.268201 11.526067,-4.348702 4.548925,-4.080475 5.527575,-10.709749 5.527575,-14.123135 0,-3.413644 -1.276808,-9.224324 -5.245024,-12.9481942 -1.519988,-1.4263562 -3.906824,-2.9880497 -4.349247,-3.0924675 -0.321475,-0.075882 -0.313449,0.1250888 -0.124179,0.2526061 0.685985,0.4621824 1.075716,0.6228737 2.262961,1.5570555 1.051246,0.8271617 2.168941,1.9003911 3.012787,2.971044 1.796937,2.2797351 4.419449,6.9923211 3.690941,14.0419721 -0.728455,7.049651 -4.678455,10.651131 -6.815258,12.222229 -2.136857,1.570905 -5.180313,3.046024 -9.405305,2.950238 -4.225155,-0.09579 -6.345971,1.877394 -6.345971,1.877394 z"
       id="path4017"
       style="fill:#ffeeaa;fill-opacity:1;stroke:none;stroke-width:0.23673876;stroke-linecap:round;stroke-linejoin:round" />
  </g>
  <g
     transform="matrix(0.26458333,0,0,0.26458333,43.410801,4.5666785)"
     id="css" />
  <g
     transform="matrix(0.26458333,0,0,0.26458333,43.410801,4.5666785)"
     id="mobile_development" />
  <g
     transform="matrix(0.26458333,0,0,0.26458333,43.410801,4.5666785)"
     id="code" />
  <g
     transform="matrix(0.26458333,0,0,0.26458333,43.410801,4.5666785)"
     id="hardware_programming" />
  <g
     transform="matrix(0.26458333,0,0,0.26458333,43.410801,4.5666785)"
     id="python" />
  <g
     transform="matrix(0.26458333,0,0,0.26458333,43.410801,4.5666785)"
     id="development" />
  <g
     transform="matrix(0.26458333,0,0,0.26458333,43.410801,4.5666785)"
     id="update" />
  <g
     transform="matrix(0.26458333,0,0,0.26458333,43.410801,4.5666785)"
     id="maintenance" />
  <g
     transform="matrix(0.26458333,0,0,0.26458333,43.410801,4.5666785)"
     id="peformance_testing" />
  <g
     transform="matrix(0.26458333,0,0,0.26458333,43.410801,4.5666785)"
     id="programming" />
  <g
     transform="matrix(0.26458333,0,0,0.26458333,43.410801,4.5666785)"
     id="hacker" />
  <g
     transform="matrix(0.26458333,0,0,0.26458333,43.410801,4.5666785)"
     id="web_programming" />
  <g
     transform="matrix(0.26458333,0,0,0.26458333,43.410801,4.5666785)"
     id="html" />
  <g
     transform="matrix(0.26458333,0,0,0.26458333,43.410801,4.5666785)"
     id="typing" />
  <g
     transform="matrix(0.26458333,0,0,0.26458333,43.410801,4.5666785)"
     id="search_1_" />
  <g
     transform="matrix(0.26458333,0,0,0.26458333,43.410801,4.5666785)"
     id="android" />
  <g
     transform="matrix(0.26458333,0,0,0.26458333,43.410801,4.5666785)"
     id="coding" />
  <g
     transform="matrix(0.26458333,0,0,0.26458333,43.410801,4.5666785)"
     id="file" />
  <g
     transform="matrix(0.26458333,0,0,0.26458333,43.410801,4.5666785)"
     id="api" />
  <g
     transform="matrix(0.26458333,0,0,0.26458333,43.410801,4.5666785)"
     id="java" />
  <g
     transform="matrix(0.26458333,0,0,0.26458333,43.410801,4.5666785)"
     id="xml" />
  <g
     transform="matrix(0.26458333,0,0,0.26458333,43.410801,4.5666785)"
     id="security" />
  <g
     transform="matrix(0.26458333,0,0,0.26458333,43.410801,4.5666785)"
     id="algorithm" />
  <g
     transform="matrix(0.26458333,0,0,0.26458333,43.410801,4.5666785)"
     id="php" />
  <g
     transform="matrix(0.26458333,0,0,0.26458333,43.410801,4.5666785)"
     id="eror" />
  <g
     transform="matrix(0.26458333,0,0,0.26458333,43.410801,4.5666785)"
     id="bug" />
  <g
     transform="matrix(0.26458333,0,0,0.26458333,43.410801,4.5666785)"
     id="c_x2B__x2B_" />
  <g
     transform="matrix(0.26458333,0,0,0.26458333,43.410801,4.5666785)"
     id="search"
     style="display:inline" />
  <g
     transform="matrix(0.26458333,0,0,0.26458333,43.410801,4.5666785)"
     id="database_sql"
     style="display:inline" />
  <g
     transform="matrix(0.9556075,0,0,1,37.503101,17.109798)"
     id="g5664"
     style="display:inline;fill:#fff6d5">
    <g
       id="g5584"
       transform="matrix(0.56894734,0,0,0.65531692,1.8698197,-7.6710054)"
       style="fill:#fff6d5">
      <g
         style="fill:#fff6d5;fill-opacity:1"
         transform="matrix(0.50874609,0,0,0.51471155,-18.207248,18.249748)"
         id="g4409" />
    </g>
  </g>
  <style
     type="text/css"
     id="style5283">
	.st0{display:none;}
	.st1{display:inline;fill:#EFF0EB;}
	.st2{display:inline;fill:#F1565C;}
	.st3{display:inline;fill:#6ED6D7;}
	.st4{display:inline;fill:#474946;}
	.st5{fill:#6ED6D7;}
	.st6{fill:#474946;}
	.st7{fill:#F1565C;}
</style>
  <g
     transform="matrix(0.24175217,0,0,0.24860152,-18.896813,-37.94835)"
     class="st0"
     id="background"
     style="display:none">
    <rect
       height="500"
       width="600"
       class="st1"
       y="-186"
       x="-236"
       id="bg"
       style="display:inline;fill:#eff0eb" />
  </g>
  <g
     transform="matrix(0.24175217,0,0,0.24860152,-18.896813,-37.94835)"
     class="st0"
     id="row3"
     style="display:none">
    <g
       id="icon:5_2_">
      <path
         d="m 118.1,22.9 c 0,53.1 -39.3,92 -50.1,101.8 -0.5,0.5 -1,0.9 -1.4,1.2 -0.4,-0.3 -0.9,-0.7 -1.4,-1.2 C 54.4,114.9 15.1,76 15.1,22.9 c 0,0 29.2,10.4 37.4,-21.3 h 29.8 c 8.1,31.7 35.8,21.3 35.8,21.3 z"
         class="st2"
         id="Shape_51_"
         style="display:inline;fill:#f1565c" />
      <path
         d="M 84.8,13.8 23.3,65.4 C 18.7,53.1 14.1,37.7 14.1,22.9 c 0,0 28.9,10.4 37,-21.3 h 29.6 c 1.3,5.1 1.7,9.1 4.1,12.2 z M 42.4,99.3 c 9.3,12.6 18.4,21.4 22.8,25.4 0.5,0.5 1,0.9 1.4,1.2 0.4,-0.3 0.8,-0.7 1.4,-1.2 9.9,-8.9 43.8,-42.4 49.3,-88.9 z"
         class="st3"
         id="Shape_49_"
         style="display:inline;fill:#6ed6d7" />
      <path
         d="m 64,128 -1.4,-1.1 c -0.3,-0.3 -0.8,-0.6 -1.2,-1 C 57.6,122.6 47.5,113.6 37.2,100.3 28.3,88.7 21.3,76.7 16.4,64.4 10.9,50.7 8.2,36.7 8.2,22.9 v -2.2 l 2.1,0.7 c 0.1,0 13,4.3 23.8,-1.5 C 40.5,16.5 45,10.2 47.4,1.2 L 47.9,0 H 81.7 L 82,1.2 c 1.2,4.6 3.1,8.5 5.6,11.6 12.2,15.3 29.6,8.7 29.8,8.6 l 2.2,-0.9 v 2.4 c 0,4.3 -0.3,8.7 -0.8,12.9 v 0.1 c -5.9,47 -41.6,80.7 -52.4,89.9 -0.3,0.3 -0.6,0.5 -0.9,0.8 z M 11.6,25 c 0.3,12.7 3,25.5 8,38.2 4.8,12 11.6,23.8 20.3,35.1 10.1,13 19.9,21.9 23.7,25.1 0.1,0.1 0.3,0.2 0.4,0.3 0.1,-0.1 0.2,-0.2 0.4,-0.3 10.6,-9 45.5,-42 51.3,-87.8 v -0.1 c 0.4,-3.4 0.7,-6.9 0.8,-10.5 C 110.9,26.4 96.2,28.5 85.2,14.7 82.6,11.5 80.7,7.6 79.3,3.1 H 50.4 C 47.7,12.3 42.7,18.9 35.8,22.6 26.4,27.7 16,26.1 11.6,25 Z"
         class="st4"
         id="Shape_50_"
         style="display:inline;fill:#474946" />
    </g>
    <g
       id="icon:4_2_">
      <path
         d="M 96.3,114 H 77.5 L 66.7,125.7 55.5,114 H 37.1 c -7.2,0 -13.2,-6.3 -13.2,-14 V 1.7 h 85.6 V 100 c 0,7.6 -6,14 -13.2,14 z"
         class="st3"
         id="Shape_48_"
         style="display:inline;fill:#6ed6d7" />
      <rect
         height="26.9"
         width="90.900002"
         class="st2"
         y="15.2"
         x="18.5"
         id="Shape_47_"
         style="display:inline;fill:#f1565c" />
      <path
         d="M 64,128 51.4,115.6 H 32.5 c -8.6,0 -15.6,-7 -15.6,-15.7 V 0 h 94.3 v 99.9 c 0,8.7 -7,15.7 -15.6,15.7 H 76.2 Z M 20.2,3.3 v 96.6 c 0,6.8 5.5,12.4 12.3,12.4 h 20.3 l 11.2,11 10.8,-11 h 20.7 c 6.8,0 12.3,-5.6 12.3,-12.4 V 3.3 Z"
         class="st4"
         id="Shape_46_"
         style="display:inline;fill:#474946" />
    </g>
    <g
       id="icon:3_2_">
      <path
         d="m 111,73 c 0,30.3 -44.9,51.3 -49.2,53.3 -0.1,0 -0.1,0 -0.2,0.1 0,0 -0.1,0 -0.2,-0.1 -4.3,-1.9 -49.2,-23 -49.2,-53.3 0,-15.2 20,-34.5 3.7,-50.1 V 12.4 L 61.4,1.7 h 0.2 0.2 l 45.6,10.7 V 22.9 C 91,38.5 111,57.8 111,73 Z"
         class="st3"
         id="Shape_45_"
         style="display:inline;fill:#6ed6d7" />
      <path
         d="m 64.2,126.3 c -0.1,0 -0.1,0 -0.2,0.1 0,0 -0.1,0 -0.2,-0.1 C 59.3,124.4 12.2,103.3 12.2,73 12.2,57.8 33.1,38.5 16,22.9 V 12.4 L 63.8,1.7 h 0.2 0.2 z"
         class="st2"
         id="Shape_44_"
         style="display:inline;fill:#f1565c" />
      <path
         d="m 64.1,128 -0.6,-0.1 c 0,0 0,0 0,0 l -0.3,-0.1 C 57.8,125.5 10.6,104.1 10.6,73 10.6,67.4 13.1,61.6 15.8,55.5 20.7,44.2 25.3,33.6 15,24.2 L 14.5,23.7 V 11.1 L 64,0 l 0.5,0.1 49,11 v 12.5 l -0.5,0.5 c -10.3,9.4 -5.7,20.1 -0.8,31.3 2.7,6.1 5.2,11.9 5.2,17.5 0,31.1 -47.2,52.4 -52.6,54.8 z M 17.6,22.2 c 11.4,10.9 5.9,23.4 1.1,34.5 -2.5,5.8 -4.9,11.3 -4.9,16.2 0,12.1 7.9,24.2 23.5,36 11.4,8.6 23.4,14.2 26.7,15.6 3.3,-1.5 15.3,-7 26.7,-15.6 15.6,-11.7 23.5,-23.8 23.5,-36 0,-4.9 -2.4,-10.4 -4.9,-16.2 C 104.5,45.6 99,33 110.4,22.2 V 13.7 L 64,3.3 17.6,13.7 Z"
         class="st4"
         id="Shape_43_"
         style="display:inline;fill:#474946" />
    </g>
    <g
       id="icon:2_2_">
      <path
         d="m 116.8,2.3 c 0,85.9 -41,117.6 -49.5,123.2 -0.3,0.2 -0.6,0.4 -0.8,0.5 -0.2,-0.1 -0.5,-0.3 -0.8,-0.5 C 57.2,119.9 16.3,88.2 16.3,2.3 c 0,0 22.1,7.8 50.2,7.9 28.2,-0.1 50.3,-7.9 50.3,-7.9 z"
         class="st3"
         id="Shape_42_"
         style="display:inline;fill:#6ed6d7" />
      <path
         d="m 103.6,14.7 c 0,66.4 -33.7,91 -40.6,95.3 -0.2,0.2 -0.5,0.3 -0.6,0.4 -0.2,-0.1 -0.4,-0.2 -0.6,-0.4 -6.9,-4.3 -40.6,-28.9 -40.6,-95.3 0,0 18.1,6 41.2,6.1 23.1,-0.1 41.2,-6.1 41.2,-6.1 z"
         class="st2"
         id="Shape_41_"
         style="display:inline;fill:#f1565c" />
      <path
         d="m 64,128 -0.9,-0.6 c -0.2,-0.1 -0.5,-0.3 -0.8,-0.6 C 53.5,121.3 9.5,89.2 9.5,2.3 V 0 l 2.2,0.7 C 12,0.8 35,8.4 64,8.5 93,8.4 116.1,0.8 116.3,0.7 L 118.5,0 v 2.3 c 0,86.9 -44,119.1 -52.8,124.6 -0.3,0.2 -0.6,0.4 -0.8,0.5 z M 12.9,4.5 C 13.6,87.8 55.3,118.6 64,124.1 72.8,118.5 114.4,87.7 115.2,4.6 108.7,6.5 88.4,11.8 64.1,11.9 39.6,11.7 19.4,6.4 12.9,4.5 Z"
         class="st4"
         id="Shape_40_"
         style="display:inline;fill:#474946" />
    </g>
    <g
       id="icon:1_2_">
      <path
         d="m 117.9,72.3 c 0,27.3 -47.2,49.1 -52.4,51.4 -0.1,0 -0.2,0.1 -0.2,0.1 -0.1,0 -0.1,-0.1 -0.2,-0.1 -5.2,-2.3 -52.4,-24.1 -52.4,-51.4 0,-29 17,-30.4 4.7,-59.4 V 0.8 h 95.8 v 12.1 c -12.3,29 4.7,30.4 4.7,59.4 z"
         class="st3"
         id="Shape_53_"
         style="display:inline;fill:#6ed6d7" />
      <path
         d="m 104.4,72.6 c 0,20.9 -36.2,37.5 -40.2,39.3 -0.1,0 -0.1,0.1 -0.2,0.1 -0.1,0 -0.1,0 -0.2,-0.1 -4,-1.8 -40.2,-18.4 -40.2,-39.3 0,-22.1 13.1,-28.4 3.6,-50.5 v -9.2 h 73.6 v 9.2 c -9.4,22.2 3.6,28.4 3.6,50.5 z"
         class="st2"
         id="Shape_39_"
         style="display:inline;fill:#f1565c" />
      <path
         d="m 64.3,128 -1.2,-0.3 C 57.4,125.2 7.8,102.7 7.8,74 c 0,-12.3 3,-19.9 5.7,-26.5 3.7,-9.1 6.6,-16.3 -0.7,-33 L 12.7,14.2 V 0 h 102.6 v 14.3 l -0.1,0.3 c -7.2,16.7 -4.3,23.9 -0.7,33 2.7,6.6 5.7,14.1 5.7,26.5 0,28.7 -49.6,51.2 -55.3,53.7 z M 16,13.6 c 7.6,17.7 4.3,25.9 0.6,35.3 -2.6,6.3 -5.4,13.5 -5.4,25.2 0,26 45.7,47.2 52.8,50.4 6.6,-2.9 52.8,-24.3 52.8,-50.4 0,-11.7 -2.9,-18.9 -5.4,-25.2 -3.8,-9.4 -7.1,-17.5 0.6,-35.3 V 3.4 H 16 Z m 51.8,74.9 v 0 c 0,-1.6 1.3,-3 3,-3 H 74 c 1.6,0 3,-1.3 3,-3 v -0.8 c 0,-1.6 -1.3,-3 -3,-3 h -3.2 c -1.6,0 -3,-1.3 -3,-3 v -12 h 11.5 c 1.6,0 3,1.3 3,3 v 3.2 c 0,1.6 1.3,3 3,3 h 0.8 c 1.6,0 3,-1.3 3,-3 v -3.2 c 0,-1.6 1.3,-3 3,-3 h 0.6 c 1.6,0 3,-1.3 3,-3 v -0.8 c 0,-1.6 -1.3,-3 -3,-3 h -0.6 c -1.6,0 -3,-1.3 -3,-3 v -2.3 c 0,-1.6 -1.3,-3 -3,-3 h -0.8 c -1.6,0 -3,1.3 -3,3 V 54 c 0,1.6 -1.3,3 -3,3 H 67.8 V 46.3 c 0,-1.6 1.3,-3 3,-3 H 74 c 1.6,0 3,-1.3 3,-3 v -0.8 c 0,-1.6 -1.3,-3 -3,-3 h -3.2 c -1.6,0 -3,-1.3 -3,-3 V 33 c 0,-1.6 -1.3,-3 -3,-3 H 64 c -1.6,0 -3,1.3 -3,3 v 0.6 c 0,1.6 -1.3,3 -3,3 h -2.3 c -1.6,0 -3,1.3 -3,3 v 0.8 c 0,1.6 1.3,3 3,3 H 58 c 1.6,0 3,1.3 3,3 V 57 H 49.8 c -1.6,0 -3,-1.3 -3,-3 v -2.3 c 0,-1.6 -1.3,-3 -3,-3 H 43 c -1.6,0 -3,1.3 -3,3 V 54 c 0,1.6 -1.3,3 -3,3 v 0 c -1.6,0 -3,1.3 -3,3 v 0.8 c 0,1.6 1.3,3 3,3 v 0 c 1.6,0 3,1.3 3,3 V 70 c 0,1.6 1.3,3 3,3 h 0.8 c 1.6,0 3,-1.3 3,-3 v -3.2 c 0,-1.6 1.3,-3 3,-3 h 11.3 v 12.1 c 0,1.6 -1.3,3 -3,3 h -2.3 c -1.6,0 -3,1.3 -3,3 v 0.8 c 0,1.6 1.3,3 3,3 h 2.3 c 1.6,0 3,1.3 3,3 v 0 c 0,1.6 1.3,3 3,3 h 0.8 c 1.6,-0.2 2.9,-1.5 2.9,-3.2 z"
         class="st4"
         id="Shape_37_"
         style="display:inline;fill:#474946" />
    </g>
  </g>
  <g
     transform="matrix(0.24175217,0,0,0.24860152,-18.896813,-37.94835)"
     id="row2">
    <g
       class="st0"
       id="icon:5_1_"
       style="display:none">
      <path
         d="m 115,15.3 c -13.8,15.7 -3.1,27.2 -3.1,56.7 0,27.5 -39.8,50.8 -45.4,54 -0.1,0.1 -0.2,0.1 -0.3,0.2 -0.1,0 -0.2,-0.1 -0.3,-0.2 -5.6,-3.1 -45.4,-26.5 -45.4,-54 0,-29.6 9.1,-41 -4.7,-56.7 -5.3,-6 2.1,-10 6.8,-6.9 4.7,3 24,14.2 43.3,-0.6 0.1,-0.1 0.2,-0.1 0.3,-0.2 0.1,0.1 0.2,0.2 0.3,0.2 19.3,14.8 38.6,3.5 43.3,0.6 4.7,-3 10.5,0.9 5.2,6.9 z"
         class="st3"
         id="Shape_35_"
         style="display:inline;fill:#6ed6d7" />
      <path
         d="m 64,128 -1.1,-0.5 c -5.1,-2.8 -49.3,-28 -49.3,-58 0,-10.2 1,-18.2 1.9,-25.3 C 17.3,30.1 18.4,21.7 8.9,11.1 4.9,6.6 7,3.3 7.8,2.4 c 2.3,-2.8 7,-3.2 10.5,-1.1 7.2,4.5 25.9,13.4 44.4,-0.5 L 63.8,0 64.9,0.5 c 0.1,0.1 0.2,0.2 0.3,0.2 l 0.2,0.1 c 18.5,14 37.2,5 44.4,0.5 3.4,-2.1 8.2,-1.6 10.5,1.1 0.8,0.9 2.9,4.1 -1.1,8.6 v 0 c -9.5,10.5 -8.4,19 -6.6,33.1 0.9,7.1 1.9,15.1 1.9,25.3 0,30 -44.2,55.2 -49.3,58 z M 13.6,3.3 C 12.2,3.3 11,3.8 10.3,4.6 9.1,6 10.5,8 11.4,9 c 10.4,11.6 9.2,21.2 7.4,35.6 -0.9,7 -1.9,14.9 -1.9,24.9 0,27.4 40.7,51.3 47.2,54.9 6.3,-3.5 47.2,-27.4 47.2,-54.9 0,-10 -1,-17.9 -1.9,-24.9 -1.9,-14.5 -3.1,-24 7.4,-35.6 v 0 c 0.9,-1 2.3,-3 1.1,-4.4 C 116.8,3.3 113.8,2.8 111.6,4.2 103.8,8.9 83.9,18.4 64,3.9 44.1,18.4 24.2,8.9 16.6,4.1 c -1,-0.6 -2,-0.8 -3,-0.8 z"
         class="st4"
         id="Shape_34_"
         style="display:inline;fill:#474946" />
      <path
         d="M 101.5,26.1 C 91.2,37.6 98,46.1 98,67.8 98,88 68.5,105.2 64.3,107.5 c -0.1,0.1 -0.2,0.1 -0.2,0.1 -0.1,0 -0.1,-0.1 -0.2,-0.1 -4.2,-2.3 -33.7,-19.4 -33.7,-39.7 0,-21.7 6.8,-30.2 -3.5,-41.7 -3.9,-4.4 1.5,-7.3 5.1,-5.1 3.5,2.2 17.9,10.5 32.2,-0.4 0.1,-0.1 0.2,-0.1 0.2,-0.2 0.1,0.1 0.2,0.1 0.2,0.2 14.3,10.9 28.7,2.6 32.2,0.4 3.3,-2.2 8.8,0.7 4.9,5.1 z"
         class="st2"
         id="Shape_36_"
         style="display:inline;fill:#f1565c" />
    </g>
    <g
       class="st0"
       id="icon:4_1_"
       style="display:none">
      <path
         d="m 122.7,2.8 c 0,100.6 -45.5,118.6 -55.9,121.4 -0.4,0.1 -0.7,0.2 -1,0.3 h -0.1 c -0.3,-0.1 -0.6,-0.2 -1,-0.3 C 54.4,121.4 8.9,103.4 8.9,2.8 c 2.1,0 35.5,25.4 35.5,0 h 42.7 c 0.1,25.4 33.5,0 35.6,0 z"
         class="st3"
         id="Shape_33_"
         style="display:inline;fill:#6ed6d7" />
      <path
         d="m 99.5,100.5 c -1.2,1.7 -2.5,3.2 -3.7,4.7 -3.7,4.3 -7.4,7.8 -10.9,10.5 L 6.6,42.3 C 5.5,35.2 4.6,27.5 4.2,19.2 4,16.6 3.9,14 3.8,11.3 32.4,37.7 88.4,90.2 99.5,100.5 Z M 41.3,2.8 C 41,12.4 35.3,14.3 28.4,13 24.6,12.3 20.4,10.5 16.5,8.7 L 105,91.9 c 0.8,-1.4 1.7,-2.9 2.5,-4.5 2.4,-4.7 4.7,-10 6.7,-15.9 z"
         class="st2"
         id="Shape_32_"
         style="display:inline;fill:#f1565c" />
      <path
         d="m 64.3,128 -0.8,-0.1 c -0.2,0 -0.3,-0.1 -0.5,-0.1 l -0.5,-0.1 C 51.7,124.9 15.6,110.4 4.9,42.6 3.7,35.3 2.9,27.5 2.4,19.3 2.3,16.7 2.1,14.1 2,11.4 2,8.1 1.9,4.8 1.9,1.8 V 0 h 1.8 c 0.8,0 1.7,0.5 5,2.4 2.3,1.3 5.4,3 8.7,4.6 4.4,2.2 8.3,3.6 11.4,4.2 3.6,0.7 6.3,0.3 8,-1 1.7,-1.4 2.6,-3.9 2.8,-7.4 0,-0.4 0,-0.7 0,-1 V 0 h 48.8 v 1.8 c 0,4.6 1.2,7.5 3.5,8.9 6.4,3.7 21.2,-4.7 27.5,-8.3 3.3,-1.9 4.1,-2.3 4.9,-2.3 h 1.8 v 1.8 c 0,27.3 -3.4,50.9 -10.1,70.3 -2,5.7 -4.3,11.1 -6.8,16.1 -0.9,1.7 -1.7,3.2 -2.5,4.6 -1.8,3.1 -3.7,6.1 -5.7,8.8 -1.2,1.6 -2.5,3.2 -3.8,4.8 -3.5,4.1 -7.2,7.7 -11.2,10.8 -8.8,6.8 -16.5,9.5 -20.3,10.5 l -0.5,0.1 c -0.2,0 -0.4,0.1 -0.5,0.1 z M 5.5,4.6 c 0,2.2 0.1,4.4 0.1,6.7 0.1,2.7 0.2,5.3 0.3,7.9 0.5,8 1.3,15.7 2.4,22.9 10.3,65.7 44.7,79.6 55,82.2 l 0.4,0.1 c 0.1,0 0.2,0 0.2,0.1 0.1,0 0.2,0 0.2,-0.1 l 0.4,-0.1 c 3.6,-0.9 10.8,-3.4 19,-9.8 3.8,-2.9 7.3,-6.4 10.7,-10.3 1.3,-1.5 2.5,-3.1 3.7,-4.6 1.9,-2.6 3.8,-5.5 5.5,-8.5 0.8,-1.3 1.6,-2.7 2.4,-4.4 2.5,-4.9 4.7,-10.1 6.6,-15.7 6.4,-18.3 9.7,-40.6 9.9,-66.3 -0.5,0.3 -0.9,0.5 -1.4,0.8 -8,4.6 -22.8,13.1 -31,8.3 C 86.8,12 85.1,8.6 84.7,3.6 H 43.1 C 42.9,7.9 41.5,11.1 39,13 36.4,15 32.8,15.6 28.1,14.7 24.6,14 20.5,12.5 15.8,10.2 12.4,8.5 9.3,6.7 7,5.4 6.5,5.2 5.9,4.9 5.5,4.6 Z"
         class="st4"
         id="Shape_29_"
         style="display:inline;fill:#474946" />
    </g>
    <g
       class="st0"
       id="icon:3_1_"
       style="display:none">
      <path
         d="m 114.6,6.4 c 0,0 0,30.4 0,64.1 0,30.5 -40.4,51.3 -48.1,55.1 -0.3,0.1 -0.5,0.2 -0.6,0.3 -0.2,-0.1 -0.4,-0.2 -0.6,-0.3 -7.7,-3.7 -48.1,-24.6 -48.1,-55.1 0,-33.7 0,-64.1 0,-64.1 z"
         class="st3"
         id="Shape_27_"
         style="display:inline;fill:#6ed6d7" />
      <path
         d="m 64,128 -0.6,-0.3 C 63.2,127.6 63,127.5 62.7,127.4 54,123.3 10.6,101.1 10.6,68.5 V 0 h 106.8 v 68.5 c 0,32.6 -43.4,54.8 -52,58.9 -0.3,0.2 -0.5,0.3 -0.7,0.3 z M 13.8,3.2 v 65.2 c 0,30.6 41.7,52 50.2,56 8.7,-4.2 50.2,-25.5 50.2,-56 V 3.2 Z"
         class="st4"
         id="Shape_28_"
         style="display:inline;fill:#474946" />
      <path
         d="m 100.4,16.8 c 0,0 0,25.8 0,50.4 0,22.3 -30.2,37.5 -36,40.3 -0.2,0.1 -0.3,0.2 -0.5,0.2 -0.1,-0.1 -0.3,-0.1 -0.5,-0.2 -5.8,-2.7 -36,-18 -36,-40.3 0,-24.6 0,-50.4 0,-50.4 z"
         class="st2"
         id="Shape_26_"
         style="display:inline;fill:#f1565c" />
    </g>
    <g
       class="st0"
       id="icon:2_1_"
       style="display:none">
      <path
         d="M 111.2,75.1 C 105.8,103.3 70.1,122 66.4,123.8 62.7,121.9 27,103.3 21.6,75.1 15.9,45.3 17,12.2 17,12.2 17,12.2 30.3,4 66.7,4 c 35.9,0.1 49.1,8.2 49.1,8.2 0,0 1.1,33.1 -4.6,62.9 z"
         class="st3"
         id="Shape_25_"
         style="display:inline;fill:#6ed6d7" />
      <path
         d="m 98.5,71.2 c -4.2,22.6 -31.8,37.5 -34.7,39 -2.9,-1.5 -30.5,-16.4 -34.7,-39 -4.4,-23.8 -3.6,-50.3 -3.6,-50.3 0,0 10.4,-6.6 38.5,-6.6 27.8,0.1 38,6.6 38,6.6 0,0 1,26.5 -3.5,50.3 z"
         class="st2"
         id="Shape_24_"
         style="display:inline;fill:#f1565c" />
      <path
         d="m 64,128 -0.7,-0.4 C 59,125.5 21.3,105.8 15.5,75.8 9.5,45 10.6,10.4 10.6,10.1 V 9.2 L 11.3,8.8 C 11.9,8.4 26.2,0 64.3,0 c 37.6,0.1 51.8,8.4 52.3,8.8 l 0.7,0.4 v 0.9 c 0,0.3 1.1,35 -4.9,65.7 v 0 c -5.8,30 -43.5,49.7 -47.8,51.8 z M 13.7,11.1 c -0.1,5.7 -0.5,36.5 4.9,64.1 5.3,27.3 38.9,45.8 45.4,49.2 6.5,-3.4 40.1,-21.9 45.4,-49.2 v 0 c 5.4,-27.6 5,-58.4 4.9,-64.1 C 111,9.5 96.3,3.3 64.4,3.2 32,3.2 17.1,9.5 13.7,11.1 Z m 79.7,44.8 c -1.4,-1.6 -7,-2 -7,-2 0,0 3.8,-3.3 0.4,-7.6 0,0 -1,4.2 -5.8,4.2 H 70 V 40.1 c 0,-5.5 4.9,-7.9 4.9,-7.9 0,0 -3.9,-2.3 -6.3,0 -0.5,-2.1 -1.1,-5.4 -2.8,-7.6 -1.4,1.6 -1.8,7.8 -1.8,7.8 0,0 -2.9,-4.2 -6.8,-0.5 0,0 3.8,1.1 3.8,6.5 v 12.2 h -9.4 c -5,0 -7.1,-5.5 -7.1,-5.5 0,0 -2.1,4.4 0,7 -1.8,0.6 -4.9,1.2 -6.9,3.1 1.4,1.6 7,2 7,2 0,0 -3.8,3.3 -0.4,7.6 0,0 1,-4.2 5.8,-4.2 h 11 v 10.5 c 0,5.5 -4.9,7.9 -4.9,7.9 0,0 3.9,2.3 6.3,0 0.5,2.1 1.1,5.4 2.8,7.6 1.4,-1.6 1.8,-7.8 1.8,-7.8 0,0 2.9,4.2 6.8,0.5 0,0 -3.8,-1.1 -3.8,-6.5 V 60.5 h 9.4 c 4.9,0 7.1,5.5 7.1,5.5 0,0 2.1,-4.4 0,-7 1.8,-0.6 4.8,-1.2 6.9,-3.1 z"
         class="st4"
         id="Shape_22_"
         style="display:inline;fill:#474946" />
    </g>
    <g
       class="st0"
       id="icon:1_1_"
       style="display:none">
      <path
         d="M 64.6,6.3 C 40.7,15.1 27,33.4 27,33.4 c 0,50 37.8,92.3 37.8,92.3 0,0 37.8,-42.3 37.8,-92.3 0,0 -14,-18.3 -38,-27.1 z"
         class="st3"
         id="Shape_21_"
         style="display:inline;fill:#6ed6d7" />
      <path
         d="M 102.6,42 C 102,47.3 101,52.4 99.8,57.4 92.8,56.8 83.1,56.1 71.7,55.9 v 60 c -2.8,3.9 -5.2,6.8 -6.5,8.4 l -0.2,0.3 -1,1.1 -1,-1.1 -0.2,-0.3 c -1.3,-1.6 -3.6,-4.4 -6.3,-8.2 V 55.8 c -9,0.1 -18.6,0.5 -28.3,1.3 C 27,52.3 26.1,47.4 25.5,42.3 33,41.6 44,40.8 56.5,40.4 V 4.7 c 2.3,-1.1 4.8,-2.2 7.4,-3.1 2.8,1 5.4,2.2 7.9,3.4 v 35.4 c 10.1,0 20.7,0.5 30.8,1.6 z"
         class="st2"
         id="Shape_20_"
         style="display:inline;fill:#f1565c" />
      <path
         d="m 64,128 -1.1,-1.3 c -0.4,-0.4 -39.7,-45 -39.7,-97 v -0.5 l 0.3,-0.4 C 24,28.1 38.2,9.4 63.3,0.2 L 63.8,0 64.3,0.2 c 25,9.2 39.6,27.9 40.2,28.7 l 0.3,0.4 v 0.5 c 0,51.9 -39.3,96.5 -39.7,97 z M 26.2,30.3 c 0.2,45.6 31.5,85.4 37.8,93.1 6.4,-7.7 37.6,-47.5 37.8,-93.1 C 99.6,27.6 85.7,11.4 63.8,3.2 41.9,11.4 28.3,27.6 26.2,30.3 Z"
         class="st4"
         id="Shape_19_"
         style="display:inline;fill:#474946" />
    </g>
  </g>
  <g
     transform="matrix(0.24175217,0,0,0.24860152,-16.250978,-37.94835)"
     style="display:none"
     id="icon:5"
     class="st0">
    <ellipse
       style="display:inline;fill:#6ed6d7"
       id="Shape_52_"
       class="st3"
       cx="66.099998"
       cy="66.699997"
       rx="60.200001"
       ry="59.599998" />
    <path
       style="display:inline;fill:#f1565c"
       id="Shape_7_"
       class="st2"
       d="m 73.8,64 38.2,38.2 c -2.9,3.6 -6.2,6.9 -9.8,9.8 L 64,73.8 25.8,112 c -3.6,-2.9 -6.9,-6.2 -9.8,-9.8 L 54.2,64 16,25.8 c 2.9,-3.6 6.2,-6.9 9.8,-9.8 L 64,54.2 102.2,16 c 3.6,2.9 6.9,6.2 9.8,9.8 z" />
    <path
       style="display:inline;fill:#474946"
       id="Shape_6_"
       class="st4"
       d="m 64,128 c -2,0 -4,-0.1 -6.1,-0.3 -12.4,-1.2 -24.1,-5.9 -33.8,-13.6 -3.8,-3 -7.2,-6.4 -10.2,-10.2 C 6.2,94.1 1.5,82.4 0.3,70.1 0.1,68 0,66 0,64 0,62 0.1,60 0.3,57.9 1.5,45.5 6.2,33.8 13.9,24.1 16.9,20.3 20.3,16.9 24.1,13.9 33.9,6.2 45.6,1.5 57.9,0.3 c 4.1,-0.4 8,-0.4 12.1,0 12.4,1.2 24.1,5.9 33.8,13.6 3.8,3 7.2,6.4 10.2,10.2 7.8,9.7 12.5,21.4 13.6,33.8 0.2,2 0.3,4.1 0.3,6.1 0,2 -0.1,4 -0.3,6.1 -1.2,12.4 -5.9,24.1 -13.6,33.8 -3,3.8 -6.4,7.2 -10.2,10.2 -9.7,7.8 -21.4,12.5 -33.8,13.6 -2,0.2 -4,0.3 -6,0.3 z M 64,3.4 c -1.9,0 -3.8,0.1 -5.7,0.3 -11.7,1.1 -22.8,5.6 -32,12.9 -3.6,2.8 -6.8,6.1 -9.7,9.7 -7.4,9.2 -11.8,20.3 -12.9,32 -0.2,1.9 -0.3,3.9 -0.3,5.7 0,1.8 0.1,3.8 0.3,5.7 1.1,11.7 5.6,22.8 12.9,32 2.8,3.6 6.1,6.8 9.7,9.7 9.2,7.4 20.3,11.8 32,12.9 3.9,0.4 7.6,0.4 11.5,0 11.7,-1.1 22.8,-5.6 32,-12.9 3.6,-2.8 6.8,-6.1 9.7,-9.7 7.4,-9.2 11.8,-20.3 12.9,-32 0.2,-1.9 0.3,-3.9 0.3,-5.7 0,-1.8 -0.1,-3.8 -0.3,-5.7 -1.1,-11.7 -5.6,-22.8 -12.9,-32 -2.8,-3.6 -6.1,-6.8 -9.7,-9.7 C 92.6,9.2 81.5,4.8 69.8,3.7 67.8,3.5 65.9,3.4 64,3.4 Z" />
  </g>
  <g
     transform="matrix(0.24175217,0,0,0.24860152,-16.250978,-37.94835)"
     style="display:none"
     id="icon:4"
     class="st0">
    <path
       style="display:inline;fill:#6ed6d7"
       id="Shape_18_"
       class="st3"
       d="M 67.2,6.1 C 51.3,26.5 19.4,17.4 19.4,17.4 c 0,26.4 -2.7,46.1 0.9,61.7 6.2,27 46.9,47.1 46.9,47.1 0,0 41.7,-20.1 47.9,-47.1 3.6,-15.7 0.9,-35.3 0.9,-61.7 0,0 -32.4,9.1 -48.4,-11.2 h -0.4 z" />
    <path
       style="display:inline;fill:#f1565c"
       id="Shape_17_"
       class="st2"
       d="m 63.6,17.8 c -12.5,15.8 -37.4,8.7 -37.4,8.7 0,20.5 -2.1,35.7 0.7,47.9 4.9,20.9 36.7,36.6 36.7,36.6 0,0 32.6,-15.6 37.4,-36.5 2.8,-12.2 0.7,-27.4 0.7,-47.9 0.1,0 -25.6,7 -38.1,-8.8 z" />
    <path
       style="display:inline;fill:#474946"
       id="Shape_16_"
       class="st4"
       d="m 63.5,128 -0.7,-0.3 C 62.4,127.5 51.9,122.3 40.5,113.7 25,101.9 15.8,90 13,78.1 10.4,67 10.9,54.4 11.5,38.4 11.8,31.1 12.1,22.9 12.1,14.2 V 12 l 2,0.6 c 0.1,0 8.3,2.3 18.5,2 C 46,14.2 56.1,9.8 62.7,1.6 L 63.9,0 65.2,1.6 c 15.8,19.9 48.4,11.1 48.8,11 l 2,-0.6 v 2.1 c 0,8.8 0.3,17 0.6,24.2 0.6,16 1,28.6 -1.5,39.7 -2.8,11.9 -12.2,23.9 -28,35.6 -11.7,8.6 -22.7,13.9 -22.8,14 z M 15.2,16.2 c 0,8.1 -0.3,15.6 -0.6,22.3 -0.6,15.7 -1,28.1 1.5,38.8 5.8,24.8 41.9,44.2 47.4,47.1 5.6,-2.8 42.6,-22.3 48.4,-47.1 2.5,-10.7 2,-23.1 1.5,-38.8 -0.2,-6.7 -0.5,-14.3 -0.6,-22.3 -3.2,0.7 -9.7,1.8 -17.4,1.6 C 81.9,17.4 71.1,13 64,5.1 56.9,13.1 46.1,17.5 32.7,17.8 24.9,18 18.4,16.9 15.2,16.2 Z" />
  </g>
  <g
     transform="matrix(0.24175217,0,0,0.24860152,-16.250978,-37.94835)"
     style="display:none"
     id="icon:3"
     class="st0">
    <path
       style="display:inline;fill:#6ed6d7"
       id="Shape_14_"
       class="st3"
       d="m 67,6.8 -30.2,9.1 c 6,29.4 -18,32.5 -18,32.5 0,52 48.2,77 48.2,77 0,0 48.8,-25 48.8,-77 0,0 -24,-3.1 -18,-32.5 z" />
    <path
       style="display:inline;fill:#f1565c"
       id="Shape_13_"
       class="st2"
       d="m 64,125.4 c 0,0 -15.5,-5.9 -28.2,-20.5 C 17.1,83.1 15,65.6 15,65.6 h 49 z m 49.6,-59.8 2.1,-19.1 c 0,0 -8.6,0 -15.8,-10.6 C 95,28.7 96.4,11.5 96.4,11.5 L 64,2 v 63.5 h 49.6 z" />
    <path
       style="display:inline;fill:#474946"
       id="Shape_15_"
       class="st4"
       d="M 63.7,128 63,127.6 C 62.5,127.3 10.7,100.3 10.7,45.3 v -1.4 l 1.4,-0.2 c 0.1,0 9.3,-1.3 14.8,-9 C 31,29 32,21.2 30,11.5 L 29.7,10 63.7,0 98.4,10.1 98.1,11.6 c -2,9.7 -1,17.5 3.1,23.2 5.5,7.7 14.7,8.9 14.8,8.9 l 1.4,0.2 v 1.4 c 0,54.9 -52.4,82 -52.9,82.3 z M 13.9,46.7 c 0.8,48.6 43.7,74.2 49.8,77.7 C 69.9,121 113.3,95.3 114.1,46.7 111,46 103.5,43.7 98.5,36.7 94.1,30.5 92.8,22.4 94.6,12.4 l -30.9,-9 -30.3,9 c 1.8,9.9 0.5,18.1 -3.9,24.3 -5,7 -12.5,9.3 -15.6,10 z" />
  </g>
  <g
     transform="matrix(0.24175217,0,0,0.24860152,-16.250978,-37.94835)"
     style="display:none"
     id="icon:1"
     class="st0">
    <path
       style="display:inline;fill:#6ed6d7"
       id="Shape_5_"
       class="st3"
       d="m 114.2,22.3 c 0,41.9 -11.9,67.5 -23.8,82.5 -11.9,15 -23.8,19.6 -23.8,19.6 0,0 -4.5,-1.7 -10.7,-6.6 -2.7,-2.1 -5.6,-4.7 -8.7,-8.1 -3.3,-3.6 -6.6,-7.9 -9.9,-13.1 -1.2,-2 -2.5,-4.2 -3.6,-6.5 L 32.3,87.4 C 32.1,87 31.9,86.6 31.7,86.2 29.2,80.9 27,75 25.1,68.3 24,64.5 23.1,60.5 22.3,56.2 20.4,46.3 19.3,35 19.3,22.3 19.3,22.3 33,23.9 33,6.5 h 67.6 c 0,5.5 1.4,9.1 3.3,11.5 3.8,4.8 9.8,4.3 10.3,4.3 0,0 0,0 0,0 z" />
    <path
       style="display:inline;fill:#f1565c"
       id="Shape_3_"
       class="st2"
       d="M 94.4,1.5 88.9,6.4 20.1,68.3 C 19,64.5 18,60.5 17.1,56.2 L 72.2,6.5 77.5,1.8 Z M 105.5,16 103.3,18 27,86.2 v 0 l 0.6,1.2 1.4,2.7 c 1.2,2.3 2.5,4.5 3.8,6.5 l 81.3,-73 c 0,-0.4 0,-0.9 0,-1.3 0,-1.3 0,-2.6 0,-4 0.1,0 -4.5,0.5 -8.6,-2.3 z m -62.2,93.7 c 3.2,3.3 6.4,6 9.2,8.1 L 108,68.2 112.3,49 Z" />
    <path
       style="display:inline;fill:#474946"
       id="Shape_4_"
       class="st4"
       d="m 63.8,128 -0.5,-0.2 C 62.8,127.6 50.3,122.6 37.6,106.6 26,91.8 12.2,64.6 12.2,18.3 v -1.8 l 1.7,0.2 c 0,0 5,0.5 8.6,-2.9 2.7,-2.5 4.1,-6.6 4.1,-12.2 V 0 h 74.7 v 1.6 c 0,6.2 1.7,10.6 5.2,13 3.5,2.5 7.5,2.1 7.6,2.1 l 1.7,-0.2 v 1.8 c 0,1.8 0,3.6 -0.1,5.3 -0.6,24.3 -5.6,58.5 -26.3,83.9 -12.5,15.3 -24.6,20.1 -25.1,20.3 z M 15.3,20 c 0.6,80.2 43.1,102.1 48.4,104.6 5.3,-2.4 47.1,-23.8 48.8,-101 0,-1.2 0,-2.4 0.1,-3.6 -1.9,-0.1 -5,-0.6 -7.9,-2.6 -4,-2.8 -6.2,-7.5 -6.5,-14.1 H 29.8 c -0.3,5.7 -2,10.1 -5.1,13 -3.3,2.9 -7.2,3.6 -9.4,3.7 z" />
  </g>
  <g
     transform="translate(0.49329096,-0.40360169)"
     id="g5868"
     style="fill:#ffeeaa" />
  <path
     style="display:inline;fill:none;stroke-width:0.22792"
     d="m 76.75732,132.08807 c -5.295456,-2.66095 -9.973785,-6.11459 -14.652474,-10.81677 -4.273469,-4.29493 -7.759264,-8.86972 -10.693938,-14.03483 l -1.165481,-2.05128 27.35592,-0.0579 27.355913,-0.0579 v -0.97069 c 0,-0.94526 -0.0852,-1.05571 -3.25071,-4.215607 L 98.455836,96.638177 H 77.639647 56.823456 l -3.397483,3.22619 c -3.12102,2.963663 -3.398769,3.292873 -3.413282,4.045583 -0.01453,0.75378 -0.09843,0.646 -1.047681,-1.34585 -4.458667,-9.355815 -7.157236,-20.054309 -8.307333,-32.93447 -0.291385,-3.263278 -0.316306,-16.871843 -0.03312,-18.086379 0.17741,-0.760886 0.268484,-0.806564 19.581833,-9.821177 l 19.403592,-9.056736 19.528009,9.059209 c 10.740399,4.982565 19.587359,9.118562 19.659899,9.191104 0.28209,0.282084 0.34373,13.574899 0.0804,17.346457 -1.49227,21.376499 -7.82738,38.032092 -19.337914,50.841102 -5.136716,5.71618 -12.419704,11.15741 -18.566571,13.87137 l -1.305361,0.57634 z M 96.1464,94.061691 c 0.345124,-0.226186 0.827348,-0.739006 1.071606,-1.139601 0.421388,-0.691095 0.444152,-1.213919 0.444959,-10.219642 9.3e-4,-10.349858 0.05223,-9.961167 -1.270819,-9.629103 l -0.55169,0.138466 v 9.661901 9.661901 H 77.378917 58.917379 V 78.367483 64.199355 l 14.431546,0.156406 14.431545,0.156408 0.292576,-0.546683 c 0.21848,-0.408235 0.229174,-0.665149 0.04223,-1.014461 -0.204839,-0.382745 -0.177992,-0.486701 0.147674,-0.571852 0.218913,-0.05724 -6.114799,-0.115811 -14.074913,-0.130156 -15.987952,-0.02882 -15.413187,-0.07806 -16.508015,1.41442 -0.465286,0.634284 -0.472042,0.843052 -0.472042,14.586895 0,13.607724 0.01116,13.962605 0.463594,14.741121 0.981704,1.689251 -0.07456,1.60764 19.94543,1.541037 16.813173,-0.05593 17.940061,-0.08456 18.529399,-0.470799 z m -8.782721,-5.406284 c 1.97393,-1.203473 2.175877,-4.641009 0.375177,-6.386315 -2.02661,-1.964267 -4.948007,-0.235572 -4.973092,2.942758 -0.02415,3.059674 2.332563,4.824708 4.597915,3.443557 z m 6.298612,-6.198999 c 0.295423,-0.421778 0.354803,-1.358822 0.354803,-5.599029 0,-3.074509 -0.0935,-5.26717 -0.235938,-5.533331 -0.195804,-0.365865 -0.485851,-0.440857 -1.70506,-0.440857 -1.351141,0 -1.479895,0.04293 -1.603282,0.534546 -0.07379,0.294001 -0.101386,0.935027 -0.06132,1.424501 0.05846,0.714284 0.171317,0.903971 0.571716,0.96096 0.489732,0.0697 0.500173,0.148353 0.5698,4.292303 0.06502,3.86978 0.107768,4.248203 0.513349,4.54438 0.633961,0.462952 1.187754,0.399287 1.595937,-0.183473 z m -6.048949,-5.050999 c 0.179009,-0.215693 0.241867,-1.45851 0.198847,-3.931624 l -0.0629,-3.616235 h -1.481482 -1.481481 v 0.911681 c 0,0.77192 0.07862,0.922846 0.51282,0.984513 0.49853,0.0708 0.512821,0.147336 0.512821,2.746438 0,1.775579 0.09186,2.765473 0.273504,2.947111 0.368998,0.368999 1.20591,0.346056 1.527872,-0.04188 z m 10.601635,-7.344324 c 0.198288,-0.07609 0.360522,-0.233545 0.360522,-0.349899 0,-0.12172 -0.187203,-0.111366 -0.440857,0.02439 -0.83882,0.44892 -1.783649,0.270035 -2.666116,-0.50478 -0.463995,-0.407394 -0.792991,-0.586881 -0.731099,-0.39886 0.305025,0.926641 2.366808,1.655384 3.47755,1.229153 z M 91.752875,68.59597 c 0.407241,-0.217951 0.440857,-0.509914 0.440857,-3.829059 0,-2.490756 -0.08391,-3.677033 -0.273504,-3.866626 -0.332572,-0.332572 -1.531314,-0.355927 -2.347193,-0.04573 -0.50276,0.191148 -0.587604,0.346901 -0.527658,0.968661 0.05475,0.567884 0.191179,0.757894 0.584253,0.813718 0.500278,0.07105 0.51282,0.141847 0.51282,2.894658 0,2.447006 0.05298,2.852684 0.398861,3.05414 0.510153,0.297138 0.672916,0.298514 1.211564,0.01024 z m 8.190145,-0.333862 c 0,-0.188034 -0.04031,-0.34188 -0.08958,-0.34188 -0.04927,0 -0.148611,0.153846 -0.220768,0.34188 -0.07215,0.188034 -0.03185,0.341881 0.08957,0.341881 0.121422,0 0.220768,-0.153847 0.220768,-0.341881 z m -2.087868,-0.694484 c 0.372869,-0.818354 0.328445,-2.189725 -0.0903,-2.787565 -0.734571,-1.048747 -1.506546,-0.315603 -1.506546,1.430767 0,1.771911 1.014828,2.634184 1.596843,1.356798 z m 2.243558,-0.373892 c -0.0727,-0.181819 -0.12676,-0.127813 -0.137696,0.137703 -0.0099,0.240264 0.04398,0.374881 0.119706,0.299145 0.0757,-0.07574 0.0838,-0.272317 0.018,-0.436848 z M 94.180645,65.70114 c -0.05239,-0.346453 -0.09665,-0.117094 -0.09836,0.509686 -0.0017,0.626781 0.04115,0.910243 0.09525,0.629915 0.0541,-0.280328 0.0555,-0.793149 0.0031,-1.139601 z m 6.148245,0.229123 c -0.0578,-0.221759 -0.10887,-0.09551 -0.11352,0.280563 -0.005,0.376069 0.0426,0.557507 0.10507,0.403198 0.0624,-0.154309 0.0662,-0.462001 0.008,-0.683761 z m -0.23018,-1.015733 c -0.0727,-0.181819 -0.12676,-0.127813 -0.137696,0.137702 -0.0099,0.240265 0.04398,0.374881 0.119706,0.299146 0.0757,-0.07574 0.0838,-0.272317 0.018,-0.436848 z m -5.698001,-0.455841 c -0.07276,-0.181818 -0.126765,-0.127813 -0.1377,0.137703 -0.0099,0.240264 0.04397,0.374881 0.119708,0.299145 0.07573,-0.07574 0.08383,-0.272316 0.01799,-0.436848 z m 1.328916,-1.73951 c -0.154589,-0.154589 -0.786671,0.415524 -1.070755,0.965781 -0.185746,0.359781 -0.07304,0.313201 0.465907,-0.192561 0.391009,-0.366929 0.663191,-0.714879 0.604848,-0.77322 z m 3.985475,1.098485 c 0,-0.125356 -0.108618,-0.22792 -0.241372,-0.22792 -0.132755,0 -0.177983,0.102564 -0.100509,0.22792 0.07747,0.125356 0.186093,0.22792 0.241372,0.22792 0.05528,0 0.100509,-0.102564 0.100509,-0.22792 z m -1.139601,-1.139601 c 0,-0.125356 -0.179488,-0.22635 -0.398861,-0.224431 -0.340866,0.003 -0.349151,0.03561 -0.05698,0.224431 0.430133,0.277973 0.455841,0.277973 0.455841,0 z m -0.930674,-0.374619 c 0.05223,-0.04467 -0.223767,-0.08122 -0.613331,-0.08122 -0.389561,0 -0.770728,0.101019 -0.847036,0.224488 -0.125778,0.20351 1.207882,0.07267 1.460367,-0.143266 z m -4.882906,-2.813655 c 0.07768,-0.125689 -0.0066,-0.169347 -0.19058,-0.09874 -0.181406,0.06961 -0.776476,0.0071 -1.322379,-0.138853 -1.235241,-0.330323 -2.734911,-1.825279 -3.226679,-3.216538 -0.193647,-0.547847 -0.358074,-0.788593 -0.366821,-0.537081 -0.02311,0.664415 1.228563,2.733352 1.975327,3.265095 1.044151,0.7435 2.860119,1.164631 3.131132,0.726119 z m 10.024251,-0.447131 c 0.28784,-0.556614 0.34773,-1.791437 0.34773,-7.168763 0,-4.328261 -0.0856,-6.684213 -0.25651,-7.059315 -0.31009,-0.680561 -0.95471,-0.869919 -2.32297,-0.682377 -1.141192,0.156417 -1.286573,0.388205 -1.29205,2.059982 -0.0042,1.29786 0.178658,1.671063 0.819,1.671063 h 0.54541 v 5.419372 c 0,4.536074 0.0578,5.501934 0.3548,5.925925 0.51759,0.738965 1.37755,0.659913 1.80459,-0.165887 z m -7.932565,-0.367333 c 2.476296,-1.888763 2.858046,-7.132932 0.698304,-9.592743 -3.234325,-3.683693 -8.240477,-0.858994 -8.111747,4.577019 0.03248,1.371874 0.03406,1.36829 0.193431,-0.440228 0.09839,-1.116507 0.343674,-2.181463 0.632723,-2.747101 1.92152,-3.760215 5.96144,-3.761318 7.812079,-0.0021 0.685254,1.391947 0.724896,1.604748 0.627975,3.371045 -0.139163,2.536192 -1.030561,4.174699 -2.803236,5.152716 -0.281944,0.155555 -0.333625,0.25414 -0.135474,0.258427 0.176201,0.0038 0.664876,-0.255838 1.085945,-0.577003 z M 93.16204,55.612536 c 0.600207,-1.201484 0.539049,-3.371811 -0.122685,-4.353759 -0.635293,-0.942711 -0.991186,-0.971502 -1.618746,-0.130952 -0.652304,0.873689 -0.693831,3.837198 -0.06717,4.7936 0.560333,0.855174 1.289281,0.73068 1.808604,-0.308889 z"
     id="path1"
     transform="scale(0.26458333)" />
  <text
     xml:space="preserve"
     style="font-style:normal;font-variant:normal;font-weight:400;font-size:3.9026px;line-height:125%;font-family:Calibri;text-align:start;letter-spacing:0px;word-spacing:0px;text-anchor:start;white-space:pre;inline-size:13.3111;display:inline;fill:#000000;fill-opacity:1;stroke:none;stroke-width:0.264583"
     x="15.08125"
     y="14.002006"
     id="text5-8"><tspan
       x="15.08125"
       y="14.002006"
       id="tspan5"><tspan
         style="fill:#225500"
         id="tspan2">  </tspan><tspan
         style="fill:#225500"
         id="tspan4">
</tspan></tspan><tspan
       x="15.08125"
       y="18.880256"
       id="tspan7"><tspan
         style="fill:#225500"
         id="tspan6"> </tspan></tspan></text>
  <text
     xml:space="preserve"
     transform="scale(0.26458333)"
     id="text5"
     style="font-style:normal;font-variant:normal;font-weight:normal;font-stretch:normal;font-size:26.6667px;font-family:Sans;-inkscape-font-specification:'Sans, Normal';font-variant-ligatures:normal;font-variant-caps:normal;font-variant-numeric:normal;font-variant-east-asian:normal;text-align:start;writing-mode:lr-tb;direction:ltr;white-space:pre;shape-inside:url(#rect5);display:inline;fill:#225500;fill-opacity:1" />
  <text
     xml:space="preserve"
     transform="scale(0.26458333)"
     id="text6"
     style="font-style:normal;font-variant:normal;font-weight:normal;font-stretch:normal;font-size:26.6667px;font-family:Sans;-inkscape-font-specification:'Sans, Normal';font-variant-ligatures:normal;font-variant-caps:normal;font-variant-numeric:normal;font-variant-east-asian:normal;text-align:start;writing-mode:lr-tb;direction:ltr;white-space:pre;shape-inside:url(#rect6);display:inline;fill:#225500;fill-opacity:1" />
  <text
     xml:space="preserve"
     transform="scale(0.26458333)"
     id="text7"
     style="font-style:normal;font-variant:normal;font-weight:normal;font-stretch:normal;font-size:26.6667px;font-family:Sans;-inkscape-font-specification:'Sans, Normal';font-variant-ligatures:normal;font-variant-caps:normal;font-variant-numeric:normal;font-variant-east-asian:normal;text-align:start;writing-mode:lr-tb;direction:ltr;white-space:pre;shape-inside:url(#rect7);display:inline;fill:#225500;fill-opacity:1" />
  <text
     xml:space="preserve"
     transform="scale(0.26458333)"
     id="text8"
     style="font-style:normal;font-variant:normal;font-weight:normal;font-stretch:normal;font-size:26.6667px;font-family:Sans;-inkscape-font-specification:'Sans, Normal';font-variant-ligatures:normal;font-variant-caps:normal;font-variant-numeric:normal;font-variant-east-asian:normal;text-align:start;writing-mode:lr-tb;direction:ltr;white-space:pre;shape-inside:url(#rect8);display:inline;fill:#225500;fill-opacity:1" />
  <text
     xml:space="preserve"
     transform="scale(0.26458333)"
     id="text9"
     style="font-style:normal;font-variant:normal;font-weight:normal;font-stretch:normal;font-size:26.6667px;font-family:Sans;-inkscape-font-specification:'Sans, Normal';font-variant-ligatures:normal;font-variant-caps:normal;font-variant-numeric:normal;font-variant-east-asian:normal;text-align:start;writing-mode:lr-tb;direction:ltr;white-space:pre;shape-inside:url(#rect9);display:inline;fill:#225500;fill-opacity:1" />
  <text
     xml:space="preserve"
     style="font-style:normal;font-variant:normal;font-weight:normal;font-stretch:normal;font-size:15.0238px;font-family:Aldhabi;-inkscape-font-specification:'Aldhabi, Normal';font-variant-ligatures:normal;font-variant-caps:small-caps;font-variant-numeric:normal;font-variant-east-asian:normal;text-align:start;writing-mode:lr-tb;direction:ltr;text-anchor:start;fill:#225500;fill-opacity:1;stroke-width:0.62599"
     x="4.7428918"
     y="15.098934"
     id="text10"
     transform="scale(0.72305388,1.3830228)"><tspan
       sodipodi:role="line"
       id="tspan12"
       x="4.7428918"
       y="15.098934"
       style="stroke-width:0.62599">     DCNSI</tspan></text>
  <text
     xml:space="preserve"
     style="font-style:normal;font-variant:normal;font-weight:bold;font-stretch:normal;font-size:4.93889px;font-family:Arial;-inkscape-font-specification:'Arial, Bold';font-variant-ligatures:normal;font-variant-caps:small-caps;font-variant-numeric:normal;font-variant-east-asian:normal;text-align:start;writing-mode:lr-tb;direction:ltr;text-anchor:start;white-space:pre;inline-size:32.976;display:inline;opacity:1;mix-blend-mode:normal;fill:#225500;fill-opacity:1;stroke-width:0.264583"
     x="15.136277"
     y="22.61396"
     id="text3"
     transform="matrix(1,0,0,1.6493995,-6.3500003,-9.1754826)"><tspan
       x="15.136277"
       y="22.61396"
       id="tspan8">Bulk-SMS</tspan></text>
  <g
     inkscape:groupmode="layer"
     id="layer1"
     inkscape:label="Layer 1">
    <text
       xml:space="preserve"
       transform="scale(0.26458333)"
       id="text11"
       style="font-style:normal;font-variant:normal;font-weight:bold;font-stretch:normal;font-size:16px;font-family:Arial;-inkscape-font-specification:'Arial, Bold';font-variant-ligatures:normal;font-variant-caps:small-caps;font-variant-numeric:normal;font-variant-east-asian:normal;text-align:end;writing-mode:lr-tb;direction:ltr;white-space:pre;shape-inside:url(#rect11);display:inline;fill:#225500;fill-opacity:1" />
  </g>
</svg>
