<svg enable-background="new 0 0 256 175" height="175" viewBox="0 0 256 175" width="256" xmlns="http://www.w3.org/2000/svg" xmlns:xlink="http://www.w3.org/1999/xlink"><defs><path id="a" d="m49.521 128.011c1.449 4.114 3.133 7.685 5.241 11.261-6.78-.061-13.102-1.007-18.348-2.75-1.226-2.777-2.365-5.58-3.4-8.396 2.39.054 4.781.087 7.166.087 3.129-.001 6.247-.057 9.341-.202m3.635-.21c5.65-.392 11.188-1.113 16.515-2.325 1.249 4.546 2.677 8.401 4.22 11.705-5.802 1.325-11.677 2.003-17.286 2.085-1.506-3.758-2.591-7.435-3.449-11.465m-22.289-6.024c-1.344-4.372-2.413-8.758-3.14-13.119 5.673.62 11.473.97 17.214.956 1.047 5.657 2.099 10.33 3.296 14.404-6.393-.366-12.375-1.181-17.37-2.241m21.594 2.415c-.744-4.276-1.315-9.044-1.911-14.714 5.396-.255 10.685-.873 15.71-1.942.743 6.042 1.719 11.307 2.876 15.904-4.476.549-9.051.791-13.544.791-1.049 0-2.093-.014-3.131-.039m-42.362-66.437c-7.014 16.729 3.237 48.025 5.936 56.119 2.699 8.095 12.95 29.679 21.583 38.312 8.635 8.634 35.884 3.229 44.518-2.847l.086-1.13c-25.25 8.4-36.66 6.986-42.265-4.171-.187-.372-.368-.744-.551-1.116 6.265.177 11.979.23 17.498-.223 1.279 1.943 2.694 3.938 4.278 6.069-1.193-2.151-2.23-4.187-3.141-6.167 5.604-.537 11.038-1.638 16.687-3.704.967 1.901 1.973 3.607 3.001 5.141-.693-1.82-1.334-3.671-1.93-5.539 2.416-.932 4.878-2.051 7.412-3.375l.054-.708c-2.617.954-5.288 1.77-7.983 2.436-1.207-3.987-2.184-8.036-2.915-12.039 4.145-1.092 8.144-2.516 11.952-4.346l.03-.39c-3.853 1.324-8.001 2.292-12.287 2.956-.957-5.804-1.375-11.463-1.187-16.629 5.479-1.538 10.554-3.69 15.005-6.582l.096-1.28c-1.532 1.038-4.232 2.472-8.999 4.305-12.737 4.901-30.038 3.904-38.999 2.584-13.309-1.96-13.669-.355-18.166-28.869-4.533-28.738 13.649-30.419 37.413-31.897 19.25-1.199 26.096 4.227 31.562 16.682l.095-1.253c-4.318-18.707-29.139-20.685-41.01-20.685s-30.758 1.618-37.773 18.346"/><linearGradient id="b"><stop offset="0" stop-color="#f58220"/><stop offset=".3867" stop-color="#ef9221"/><stop offset=".9015" stop-color="#ffc20e"/></linearGradient><linearGradient id="c" gradientUnits="userSpaceOnUse" x1="11.04" x2="99.0685" xlink:href="#b" y1="98.0444" y2="98.0444"/><clipPath id="d"><use xlink:href="#a"/></clipPath><linearGradient id="e" gradientTransform="matrix(0 -209.142 -209.142 0 107535.7266 -35093.457)" gradientUnits="userSpaceOnUse" x1="-168.543" x2="-167.9135" xlink:href="#b" y1="513.9556" y2="513.9556"/><linearGradient id="f" gradientUnits="userSpaceOnUse" x1="-20.1006" x2="75.8126" xlink:href="#b" y1="33.2451" y2="33.2451"/><clipPath id="g"><use xlink:href="#G"/></clipPath><linearGradient id="h" gradientTransform="matrix(0 -209.1429 -209.1429 0 107569.5703 -35093.707)" gradientUnits="userSpaceOnUse" x1="-168.5439" x2="-167.9138" xlink:href="#b" y1="514.0044" y2="514.0044"/><linearGradient id="i" gradientUnits="userSpaceOnUse" x1="18.6343" x2="168.2412" xlink:href="#b" y1="79.6328" y2="79.6328"/><clipPath id="j"><use xlink:href="#H"/></clipPath><linearGradient id="k" gradientTransform="matrix(0 -209.1399 -209.1399 0 107625.1797 -35093.332)" gradientUnits="userSpaceOnUse" x1="-168.543" x2="-167.9144" xlink:href="#b" y1="514.105" y2="514.105"/><linearGradient id="l" gradientUnits="userSpaceOnUse" x1="37.4971" x2="258.3207" xlink:href="#b" y1="79.6333" y2="79.6333"/><clipPath id="m"><use xlink:href="#I"/></clipPath><linearGradient id="n" gradientTransform="matrix(0 -209.1418 -209.1418 0 107731.3594 -35093.582)" gradientUnits="userSpaceOnUse" x1="-168.5415" x2="-167.9132" xlink:href="#b" y1="514.3228" y2="514.3228"/><linearGradient id="o" gradientUnits="userSpaceOnUse" x1="138.3799" x2="287.9851" xlink:href="#b" y1="79.6328" y2="79.6328"/><clipPath id="p"><use xlink:href="#J"/></clipPath><linearGradient id="q" gradientTransform="matrix(0 -209.1399 -209.1399 0 107815.3047 -35093.332)" gradientUnits="userSpaceOnUse" x1="-168.543" x2="-167.9144" xlink:href="#b" y1="514.4419" y2="514.4419"/><linearGradient id="r" gradientUnits="userSpaceOnUse" x1="87.1162" x2="193.5184" xlink:href="#b" y1="45.4761" y2="45.4761"/><clipPath id="s"><use xlink:href="#K"/></clipPath><linearGradient id="t" gradientTransform="matrix(0 -209.1453 -209.1453 0 107740.4844 -35094.332)" gradientUnits="userSpaceOnUse" x1="-168.543" x2="-167.9145" xlink:href="#b" y1="514.3032" y2="514.3032"/><linearGradient id="u" gradientUnits="userSpaceOnUse" x1="182.3467" x2="195.0147" xlink:href="#b" y1="40.9438" y2="40.9438"/><clipPath id="v"><use xlink:href="#L"/></clipPath><linearGradient id="w" gradientTransform="matrix(0 -209.1417 -209.1417 0 107766.1172 -35093.707)" gradientUnits="userSpaceOnUse" x1="-168.5425" x2="-167.9136" xlink:href="#b" y1="514.353" y2="514.353"/><linearGradient id="x" gradientUnits="userSpaceOnUse" x1="194.0508" x2="206.8591" xlink:href="#b" y1="41.0879" y2="41.0879"/><clipPath id="y"><use xlink:href="#M"/></clipPath><linearGradient id="z" gradientTransform="matrix(0 -209.1417 -209.1417 0 107784.6172 -35093.957)" gradientUnits="userSpaceOnUse" x1="-168.5464" x2="-167.9151" xlink:href="#b" y1="514.3853" y2="514.3853"/><linearGradient id="A" gradientUnits="userSpaceOnUse" x1="173.0361" x2="225.7851" xlink:href="#b" y1="41.7153" y2="41.7153"/><clipPath id="B"><use xlink:href="#N"/></clipPath><linearGradient id="C" gradientTransform="matrix(0 -209.1436 -209.1436 0 107806.6719 -35094.332)" gradientUnits="userSpaceOnUse" x1="-168.5435" x2="-167.9158" xlink:href="#b" y1="514.4204" y2="514.4204"/><linearGradient id="D" gradientUnits="userSpaceOnUse" x1="148.9316" x2="255.345" xlink:href="#b" y1="45.4761" y2="45.4761"/><clipPath id="E"><use xlink:href="#O"/></clipPath><linearGradient id="F" gradientTransform="matrix(0 -209.1453 -209.1453 0 107838.7344 -35094.332)" gradientUnits="userSpaceOnUse" x1="-168.543" x2="-167.9145" xlink:href="#b" y1="514.479" y2="514.479"/><path id="G" d="m62.98 29.516v9.041c4.833.331 8.853 1.514 12.411 3.216v-11.538c-.664-3.985-3.359-5.518-6.068-5.518-3.161.001-6.343 2.087-6.343 4.799"/><path id="H" d="m95.999 60.939c-2.705.452-4.979 1.155-6.819 2.11-1.842.954-3.223 2.167-4.143 3.639-.922 1.473-1.381 3.222-1.381 5.246 0 1.202.209 2.378.629 3.53.419 1.151 1.072 2.114 1.96 2.888 1.102.97 2.754 1.835 4.958 2.592s5.019 1.551 8.447 2.382 5.998 1.481 7.707 1.949c1.71.47 2.804.976 3.28 1.519.428.51.642 1.069.642 1.678 0 2.485-2.205 3.727-6.61 3.727-1.908 0-3.371-.485-4.39-1.457-.888-.938-1.357-2.436-1.406-4.494h-15.663c.099 2.102.354 3.846.765 5.233.41 1.388 1.286 2.652 2.626 3.793 1.339 1.142 3.436 2.048 6.289 2.723 2.853.674 6.647 1.009 11.382 1.009 5.393 0 9.795-.48 13.208-1.442 3.412-.963 5.895-2.33 7.449-4.106s2.33-3.913 2.33-6.413c0-2.795-.961-5.089-2.886-6.881-1.069-.954-2.712-1.826-4.933-2.614-2.219-.791-5.125-1.616-8.718-2.48-3.593-.862-6.109-1.492-7.547-1.886-1.439-.395-2.405-.831-2.898-1.308-.444-.395-.667-.945-.667-1.652 0-.97.428-1.735 1.282-2.293.855-.559 2.08-.839 3.675-.839 2.056 0 3.551.337 4.49 1.011 1.15.773 1.775 2.129 1.875 4.07h15.044c-.05-1.99-.424-3.712-1.122-5.168-.699-1.456-1.817-2.684-3.354-3.687s-3.625-1.764-6.264-2.282-5.858-.777-9.656-.777c-3.684 0-6.877.227-9.581.68"/><path id="I" d="m172.594 61.222-7.376 24.688h-.097l-7.622-24.688h-23.283v36.822h13.022v-27.672h.147l9.398 27.672h14.848l10.014-27.672h.098v27.672h14.256v-36.822z"/><path id="J" d="m215.742 60.939c-2.704.452-4.979 1.155-6.82 2.11-1.841.954-3.222 2.167-4.142 3.639-.922 1.473-1.382 3.222-1.382 5.246 0 1.202.21 2.378.629 3.53.42 1.151 1.072 2.114 1.96 2.888 1.102.97 2.754 1.835 4.957 2.592s5.021 1.551 8.45 2.382c3.427.831 5.995 1.481 7.706 1.949 1.71.47 2.803.976 3.28 1.519.428.51.641 1.069.641 1.678 0 2.485-2.202 3.727-6.609 3.727-1.908 0-3.37-.485-4.39-1.457-.889-.938-1.357-2.436-1.407-4.494h-15.66c.098 2.102.353 3.846.764 5.233.41 1.388 1.287 2.652 2.628 3.793 1.339 1.142 3.436 2.048 6.288 2.723 2.853.674 6.646 1.009 11.383 1.009 5.393 0 9.796-.48 13.207-1.442 3.413-.963 5.894-2.33 7.449-4.106 1.553-1.776 2.33-3.913 2.33-6.413 0-2.795-.961-5.089-2.886-6.881-1.068-.954-2.712-1.826-4.933-2.614-2.22-.791-5.125-1.616-8.719-2.48-3.592-.862-6.108-1.492-7.547-1.886-1.439-.395-2.405-.831-2.897-1.308-.444-.395-.666-.945-.666-1.652 0-.97.428-1.735 1.282-2.293.854-.559 2.08-.839 3.675-.839 2.056 0 3.551.337 4.488 1.011 1.151.773 1.776 2.129 1.874 4.07h15.045c-.049-1.99-.422-3.712-1.121-5.168-.7-1.456-1.816-2.684-3.354-3.687s-3.626-1.764-6.265-2.282c-2.64-.518-5.857-.777-9.655-.777-3.683 0-6.878.227-9.583.68"/><path id="K" d="m171.8 38.488c1.103-1.404 2.572-2.106 4.407-2.106 1.509 0 2.86.592 4.06 1.778 1.2 1.185 1.908 2.819 2.128 4.901h-12.352c.067-1.644.652-3.168 1.757-4.573m-2.118-1.469c-1.842 2.027-2.764 4.803-2.764 8.324 0 3.659.931 6.512 2.795 8.561 1.863 2.049 4.097 3.072 6.7 3.072 1.646 0 3.233-.446 4.769-1.336s2.98-2.246 4.336-4.069l-2.444-1.727c-2.124 2.987-4.405 4.48-6.846 4.48-.972 0-1.979-.339-3.021-1.017s-1.871-1.757-2.487-3.237c-.466-1.123-.733-2.563-.801-4.316h15.599c-.04-2.63-.44-4.768-1.2-6.412-.761-1.644-1.902-2.949-3.423-3.916-1.521-.965-3.104-1.449-4.749-1.449-2.466 0-4.621 1.014-6.464 3.042"/><path id="L" d="m191.891 25.365h3v31.159h-3z"/><path id="M" d="m203.707 56.523h3.002v-22.094h-3.002zm0-27.273h3.002v-3.597h-3.002z"/><path id="N" d="m216.411 26.372v8.057h-3.865v2.734h3.865v14.263c0 2.001.448 3.44 1.346 4.317.896.876 2.401 1.315 4.51 1.315.7 0 1.563-.062 2.591-.185v-2.693c-.891.22-1.609.33-2.158.33-1.014 0-1.822-.319-2.425-.956-.604-.638-.905-1.524-.905-2.662v-13.729h5.488v-2.734h-5.488v-8.057z"/><path id="O" d="m233.623 38.488c1.102-1.404 2.573-2.106 4.408-2.106 1.508 0 2.861.592 4.062 1.778 1.197 1.185 1.906 2.819 2.125 4.901h-12.353c.07-1.644.656-3.168 1.758-4.573m-2.115-1.469c-1.844 2.027-2.767 4.803-2.767 8.324 0 3.659.932 6.512 2.796 8.561 1.863 2.049 4.097 3.072 6.7 3.072 1.645 0 3.233-.446 4.768-1.336 1.536-.89 2.981-2.246 4.338-4.069l-2.446-1.727c-2.123 2.987-4.404 4.48-6.844 4.48-.973 0-1.979-.339-3.021-1.017s-1.869-1.757-2.487-3.237c-.466-1.123-.733-2.563-.801-4.316h15.6c-.041-2.63-.441-4.768-1.202-6.412-.76-1.644-1.901-2.949-3.423-3.916-1.521-.965-3.103-1.449-4.747-1.449-2.467 0-4.622 1.014-6.464 3.042"/></defs><use fill="url(#c)" xlink:href="#a"/><path clip-path="url(#d)" d="m3.084 39.408h85.797v121.411h-85.797z" fill="url(#e)"/><use fill="url(#f)" xlink:href="#G"/><path clip-path="url(#g)" d="m62.98 24.718h12.411v17.055h-12.411z" fill="url(#h)"/><use fill="url(#i)" xlink:href="#H"/><path clip-path="url(#j)" d="m83.21 60.259h44.049v38.747h-44.049z" fill="url(#k)"/><use fill="url(#l)" xlink:href="#I"/><path clip-path="url(#m)" d="m134.216 61.222h61.783v36.822h-61.783z" fill="url(#n)"/><use fill="url(#o)" xlink:href="#J"/><path clip-path="url(#p)" d="m202.955 60.259h44.049v38.747h-44.049z" fill="url(#q)"/><use fill="url(#r)" xlink:href="#K"/><path clip-path="url(#s)" d="m166.918 33.977h18.6v22.999h-18.6z" fill="url(#t)"/><use fill="url(#u)" xlink:href="#L"/><path clip-path="url(#v)" d="m191.891 25.365h3v31.159h-3z" fill="url(#w)"/><use fill="url(#x)" xlink:href="#M"/><path clip-path="url(#y)" d="m203.707 25.652h3.002v30.871h-3.002z" fill="url(#z)"/><use fill="url(#A)" xlink:href="#N"/><path clip-path="url(#B)" d="m212.546 26.372h12.312v30.687h-12.312z" fill="url(#C)"/><use fill="url(#D)" xlink:href="#O"/><path clip-path="url(#E)" d="m228.741 33.977h18.602v22.999h-18.602z" fill="url(#F)"/></svg>