<svg height="200" preserveAspectRatio="none" viewBox="0 0 200 200" width="200" xmlns="http://www.w3.org/2000/svg"><path d="m174.209 28.162c-19.564-19.282-49.92-26.082-74.149-26.082-.074 0-.06-.079-.06-.079s.015.079-.06.079c-24.229 0-54.584 6.8-74.149 26.082-20.374 20.08-22.791 46.838-22.791 71.838s2.418 51.758 22.792 71.838c19.564 19.281 49.92 26.082 74.149 26.082.074 0 .06.079.06.079s-.015-.079.06-.079c24.229 0 54.585-6.801 74.149-26.082 20.372-20.08 22.79-46.838 22.79-71.838s-2.418-51.758-22.791-71.838z" fill="#1dcdca"/></svg>